<svg xmlns="http://www.w3.org/2000/svg" width="320" height="220" viewBox="0 0 320 220"><title>Wikitracks Vinyl</title><path fill="#333" d="M187.14 37.99C167.87 18.72 142.25 8.108 115 8.108S62.128 18.72 42.86 37.99c-19.27 19.27-29.883 44.89-29.883 72.14 0 27.253 10.612 52.873 29.882 72.142 19.27 19.27 44.89 29.883 72.14 29.883s52.87-10.61 72.14-29.88c19.24-19.24 29.837-44.862 29.837-72.144 0-27.28-10.597-52.9-29.836-72.14zm-72.668 74.846c-1.64 0-2.968-1.328-2.968-2.968s1.33-2.968 2.968-2.968 2.968 1.33 2.968 2.968c0 1.64-1.33 2.968-2.968 2.968z"/><path d="M115 10.108c26.716 0 51.834 10.405 70.727 29.296 39 39 39 102.456 0 141.456-18.893 18.89-44.01 29.295-70.727 29.295-26.717 0-51.835-10.404-70.727-29.297-18.892-18.892-29.296-44.01-29.296-70.727S25.38 58.298 44.273 39.406C63.165 20.513 88.283 10.108 115 10.108m0-4c-27.786 0-53.908 10.82-73.556 30.47-19.647 19.645-30.467 45.768-30.467 73.553 0 27.787 10.82 53.91 30.467 73.556 19.648 19.648 45.77 30.47 73.556 30.47 27.784 0 53.906-10.82 73.555-30.468 19.617-19.617 30.422-45.74 30.422-73.557 0-27.815-10.805-53.937-30.422-73.555C168.907 16.93 142.785 6.108 115 6.108z"/><radialGradient id="a" cx="890.222" cy="247.956" r="98.154" gradientTransform="matrix(.707 .707 .707 -.707 -605.102 -430.1)" gradientUnits="userSpaceOnUse"><stop offset=".55"/><stop offset="1" stop-opacity="0"/></radialGradient><path fill="url(#a)" d="M185.71 39.158C146.66.105 83.343.105 44.29 39.158l141.42 141.42c39.054-39.053 39.054-102.368 0-141.42z"/><radialGradient id="b" cx="890.221" cy="200.962" r="98.156" gradientTransform="matrix(.707 .707 -.707 .707 -458.199 -577.002)" gradientUnits="userSpaceOnUse"><stop offset=".55"/><stop offset="1" stop-opacity="0"/></radialGradient><path fill="url(#b)" d="M44.29 180.58c-39.054-39.053-39.053-102.37 0-141.422l141.42 141.42c-39.052 39.054-102.368 39.054-141.42.002z"/><circle fill="none" stroke="#000" stroke-width=".5" cx="115" cy="110.132" r="88.918"/><circle fill="none" stroke="#000" stroke-width=".5" cx="115" cy="110.132" r="80.229"/><circle fill="none" stroke="#000" stroke-width=".5" cx="115" cy="110.132" r="65.845"/><circle fill="none" stroke="#000" stroke-width=".5" cx="115" cy="110.132" r="55.24"/><path d="M115 62.808c-26.136 0-47.324 21.188-47.324 47.324 0 26.137 21.188 47.324 47.324 47.324s47.324-21.188 47.324-47.324S141.136 62.808 115 62.808zm-.528 50.028c-1.64 0-2.968-1.328-2.968-2.968s1.33-2.968 2.968-2.968 2.968 1.33 2.968 2.968c0 1.64-1.33 2.968-2.968 2.968z"/><linearGradient id="c" gradientUnits="userSpaceOnUse" x1="146.943" y1="-140.81" x2="194.998" y2="-92.755" gradientTransform="matrix(1 0 0 -1 -55.96 -6.66)"><stop offset="0" stop-color="#FFF" stop-opacity="0"/><stop offset=".429" stop-color="#FFF" stop-opacity=".214"/><stop offset=".5" stop-color="#FFF" stop-opacity=".25"/><stop offset=".572" stop-color="#FFF" stop-opacity=".214"/><stop offset="1" stop-color="#FFF" stop-opacity="0"/></linearGradient><path fill="url(#c)" d="M72.482 19.54C62.668 24.154 53.59 30.4 45.575 38.135l-2.573 2.573c-7.727 8.005-13.968 17.075-18.58 26.877L157.543 200.71c9.78-4.6 18.83-10.823 26.822-18.522l2.633-2.633c7.826-8.115 14.014-17.234 18.555-26.938L72.482 19.54zm41.99 93.296c-1.64 0-2.968-1.328-2.968-2.968s1.33-2.968 2.968-2.968 2.968 1.33 2.968 2.968c0 1.64-1.33 2.968-2.968 2.968z"/><radialGradient id="d" cx="115" cy="110.132" r="37.793" gradientUnits="userSpaceOnUse"><stop offset="0" stop-color="#f00"/><stop offset="1" stop-color="#BF0000"/></radialGradient><path fill="url(#d)" stroke="#000" stroke-width=".5" d="M115 72.34c-20.873 0-37.793 16.92-37.793 37.792s16.92 37.793 37.793 37.793 37.793-16.92 37.793-37.793S135.873 72.34 115 72.34zm-.528 40.496c-1.64 0-2.968-1.328-2.968-2.968s1.33-2.968 2.968-2.968 2.968 1.33 2.968 2.968c0 1.64-1.33 2.968-2.968 2.968z"/><g fill="#FFF"><path d="M128.482 108.27c-.473-.005-.832.13-1.078.405-.084.088-.15.132-.202.132-.03 0-.056-.014-.077-.042-.023-.028-.034-.06-.034-.098 0-.074.08-.164.238-.27.322-.217.756-.325 1.3-.325.41 0 .748.076 1.018.23.148.08.263.19.343.325.08.136.12.286.12.45 0 .275-.11.493-.332.652-.205.147-.46.24-.762.274-.16.018-.262.03-.305.04l.484.068c.363.045.647.16.853.35.176.16.264.363.264.61 0 .24-.083.455-.25.648-.325.375-.86.563-1.606.563-.568 0-1.02-.112-1.354-.337-.22-.146-.33-.284-.33-.413 0-.033.01-.062.035-.083s.054-.034.087-.034c.043 0 .075.01.097.032.02.02.056.074.104.158.066.12.18.22.343.293.28.128.584.19.914.19l.133-.002v-1.954h-.442c-.097 0-.158-.005-.182-.016-.025-.01-.037-.038-.037-.08 0-.048.013-.077.038-.09.023-.01.086-.017.186-.017h.44l-.002-1.66zM132.36 108.27c-.472-.005-.83.13-1.077.405-.084.088-.15.132-.202.132-.028 0-.055-.014-.076-.042-.023-.028-.034-.06-.034-.098 0-.074.08-.164.237-.27.322-.217.756-.325 1.3-.325.41 0 .748.076 1.018.23.148.08.263.19.343.325.08.136.12.286.12.45 0 .275-.11.493-.33.652-.206.147-.46.24-.763.274-.16.018-.262.03-.305.04l.483.068c.363.045.647.16.853.35.176.16.264.363.264.61 0 .24-.084.455-.252.648-.324.375-.86.563-1.605.563-.568 0-1.02-.112-1.354-.337-.222-.146-.332-.284-.332-.413 0-.033.012-.062.036-.083s.054-.034.087-.034c.044 0 .076.01.098.032s.057.074.105.158c.066.12.18.22.343.293.28.128.584.19.914.19l.132-.002v-1.954h-.442c-.098 0-.16-.005-.183-.016-.025-.01-.037-.038-.037-.08 0-.048.012-.077.037-.09.023-.01.086-.017.186-.017h.44l-.002-1.66zM135.932 108.142l-.012.836.012 1.147v.048h-.845v-.048l.012-1.165v-.493l-.028.01-.212.065c-.02.008-.04.012-.056.012-.03 0-.044-.017-.044-.05 0-.024.008-.04.022-.05.016-.01.06-.022.133-.04l.367-.096.14-.037.51-.138zM137.687 107.702c.035-.002.066.008.093.03.025.023.04.05.04.078 0 .02-.023.08-.067.174-.044.094-.196.417-.458.968l-1.182 2.496-.322.68c-.06.127-.097.21-.11.246-.05.125-.11.188-.178.188-.03 0-.058-.012-.08-.032-.024-.02-.036-.046-.036-.073 0-.03.023-.092.07-.188l.114-.245.923-1.938.577-1.222.27-.565c.148-.322.233-.502.255-.54.022-.036.052-.056.092-.058zM137.992 110.223c-.237-.003-.416.064-.54.202-.042.044-.075.066-.1.066-.016 0-.028-.006-.04-.02-.01-.014-.017-.03-.017-.05 0-.036.04-.08.118-.134.162-.108.38-.163.65-.163.204 0 .374.038.51.114.073.04.13.095.17.163s.06.143.06.225c0 .14-.055.247-.165.327-.102.073-.23.12-.38.138-.08.01-.132.016-.153.02l.242.034c.182.022.324.082.426.174.088.08.133.183.133.307 0 .12-.043.23-.127.324-.163.187-.43.28-.804.28-.283 0-.51-.057-.676-.168-.11-.074-.166-.143-.166-.207 0-.018.006-.03.02-.043.01-.01.025-.017.042-.017.02 0 .037.005.048.017.01.01.028.037.053.078.033.062.09.11.172.146.14.064.29.097.456.097h.066v-.978h-.222c-.05 0-.08-.002-.092-.008-.012-.006-.02-.02-.02-.04 0-.024.008-.04.02-.046.013-.005.044-.007.093-.007h.222v-.83zM141.186 111.843c.094.064.194.12.304.165.108.045.225.08.35.106.03.006.045.02.045.044 0 .03-.02.048-.066.048-.104 0-.248-.045-.433-.136-.154-.074-.33-.19-.53-.348v.06l.002.25v.14h-.893v-.064l.002-.48.004-.57-.003-.885h.59c.263 0 .462.007.597.022.135.015.25.042.344.082.155.064.277.17.367.32.083.136.124.278.124.43 0 .16-.045.31-.138.452-.15.227-.372.348-.666.363zm-.14-.09h.07c.2 0 .37-.056.51-.168.087-.07.154-.158.2-.265.045-.096.067-.194.067-.295 0-.172-.056-.324-.167-.46-.085-.103-.19-.176-.32-.22-.127-.042-.307-.065-.538-.068l-.014.98v.267l.002.068c.06.056.124.11.19.16zM143.152 111.814V112.173h-.893v-.09l.008-1.03-.006-.487v-.333l-.003-.06h.67c.27 0 .48.013.62.036.142.022.26.064.355.125.13.08.23.194.3.338.053.11.08.226.08.347 0 .13-.03.256-.09.375-.074.144-.176.252-.31.33-.13.076-.284.114-.458.114-.063 0-.156-.008-.275-.026zm0-1.54v.098l-.005.98.003.363c.077.02.178.03.3.03.11 0 .215-.02.314-.064.1-.044.183-.105.25-.186.117-.136.176-.293.176-.474 0-.17-.06-.326-.174-.463-.082-.1-.188-.17-.317-.216-.13-.044-.298-.066-.502-.066h-.045zM146.576 110.105l.318 1.09.146.484.13.437.018.056h-.89l-.28-1.036-.606.91-.62-.865c-.06.21-.126.47-.196.777-.025.116-.044.187-.055.207-.01.022-.033.033-.067.033-.043 0-.064-.015-.064-.044 0-.01.013-.06.04-.148l.09-.313.16-.538.31-1.053.8 1.164.766-1.163z"/></g><g fill="#FFF"><path d="M95.033 112.945c.073-.073.185-.11.336-.11.16 0 .283.043.366.126.073.074.11.16.11.26h-.18c0-.064-.022-.114-.064-.157-.047-.047-.12-.07-.22-.07-.108 0-.184.022-.226.064-.036.035-.055.077-.055.125 0 .047.012.08.032.102.026.025.073.052.14.078.12.052.256.11.407.18.04.016.08.042.116.078.058.058.086.125.086.203 0 .104-.036.19-.11.266-.077.077-.205.116-.382.116-.172 0-.305-.047-.398-.14-.067-.068-.102-.17-.102-.298h.18c0 .094.02.16.063.203.058.058.146.087.266.087.108 0 .19-.027.24-.078.043-.044.064-.085.064-.126 0-.047-.016-.086-.047-.117-.026-.026-.067-.053-.125-.078-.052-.027-.12-.06-.203-.095-.095-.043-.17-.075-.228-.103-.042-.017-.078-.04-.11-.07-.046-.046-.07-.108-.07-.187.002-.1.038-.185.11-.26zM96.033 112.852h1.07V113h-.445v1.188h-.18V113h-.445v-.148zM97.29 112.852h.86V113h-.68v.414h.633v.148h-.633v.477h.72v.147h-.9v-1.335zM98.455 112.844h.656c.105 0 .19.034.26.102.067.068.1.162.1.28 0 .122-.033.216-.1.282-.037.036-.09.06-.157.07l.305.602h-.195l-.28-.578h-.407v.578h-.18v-1.336zm.18.148v.46h.46c.053 0 .098-.02.134-.054.035-.037.054-.094.054-.172 0-.074-.02-.13-.063-.172-.04-.043-.09-.063-.147-.063l-.438.002zM99.674 112.852h.86V113h-.68v.414h.632v.148h-.633v.477h.72v.147h-.9v-1.335zM100.98 113c.108-.11.24-.164.397-.164.156 0 .29.055.398.164.125.125.188.297.188.516s-.063.392-.188.517c-.11.108-.242.163-.398.163-.156 0-.29-.055-.398-.163-.126-.125-.19-.298-.19-.517s.064-.39.19-.516zm.13.102c-.088.09-.132.228-.132.414 0 .188.044.325.133.414.08.078.168.117.267.117s.188-.04.266-.117c.09-.09.133-.227.133-.414 0-.187-.044-.324-.133-.414-.078-.078-.167-.117-.266-.117s-.188.038-.266.117z"/></g><g fill="#FFF"><path d="M84.08 111.115c.03 0 .068.023.11.072.133.145.295.26.486.348.19.088.38.132.568.132.206 0 .31-.063.31-.188 0-.08-.036-.17-.108-.27-.072-.1-.245-.298-.52-.592-.344-.372-.573-.65-.687-.83-.153-.237-.23-.464-.23-.68 0-.324.146-.59.435-.796.284-.203.635-.304 1.05-.304.293 0 .56.06.804.177.09.046.17.1.235.16.067.06.1.11.1.15 0 .02-.01.037-.027.054-.02.016-.038.024-.057.024-.03 0-.073-.027-.132-.082-.096-.09-.22-.165-.376-.224s-.305-.09-.447-.09c-.09 0-.16.02-.216.058-.058.038-.085.087-.085.147 0 .072.035.16.104.265s.185.243.35.416c.518.553.836.925.952 1.118.122.203.183.398.183.587 0 .16-.043.312-.13.454-.086.145-.206.26-.36.353-.292.176-.65.262-1.07.262-.39 0-.73-.102-1.026-.302-.207-.142-.31-.252-.31-.332 0-.022.01-.043.026-.062.018-.02.04-.03.064-.03zM88.716 108.838v.077l-.006.413-.005.64-.008.976.01.548.006.24h-1.36l.013-.977.008-.86-.006-.454-.008-.502.003-.1h1.353zm-.686-.926c.466 0 .7.122.7.365 0 .118-.063.21-.185.277-.123.066-.296.1-.518.1-.443 0-.665-.126-.665-.377 0-.24.223-.36.668-.365zM92.775 108.116l-.005 1.295-.003.917.008 1.284v.12h-1.353v-.345c-.146.146-.285.25-.42.31-.136.063-.288.095-.46.095-.335 0-.634-.124-.895-.372-.323-.307-.484-.69-.484-1.16 0-.457.156-.827.47-1.11.275-.253.588-.38.934-.38.153 0 .302.03.446.087s.282.146.417.262l-.01-1h1.355zm-1.345 1.218c-.138-.125-.263-.22-.373-.28-.11-.063-.207-.094-.292-.094-.067 0-.112.024-.137.073-.022.048-.035.14-.035.274l.003.117v1.78c0 .144.008.23.02.267.02.076.07.115.152.115.088 0 .182-.033.28-.1.098-.067.227-.18.382-.347v-1.804zM94.446 110.37v.82c0 .157.01.26.03.3.036.082.123.123.26.123.206 0 .408-.057.61-.168.198-.112.372-.268.52-.465.047-.064.08-.106.103-.125.02-.02.043-.025.068-.025.03 0 .055.01.073.033.02.02.03.05.03.082 0 .074-.06.176-.177.3-.155.16-.348.292-.58.394-.228.1-.454.15-.673.15-.376 0-.708-.128-.995-.38-.168-.148-.297-.332-.387-.55-.08-.19-.12-.38-.12-.57 0-.185.036-.368.106-.552.07-.185.168-.344.29-.478.145-.157.314-.28.51-.366.192-.084.394-.127.604-.127.327 0 .622.096.888.29.413.3.617.734.614 1.305h-.617l-.795.002-.362.005zm.678-.176v-.77c-.004-.167-.007-.266-.01-.298-.004-.033-.017-.063-.038-.09-.05-.07-.15-.105-.302-.105-.155 0-.252.04-.29.12-.025.048-.038.172-.038.373v.77l.323.012.354-.01zM99.87 107.898l2.117 3.833h-1.836l-.255-.483h-.887l-.78-.004-.133-.002-.175.323c-.05.1-.086.158-.106.182-.02.025-.046.035-.076.035-.06 0-.09-.025-.09-.08 0-.02.017-.064.05-.127.036-.063.156-.268.362-.617l1.603-2.7.207-.358zm-.824 1.74l-.463.778-.37.64.79.013.792-.013-.75-1.42z"/></g><g fill="#FFF"><path d="M108.246 133.172l-.008-.152c-.168.074-.29.11-.37.113-.08.002-.135-.033-.168-.104-.026-.06-.03-.126-.012-.204.02-.096.045-.186.076-.27.032-.085.067-.153.105-.202.033-.037.09-.074.164-.108.184-.084.395-.172.637-.26.056-.02.1-.04.137-.056l.118-.047c.098-.045.16-.072.188-.08.028-.01.063-.014.107-.018.03-.002.058 0 .083.01.055.02.102.074.14.156.07.155.064.278-.02.368-.05.057-.098.1-.145.13-.046.032-.13.085-.258.157l.13.903c.114-.053.204-.098.272-.137.043-.02.11-.057.2-.1.108-.05.19-.073.245-.07.054.003.096.03.122.09.02.044.028.118.025.225-.004.104-.02.192-.045.266-.013.036-.04.067-.078.097-.038.027-.11.066-.213.113l-.03.014-.058.027c-.098.046-.21.103-.33.17.038.257.057.456.056.6s-.023.278-.066.397c-.03.084-.067.156-.116.217-.05.06-.1.102-.155.127-.09.044-.18.056-.27.032-.088-.02-.15-.064-.18-.13-.04-.083-.09-.374-.15-.874s-.107-.964-.134-1.396zM111.3 132.398c-.018-.195-.05-.394-.095-.594-.046-.2-.09-.35-.137-.447-.013-.025-.025-.035-.04-.03-.024.013-.04.085-.05.218-.01.133-.01.262 0 .39.028.28.055.51.082.692.027.18.058.328.09.443.033.115.075.23.127.342.045.098.09.162.13.195.042.035.088.04.135.02.08-.04.155-.117.222-.234.067-.12.114-.256.142-.41.02-.114.05-.182.086-.198.047-.02.086.004.12.075.073.158.096.336.067.53-.03.198-.1.38-.212.546-.112.166-.25.287-.41.363-.2.093-.393.104-.576.038s-.323-.2-.417-.404c-.077-.164-.132-.375-.165-.63s-.04-.522-.027-.804c.014-.28.05-.545.104-.793.057-.248.132-.455.225-.617.057-.104.136-.18.24-.23.08-.036.164-.044.253-.026.088.02.17.064.247.137.077.074.14.163.19.272.107.23.168.48.18.743.013.265-.024.515-.11.752-.04.113-.086.21-.136.287-.05.076-.103.13-.155.152-.05.025-.085.016-.103-.023-.01-.02-.012-.07-.002-.15.014-.105.017-.257.01-.454l-.004-.063-.01-.09zM113.432 132.666c.06.082.137.1.236.053.11-.052.224-.185.34-.397.068-.123.12-.193.155-.21.044-.02.092-.026.14-.02.05.004.08.02.093.045.012.026.007.07-.017.135-.043.115-.098.23-.163.354-.068.123-.137.23-.208.324-.073.095-.148.177-.23.25-.08.073-.158.126-.232.16-.184.087-.356.103-.517.048-.158-.053-.28-.168-.36-.344-.064-.133-.105-.3-.126-.494-.02-.197-.015-.394.016-.586.035-.228.11-.438.227-.63.146-.237.314-.4.506-.49.14-.063.268-.07.387-.02.12.053.216.152.287.307.057.12.084.262.08.42-.002.157-.036.327-.103.504-.053.146-.116.27-.186.372-.07.1-.142.17-.215.2-.032.014-.07.022-.11.02zm-.036-.068c.046-.076.076-.146.09-.21.034-.132.043-.27.03-.413-.006-.098-.022-.2-.05-.31-.027-.11-.06-.208-.102-.294-.038-.08-.073-.114-.108-.097-.047.02-.07.158-.07.412 0 .15.013.3.034.44s.055.256.096.347c.015.032.04.073.08.126zM115.59 132.527c.085-.045.146-.125.18-.238.033-.114.028-.218-.016-.312-.03-.066-.075-.107-.138-.125-.065-.025-.19-.02-.37.008-.266.042-.453.038-.563-.016-.1-.034-.17-.102-.213-.194-.08-.17-.097-.37-.053-.596.044-.228.137-.44.278-.64.14-.195.31-.343.503-.433.095-.044.193-.062.297-.056.104.004.196.033.28.082.08.053.144.12.183.205.04.085.054.185.043.3-.01.113-.043.22-.096.318-.053.096-.114.162-.188.195-.04.02-.08.026-.12.022-.037-.004-.062-.017-.07-.037-.01-.02-.02-.053-.025-.098-.025-.144-.062-.263-.105-.354-.043-.093-.112-.166-.206-.226-.05.084-.08.146-.087.188-.025.09-.035.184-.028.28.006.1.025.188.06.263.025.054.06.09.097.11.04.02.092.028.157.023.065-.004.16-.018.284-.043.21-.043.362-.06.46-.053.02.002.058.012.11.027.084.033.148.098.193.195.047.1.063.218.048.353-.014.133-.062.285-.143.46-.086.185-.188.335-.304.452-.115.117-.26.215-.428.293-.165.078-.31.105-.433.084s-.212-.088-.265-.2c-.037-.08-.043-.175-.02-.286.024-.108.07-.213.14-.307.067-.097.145-.165.233-.206.066-.03.107-.03.12-.002.008.016.01.043.006.086-.01.13.007.238.048.326.03.07.08.118.153.153zM117.15 128.402l-.017-.037c-.025-.053-.046-.078-.062-.07-.017.008-.033.053-.047.13-.013.077-.02.16-.017.247.004.223.023.45.058.686.034.236.082.463.144.685.025.086.053.18.083.276l.016.003c.077-.22.137-.38.18-.48.043-.095.103-.212.18-.347.098-.168.194-.273.29-.316.06-.03.116-.03.17 0 .053.027.097.08.133.156.02.045.04.11.062.203.05.187.104.34.16.462.024.053.056.11.093.166.03.043.1.127.207.25.084.094.13.146.135.158.01.02-.003.057-.04.11-.106.175-.227.294-.357.353-.108.05-.22.038-.335-.034-.116-.073-.214-.194-.292-.362-.03-.066-.063-.15-.093-.252l-.016-.004c-.11.313-.18.524-.217.633-.145.378-.287.6-.43.665-.063.028-.138.012-.22-.056-.083-.066-.156-.17-.22-.31-.14-.298-.225-.722-.257-1.27-.01-.216-.012-.425-.006-.628.005-.203.018-.38.038-.535.016-.11.04-.21.068-.3.03-.093.067-.17.108-.243.042-.07.09-.13.144-.182.054-.05.112-.09.175-.12.158-.073.31-.083.455-.032s.253.152.324.303c.05.107.07.234.066.38-.005.15-.036.305-.095.462-.04.1-.09.197-.152.29-.063.094-.12.15-.168.174-.015.007-.03.007-.047.003s-.03-.017-.036-.03c-.01-.023-.014-.08-.01-.173.007-.103.003-.222-.008-.358-.013-.136-.03-.263-.058-.38-.025-.114-.055-.21-.088-.28zM120.376 129.44l-.038.073c-.003.008-.007.016-.014.026l-.022.046c-.162.317-.298.552-.405.7-.107.148-.215.25-.322.298-.12.058-.235.06-.35.006-.113-.055-.205-.15-.272-.3-.085-.182-.12-.393-.11-.634.014-.242.065-.484.158-.726.094-.24.217-.457.372-.647s.326-.33.514-.418c.185-.087.34-.12.466-.103s.22.09.278.217c.05.106.068.257.058.452.062-.022.115-.024.158-.006.044.02.082.066.114.137.054.115.105.287.154.517.05.228.08.442.094.647.02.26-.01.504-.087.738-.06.178-.155.35-.286.518-.132.17-.26.28-.384.34-.104.05-.214.052-.335.007-.12-.047-.202-.12-.25-.224-.033-.07-.05-.15-.05-.24.002-.092.02-.176.05-.256.06-.17.178-.358.352-.567.03-.04.06-.063.08-.073.01-.007.02-.007.03-.003.01.005.02.013.022.02.003.01.004.036 0 .073-.01.096-.003.21.02.344.02.133.05.242.09.328.046.1.085.143.115.13.017-.01.028-.036.036-.083.01-.05.01-.1.01-.155-.024-.377-.08-.71-.173-.998-.014-.04-.037-.104-.07-.186zm-.106-.522l.004.01-.013-.006c-.007.008-.018.014-.032.02-.027.017-.062.034-.104.056-.075.035-.12.037-.133.01-.006-.014-.004-.037.006-.066.025-.09.035-.194.028-.317-.007-.12-.03-.226-.063-.313-.01-.02-.016-.04-.02-.057 0-.008-.003-.012-.004-.018 0-.004-.003-.008-.004-.012-.01-.02-.03-.023-.057-.013-.06.026-.117.13-.18.312-.038.115-.064.242-.08.383-.016.14-.016.273-.002.4.015.125.04.23.082.317.04.086.08.12.123.1.042-.02.114-.14.216-.353.045-.1.124-.25.236-.452zM122.11 128.55l.013.048c.012.025.025.063.042.113.027.075.048.14.058.19.01.05.014.094.008.135-.007.04-.02.084-.04.135-.06.148-.146.25-.255.3-.09.042-.17.04-.24-.005-.074-.045-.144-.14-.21-.285-.055-.115-.107-.264-.16-.443-.054-.182-.093-.348-.12-.5l-.008-.063c-.004-.01-.008-.03-.012-.063-.04-.224-.06-.396-.058-.515 0-.117.02-.22.057-.31.036-.073.09-.126.163-.16.104-.05.197-.017.278.1.013-.026.023-.056.03-.09.02-.07.036-.12.053-.147.016-.028.04-.05.07-.063.126-.06.25.037.366.287.063.14.11.276.14.42.032.144.043.265.035.365-.008.104-.033.164-.078.187-.048.02-.115-.06-.2-.244-.046-.1-.088-.17-.124-.222-.038-.05-.075-.086-.113-.104-.006.104.055.305.178.606.07.173.11.284.128.33zM122.71 126.412c-.143.06-.25.01-.327-.152-.037-.08-.06-.186-.07-.31s0-.228.028-.304c.015-.04.032-.072.054-.1.02-.02.054-.046.097-.064.074-.035.137-.04.19-.02.05.02.096.07.135.155.05.105.078.213.085.322.008.11-.006.208-.038.296-.033.086-.082.145-.146.174l-.007.002zm.77 2.348c-.068.027-.143.025-.224-.006-.082-.033-.15-.078-.206-.137-.055-.06-.107-.14-.158-.25-.113-.244-.195-.54-.248-.89-.052-.35-.053-.618-.002-.81.02-.08.07-.136.15-.175.086-.04.172-.033.262.02.09.054.162.147.222.272.087.188.163.418.227.695.064.275.108.573.138.89.015.127.002.223-.037.287-.026.04-.067.074-.118.098l-.005.005zM124.682 126.752l.06-.217c.066-.213.12-.373.165-.484.046-.108.092-.194.14-.255.047-.063.103-.11.168-.14.104-.048.19-.054.26-.02.07.037.137.126.2.265.027.057.062.145.1.262.054.158.11.3.17.434.07.146.134.262.19.348.037.052.08.1.125.146.04.047.064.078.073.098.01.023.01.047 0 .068-.028.06-.072.123-.134.188-.063.065-.12.11-.17.134-.085.04-.175.047-.27.02-.096-.023-.187-.08-.272-.163-.085-.086-.158-.19-.218-.32-.04-.084-.078-.188-.114-.313l-.014-.006c-.03.103-.055.183-.074.24-.02.062-.04.114-.056.168-.077.27-.137.502-.182.707-.017.08-.033.15-.05.214-.028.08-.077.135-.147.168-.094.045-.188.045-.28.002-.09-.043-.164-.12-.216-.233-.033-.067-.063-.157-.094-.266-.03-.106-.06-.226-.085-.353s-.05-.26-.067-.396c-.02-.14-.03-.272-.038-.4-.016-.214 0-.395.05-.542.037-.1.1-.168.195-.21.153-.073.276-.012.37.187.067.145.135.37.2.67l.015.002zM127.12 124.57l-.02-.1c-.05-.226-.084-.406-.106-.55-.02-.142-.03-.264-.033-.37 0-.103.01-.183.03-.238.03-.097.127-.183.287-.256.07-.033.126-.056.164-.063.04-.01.073-.01.102 0 .032.254.06.44.084.563.024.123.065.287.122.494.096.336.202.63.32.883.077.166.17.332.282.498.11.17.25.347.413.538-.053.092-.105.172-.16.244s-.107.133-.16.186c-.055.054-.105.09-.154.113-.087.04-.166.026-.24-.042-.064-.055-.108-.102-.138-.14-.028-.038-.098-.147-.21-.33-.1.3-.214.55-.34.753s-.24.33-.35.382c-.123.057-.248.055-.374-.01s-.227-.176-.3-.336c-.067-.143-.11-.316-.132-.52-.02-.203-.014-.412.017-.625.02-.14.052-.268.09-.376.04-.107.093-.218.158-.324.12-.19.236-.314.352-.367.056-.024.155-.026.298-.003zm.42 1.084l-.06-.13c-.043.103-.084.163-.12.18-.02.01-.036.005-.046-.017-.004-.01-.01-.03-.013-.062-.01-.104-.034-.194-.072-.278-.057-.12-.14-.23-.25-.336-.054-.057-.097-.075-.13-.06-.016.007-.025.02-.028.038-.023.08-.032.182-.03.303.005.126.02.253.048.39.027.132.063.244.106.34.082.175.176.236.282.187.053-.024.11-.09.17-.194.06-.103.107-.222.145-.36zM129.665 125.098c.058.08.137.098.235.053.11-.052.224-.183.34-.395.07-.123.12-.192.156-.21.044-.022.09-.027.14-.022.05.006.08.02.092.047.013.025.008.07-.016.133-.042.115-.097.234-.162.355-.068.123-.137.23-.208.32-.072.096-.147.18-.23.25-.08.073-.157.128-.23.16-.184.087-.356.105-.517.05-.16-.055-.28-.168-.362-.344-.063-.136-.105-.3-.125-.496-.02-.194-.016-.392.015-.584.036-.228.112-.438.228-.63.147-.237.314-.4.506-.49.14-.064.27-.07.388-.022.12.052.216.152.287.308.058.12.084.258.082.418-.003.158-.037.326-.104.504-.053.146-.116.27-.187.37-.07.102-.14.17-.213.204-.034.014-.07.022-.112.022zm-.037-.07c.046-.077.075-.145.09-.208.033-.133.043-.27.028-.416-.004-.096-.02-.2-.048-.31-.027-.11-.062-.206-.103-.295-.037-.08-.073-.113-.107-.1-.047.022-.07.16-.07.415 0 .15.012.3.034.438.02.144.054.258.096.348.015.036.04.077.08.13zM131.555 124.146l.012.05c.012.024.024.062.042.11.026.075.046.14.057.188s.013.096.007.135c-.008.04-.02.085-.04.137-.062.147-.147.248-.256.3-.09.04-.17.04-.24-.007-.073-.045-.144-.142-.21-.285-.055-.115-.107-.264-.16-.443-.054-.182-.093-.348-.12-.498l-.008-.066c-.004-.01-.008-.028-.012-.063-.04-.225-.06-.396-.057-.516 0-.118.02-.223.057-.313.036-.07.09-.125.163-.157.104-.05.198-.017.28.1.01-.025.02-.057.03-.09.02-.07.034-.12.05-.148.017-.027.04-.05.07-.063.128-.063.25.034.367.286.064.137.11.274.142.418.028.143.04.266.033.366-.008.103-.033.162-.077.185-.05.022-.116-.06-.202-.242-.045-.098-.087-.172-.123-.22-.037-.052-.073-.087-.112-.106-.006.104.055.305.178.605l.13.334zM120.342 133.947l-.01-.178c-.043.023-.086.052-.13.083-.026.02-.065.04-.116.065-.073.033-.126.015-.16-.06-.014-.03-.02-.07-.022-.123 0-.05.005-.092.02-.125.027-.07.117-.16.267-.27.15-.107.337-.214.56-.314.17-.08.34-.133.517-.158.176-.027.338-.025.487.002s.28.08.392.154.195.174.252.297c.062.132.09.267.09.405-.003.137-.034.27-.096.4-.04.09-.082.16-.126.216-.043.06-.112.13-.204.21.052.04.096.066.13.087.034.018.09.038.162.065.188.058.43.078.722.06.016 0 .032 0 .053-.002.03.137.05.24.053.31.003.067-.005.146-.024.24-.035.163-.117.273-.245.335-.07.033-.17.047-.3.043-.128-.004-.24-.025-.34-.066-.08-.035-.158-.078-.233-.125-.075-.05-.154-.104-.24-.17-.084-.066-.16-.133-.23-.2-.07-.065-.127-.128-.17-.183-.01-.01-.02-.025-.03-.05-.014-.03-.017-.06-.007-.085.01-.026.035-.06.075-.096.056-.055.098-.104.128-.153.03-.048.063-.118.1-.208.034-.115.05-.238.04-.365-.01-.13-.038-.248-.09-.357-.062-.133-.14-.22-.233-.266-.095-.045-.215-.05-.36-.018.087.52.165 1.014.23 1.48l.032.188c.047.3.074.526.082.68.006.154-.004.268-.03.344-.03.076-.086.164-.172.266-.086.103-.16.166-.222.195-.12.056-.212.015-.276-.12-.025-.057-.055-.16-.085-.313-.03-.153-.063-.354-.096-.607-.034-.252-.063-.502-.085-.748-.027-.247-.046-.5-.063-.765zM124.09 134.318c.057.08.135.098.233.053.11-.052.225-.183.34-.395.07-.123.12-.192.156-.21.043-.02.09-.028.14-.022.05.006.08.02.092.047.012.026.007.07-.016.133-.042.115-.096.23-.164.354-.066.12-.136.23-.207.322-.072.093-.147.177-.23.25s-.158.126-.23.16c-.185.085-.357.1-.518.048-.16-.055-.28-.168-.36-.344-.064-.135-.106-.3-.127-.496-.02-.195-.016-.39.015-.584.036-.227.112-.438.23-.633.143-.235.312-.397.503-.487.14-.063.268-.07.387-.02.12.05.216.152.288.307.056.12.083.258.08.416-.002.16-.037.328-.104.504-.054.148-.117.27-.188.373-.07.102-.14.168-.213.2-.033.018-.07.025-.11.025zm-.04-.068c.048-.078.08-.148.093-.21.033-.134.042-.27.026-.415-.004-.096-.02-.2-.048-.31-.027-.108-.06-.206-.102-.294-.038-.08-.074-.112-.107-.098-.048.02-.072.16-.072.414.003.15.015.3.036.438.02.14.054.26.096.35.014.032.04.073.08.126zM125.76 131.69c.114-.048.218-.057.313-.026.094.03.165.094.213.195.04.09.057.19.05.304-.01.113-.04.217-.09.31-.052.095-.116.16-.194.196-.045.02-.076.016-.092-.018-.006-.012-.008-.04-.01-.09.013-.123-.01-.248-.07-.375-.03-.064-.052-.092-.065-.086-.02.01-.038.052-.052.122-.014.07-.017.147-.01.233.007.135.025.272.056.416.028.145.063.26.105.347.047.1.1.173.155.216.057.045.112.053.167.026.05-.023.105-.08.164-.175.06-.093.11-.193.148-.31.013-.053.03-.086.054-.098.035-.016.063-.004.08.035.086.182.092.38.02.594-.053.143-.128.273-.226.39-.1.12-.198.202-.298.25-.176.08-.348.096-.516.038-.17-.057-.29-.17-.37-.338s-.123-.36-.135-.582c-.013-.22.008-.44.06-.67.05-.227.132-.434.243-.623.08-.132.177-.226.29-.278h.01zM127.724 130.664c.22-.104.342-.127.366-.076.027.06-.007.113-.104.164-.117.064-.212.148-.287.258-.076.11-.13.234-.16.377-.032.143-.04.29-.023.44.016.153.06.302.126.448.075.16.173.272.295.336.12.064.24.066.362.01.112-.052.184-.155.213-.31.03-.154.01-.308-.06-.46-.06-.126-.14-.23-.245-.317-.103-.086-.223-.143-.357-.172-.06-.013-.09-.026-.098-.042-.01-.02.006-.066.047-.137.045-.075.103-.15.173-.22.07-.072.133-.12.19-.147.066-.03.138-.043.214-.035.075.006.15.03.228.074.075.043.145.1.208.172s.117.156.16.25c.074.156.116.324.128.504.014.182-.007.34-.058.48-.068.177-.173.345-.312.5-.14.16-.288.274-.446.35-.152.07-.317.114-.494.133-.176.02-.33.005-.458-.04-.173-.063-.31-.203-.41-.42-.08-.173-.118-.363-.114-.572.005-.21.047-.42.125-.625.08-.207.187-.392.322-.554.137-.16.292-.284.47-.366zM130.11 131.44l.012.048c.012.025.024.063.04.113.03.074.05.14.06.19.01.05.013.097.007.136-.008.04-.022.084-.04.135-.063.15-.148.25-.257.302-.09.04-.17.04-.24-.006-.073-.045-.144-.14-.21-.285-.055-.113-.107-.263-.16-.44-.054-.184-.092-.35-.12-.5l-.008-.064c-.004-.01-.008-.03-.012-.063-.04-.228-.06-.397-.058-.517 0-.116.02-.223.057-.31.037-.073.09-.128.163-.16.104-.05.197-.017.28.102l.03-.09c.02-.072.035-.122.05-.148.018-.028.04-.05.07-.063.128-.06.25.037.367.287.063.14.11.276.142.42.03.143.04.264.034.365-.008.103-.033.162-.077.185-.048.02-.115-.06-.2-.244-.046-.097-.088-.17-.124-.22-.037-.05-.074-.084-.113-.105-.006.104.055.307.178.607.07.17.112.283.13.327zM131.675 129.066l-.02-.1c-.05-.226-.083-.406-.105-.55-.02-.142-.032-.265-.033-.37s.01-.186.03-.238c.03-.097.125-.183.287-.257.07-.03.125-.054.163-.062.038-.01.07-.008.1.003.033.253.062.44.085.564.023.123.064.286.12.493.097.336.204.63.32.884.08.167.173.333.284.5.11.167.25.345.413.535-.055.093-.107.173-.16.244-.055.07-.108.132-.162.186-.054.053-.104.09-.154.11-.085.04-.164.027-.24-.04-.062-.056-.107-.104-.135-.14-.03-.04-.1-.147-.21-.33-.103.3-.216.55-.34.752s-.243.33-.352.38c-.123.06-.248.057-.374-.01s-.227-.176-.3-.335c-.068-.144-.11-.316-.132-.52-.02-.204-.015-.413.017-.626.02-.14.05-.268.09-.377.04-.107.092-.217.157-.324.118-.19.235-.313.35-.37.056-.02.156-.023.298 0zm.42 1.084l-.06-.13c-.044.103-.084.16-.12.18-.022.01-.037.005-.046-.017-.006-.01-.01-.03-.014-.062-.01-.103-.035-.194-.074-.278-.056-.118-.14-.23-.25-.336-.053-.057-.096-.075-.13-.062-.015.01-.024.02-.027.04-.023.08-.032.18-.03.305.005.122.02.25.047.384.028.134.063.246.107.34.08.177.175.238.28.19.054-.026.11-.092.17-.196.06-.102.11-.22.146-.358zM133.306 128.092c-.14.06-.25.01-.326-.154-.037-.08-.06-.184-.07-.31-.01-.126 0-.228.028-.304.014-.04.03-.072.053-.096.023-.025.055-.047.1-.066.072-.035.135-.043.186-.023.052.02.098.07.137.155.05.105.077.213.085.324.007.108-.006.208-.04.294s-.08.145-.145.174l-.007.004zm.77 2.347c-.067.023-.142.02-.223-.007-.082-.035-.15-.08-.205-.14-.056-.058-.108-.142-.16-.25-.112-.244-.194-.54-.247-.887-.05-.35-.05-.62 0-.812.02-.078.068-.137.15-.174.085-.04.172-.033.26.02.09.056.164.146.223.27.088.19.164.42.227.696.063.277.11.574.14.89.01.128 0 .224-.04.29-.027.04-.066.074-.117.098l-.006.005zM135.28 128.432l.06-.217c.066-.213.12-.375.165-.484.046-.107.09-.193.14-.257.046-.06.103-.106.167-.137.104-.05.19-.057.26-.02.07.035.136.123.2.262.027.06.062.145.102.264.052.156.107.3.17.432.068.148.132.265.19.35.035.052.077.102.124.146.04.045.063.078.072.1.01.02.01.044 0 .064-.028.063-.072.125-.134.19s-.118.108-.17.132c-.084.04-.173.047-.27.02-.095-.026-.185-.08-.27-.165s-.157-.188-.217-.317c-.04-.086-.08-.19-.116-.314l-.013-.007-.074.24c-.02.06-.04.115-.055.168-.077.267-.138.503-.182.708-.017.08-.033.15-.05.21-.028.08-.078.138-.147.17-.093.044-.187.044-.28 0-.09-.042-.163-.12-.215-.23-.032-.07-.063-.158-.094-.267-.03-.105-.058-.226-.084-.353-.025-.127-.05-.26-.067-.398-.02-.138-.033-.272-.04-.403-.016-.213 0-.393.052-.54.035-.097.1-.167.193-.212.153-.07.277-.008.37.19.067.147.136.37.2.67l.014.007zM138.378 127.668l-.04.072-.013.027c-.007.014-.014.026-.023.047-.162.317-.297.55-.404.7-.107.148-.215.25-.322.298-.12.057-.236.06-.35.004-.114-.053-.204-.152-.272-.3-.085-.18-.122-.393-.11-.633.013-.24.065-.483.158-.725.092-.24.216-.457.37-.648.155-.19.326-.33.514-.418.185-.086.34-.12.467-.102.125.018.218.09.276.217.05.106.07.258.058.453.063-.022.115-.024.158-.007.044.02.082.066.115.138.055.116.106.288.155.518.05.227.08.442.092.647.02.26-.008.504-.086.737-.058.18-.153.35-.286.52-.13.167-.26.28-.383.34-.103.05-.214.05-.333.004-.12-.045-.204-.12-.252-.222-.033-.07-.048-.15-.048-.24 0-.092.017-.178.048-.256.06-.17.18-.358.353-.567.03-.04.058-.063.08-.075.01-.004.02-.004.03 0 .01.004.018.012.02.02.006.01.007.033.003.072-.01.096-.003.21.018.344s.052.243.09.33c.048.1.087.142.118.128.017-.008.028-.035.035-.084.01-.047.01-.098.01-.152-.023-.377-.08-.71-.172-.998-.015-.04-.038-.104-.07-.186zm-.107-.523l.005.008-.014-.004c-.006.008-.017.014-.032.02-.026.016-.062.033-.104.053-.075.035-.12.04-.132.012-.007-.016-.007-.036.003-.065.026-.09.036-.194.03-.317-.01-.12-.03-.228-.065-.313-.01-.02-.017-.04-.02-.058l-.005-.018c0-.004-.002-.008-.004-.012-.01-.02-.027-.023-.056-.01-.057.024-.116.13-.18.31-.036.114-.063.24-.08.382-.014.14-.016.27 0 .398.014.127.04.232.08.32.04.086.082.12.125.1.04-.02.11-.14.214-.354.046-.102.124-.252.237-.453zM140.378 127.59c.085-.045.145-.125.18-.238.033-.113.027-.22-.016-.313-.03-.065-.076-.108-.137-.126-.066-.023-.19-.02-.37.008-.267.043-.454.037-.564-.014-.098-.037-.168-.104-.213-.197-.078-.17-.096-.366-.052-.595.044-.227.137-.438.278-.637.14-.197.31-.343.503-.435.095-.043.193-.063.296-.058.104.007.197.033.28.084.083.05.145.118.185.202.04.084.053.185.042.3-.013.114-.045.22-.098.317-.053.097-.115.16-.188.196-.04.018-.08.027-.12.02-.037 0-.062-.016-.07-.034-.01-.02-.02-.055-.025-.1-.027-.144-.064-.26-.107-.354-.043-.095-.112-.168-.207-.226-.05.084-.077.146-.085.187-.025.09-.034.184-.027.28.006.1.025.187.06.264.026.054.058.088.097.108s.092.03.157.025c.065-.004.162-.02.285-.045.21-.04.36-.06.46-.053.02 0 .06.01.11.026.084.035.148.1.193.194.048.103.063.222.048.354-.014.133-.063.287-.144.46-.087.185-.188.335-.304.452-.116.117-.26.217-.428.295-.165.077-.31.105-.433.085-.124-.023-.212-.09-.264-.2-.036-.08-.042-.177-.02-.288.024-.11.07-.213.14-.307.066-.096.145-.162.233-.203.066-.03.107-.033.12-.004.008.016.01.045.006.088-.01.13.005.24.046.325.03.07.08.12.152.155z"/></g><g fill="#FFF"><path d="M102.298 90.104c0 .035-.01.067-.033.098-.022.03-.047.044-.074.044-.222.02-.402.093-.544.215-.14.123-.286.355-.436.7l-2.295 5.17c-.016.048-.058.072-.127.072-.054 0-.096-.024-.125-.072l-1.29-2.687-1.478 2.687c-.03.048-.072.072-.127.072-.065 0-.11-.024-.13-.072l-2.255-5.17c-.14-.323-.29-.55-.445-.677-.156-.128-.373-.207-.652-.237-.023 0-.047-.013-.067-.038-.022-.024-.033-.054-.033-.086 0-.082.024-.124.072-.124.2 0 .41.01.63.027.204.018.396.027.576.027.184 0 .4-.01.648-.027.262-.018.492-.027.693-.027.048 0 .072.042.072.124 0 .083-.017.124-.046.124-.2.015-.36.066-.475.153-.117.087-.175.2-.175.343 0 .072.023.163.072.27l1.84 4.22 1.08-2.01-.986-2.064c-.177-.372-.32-.61-.437-.718-.113-.106-.286-.172-.518-.196-.02 0-.04-.013-.06-.038-.02-.024-.03-.054-.03-.086 0-.082.02-.124.063-.124.2 0 .386.01.554.027.162.018.334.027.518.027.18 0 .37-.01.57-.027.207-.018.412-.027.613-.027.047 0 .07.042.07.124 0 .083-.014.124-.044.124-.402.027-.604.142-.604.344 0 .09.046.23.14.42l.65 1.324.65-1.21c.09-.173.134-.317.134-.435 0-.278-.2-.427-.603-.444-.036 0-.054-.04-.054-.124 0-.03.01-.058.027-.084s.035-.04.054-.04c.144 0 .32.01.53.027.2.018.367.027.496.027.092 0 .23-.008.41-.022.227-.02.418-.032.57-.032.036 0 .055.036.055.106 0 .095-.033.142-.1.142-.234.024-.422.09-.564.194-.14.105-.32.345-.532.72l-.863 1.6 1.168 2.383 1.73-4.02c.06-.147.09-.283.09-.406 0-.296-.2-.453-.604-.47-.037 0-.056-.042-.056-.125 0-.082.027-.124.082-.124.146 0 .32.01.52.027.187.018.343.027.47.027.13 0 .283-.01.458-.027.18-.018.342-.027.485-.027.047 0 .068.035.068.106zM104.544 96.156c0 .055-.016.082-.047.082-.13 0-.286-.006-.466-.018-.17-.012-.316-.018-.435-.018-.12 0-.265.006-.437.018-.18.012-.338.018-.47.018-.032 0-.048-.027-.048-.082 0-.05.016-.075.047-.08.236-.026.396-.07.48-.13s.13-.183.13-.364v-2.754c0-.137-.02-.233-.053-.29-.034-.055-.095-.098-.18-.13-.086-.032-.212-.06-.378-.078-.03 0-.047-.026-.047-.08s.015-.08.046-.08c.133 0 .29.005.47.017.173.012.318.018.438.018.118 0 .265-.006.436-.018.18-.012.335-.018.466-.018.03 0 .047.026.047.08s-.016.08-.047.08c-.164.02-.29.046-.375.078-.085.032-.145.075-.177.13-.033.055-.05.15-.05.29v2.754c0 .135.017.23.05.286.032.056.092.1.176.132.085.03.208.058.372.077.034.004.052.03.052.08zM109.5 96.156c0 .055-.017.082-.048.082-.13 0-.287-.006-.47-.018-.173-.012-.318-.018-.437-.018-.115 0-.274.006-.477.018-.213.012-.384.018-.515.018-.03 0-.047-.027-.047-.082 0-.05.014-.075.04-.08.264-.03.396-.094.396-.19 0-.054-.043-.123-.13-.21l-1.16-1.18c-.063-.064-.116-.105-.162-.124-.046-.02-.108-.03-.188-.03v1.24c0 .136.017.23.05.286.035.056.096.1.183.132.086.032.21.058.373.077.033.004.05.03.05.08 0 .054-.017.08-.048.08-.13 0-.286-.005-.467-.017-.174-.012-.32-.018-.44-.018-.118 0-.263.006-.435.018-.182.012-.338.018-.47.018-.03 0-.046-.027-.046-.082 0-.05.016-.075.047-.08.235-.026.395-.07.48-.13.085-.062.128-.183.128-.364v-2.754c0-.137-.018-.233-.052-.29-.034-.055-.094-.098-.18-.13s-.212-.06-.378-.078c-.03 0-.047-.026-.047-.08s.017-.08.048-.08c.13 0 .287.005.47.017.17.012.315.018.433.018.12 0 .27-.006.442-.018.18-.012.337-.018.467-.018.03 0 .046.026.046.08s-.016.08-.047.08c-.166.02-.292.046-.378.078-.086.032-.146.076-.18.132s-.05.15-.05.288v1.327c.075 0 .136-.01.183-.03.047-.018.103-.06.167-.122l1.284-1.267c.105-.1.158-.173.158-.218 0-.053-.025-.093-.074-.12-.05-.025-.15-.05-.3-.068-.032 0-.048-.026-.048-.08s.018-.08.053-.08c.092 0 .213.005.363.017.16.012.293.018.397.018.105 0 .222-.007.35-.02.108-.01.2-.016.276-.016.028 0 .042.026.042.08s-.016.08-.047.08c-.188.023-.334.062-.44.115-.108.053-.237.15-.387.294l-1.337 1.27 1.66 1.687c.114.12.228.207.34.26.113.054.28.094.505.12.036.004.054.03.054.08zM111.745 96.156c0 .055-.016.082-.047.082-.13 0-.286-.006-.466-.018-.17-.012-.317-.018-.436-.018s-.265.006-.437.018c-.182.012-.34.018-.472.018-.03 0-.047-.027-.047-.082 0-.05.017-.075.048-.08.236-.026.396-.07.48-.13s.13-.183.13-.364v-2.754c0-.137-.02-.233-.053-.29-.034-.055-.095-.098-.18-.13-.086-.032-.212-.06-.378-.078-.03 0-.047-.026-.047-.08s.016-.08.047-.08c.133 0 .29.005.47.017.173.012.318.018.438.018.118 0 .265-.006.436-.018.18-.012.336-.018.467-.018.03 0 .047.026.047.08s-.016.08-.047.08c-.164.02-.29.046-.375.078-.086.032-.146.075-.178.13-.033.055-.05.15-.05.29v2.754c0 .135.017.23.05.286.032.056.092.1.176.132.086.03.21.058.373.077.035.004.052.03.052.08zM116.25 93.132c0 .037-.036.056-.106.056-.03 0-.05-.014-.06-.04-.083-.276-.202-.47-.358-.585-.156-.114-.387-.17-.693-.17h-.275c-.095 0-.16.015-.195.046-.035.03-.053.09-.053.175v2.97c0 .134.018.228.05.284.036.055.097.1.183.13.087.033.21.06.373.078.03.004.047.03.047.08 0 .054-.016.08-.047.08-.13 0-.287-.005-.468-.017-.173-.01-.315-.017-.432-.017-.12 0-.267.006-.44.018-.182.013-.337.02-.468.02-.03 0-.047-.028-.047-.083 0-.05.017-.075.048-.08.235-.026.396-.07.48-.13.085-.062.128-.183.128-.363v-2.97c0-.085-.018-.144-.053-.175-.035-.032-.102-.048-.2-.048h-.227c-.275 0-.524.07-.75.21s-.37.32-.438.542c-.01.03-.03.044-.063.044-.066 0-.1-.02-.1-.064.11-.295.212-.628.31-1 .266.054.873.08 1.82.08.975 0 1.594-.026 1.86-.08.026.252.084.588.174 1.008zM120.487 96.156c0 .055-.016.082-.047.082-.072 0-.19-.007-.354-.02-.12-.01-.198-.016-.237-.016-.058 0-.147.006-.268.018-.12.012-.21.018-.266.018l-.887-1.443c-.126-.2-.226-.328-.304-.385-.076-.057-.23-.085-.463-.085v1.258c0 .135.017.23.05.285.035.056.096.1.183.132.086.032.21.058.373.077.032.004.048.03.048.08 0 .054-.016.08-.047.08-.13 0-.285-.005-.466-.017-.174-.012-.32-.018-.44-.018-.118 0-.263.006-.435.018-.18.012-.335.018-.466.018-.03 0-.047-.027-.047-.082 0-.05.016-.075.047-.08.162-.02.285-.045.37-.076.087-.032.147-.076.18-.13.035-.056.052-.15.052-.288v-2.754c0-.135-.016-.23-.048-.286-.032-.056-.09-.1-.177-.133-.085-.034-.21-.06-.376-.08-.03 0-.047-.026-.047-.08s.016-.08.047-.08c.13 0 .285.005.465.017.17.012.315.018.435.018s.266-.006.44-.018c.18-.012.336-.018.466-.018.437 0 .772.09 1.01.272.24.18.358.438.358.767 0 .207-.08.4-.236.578-.157.178-.37.315-.638.412l.9 1.467c.08.128.18.223.303.283.123.062.282.104.478.127.03.004.042.03.042.08zm-1.492-2.933c0-.57-.248-.857-.746-.857-.164 0-.288.014-.373.04-.085.026-.142.067-.17.124-.028.057-.042.157-.042.3v1.306c.113.016.255.023.427.023.313 0 .543-.075.688-.224.143-.15.215-.387.215-.713zM124.816 96.156c0 .055-.016.082-.047.082-.136 0-.288-.006-.457-.018-.146-.012-.27-.018-.375-.018-.12 0-.267.006-.442.018-.186.012-.343.018-.474.018-.03 0-.047-.026-.047-.08 0-.054.012-.08.035-.08.174-.01.298-.032.374-.07.076-.038.114-.098.114-.178 0-.05-.02-.133-.06-.244l-.333-.98h-1.2l-.335.907c-.043.12-.064.216-.064.282 0 .173.158.267.475.282.024 0 .036.027.036.08 0 .055-.016.08-.047.08-.118 0-.248-.005-.39-.017-.135-.012-.255-.018-.36-.018-.083 0-.188.006-.315.018-.133.012-.246.018-.34.018-.028 0-.043-.024-.043-.073 0-.055.022-.084.067-.088.16-.016.29-.06.384-.135.095-.074.192-.225.294-.453l1.37-3.362c.01-.03.038-.046.08-.046.048 0 .077.014.09.043l1.206 3.364c.068.188.16.327.277.417.116.09.272.146.467.17.04.004.06.03.06.08zm-1.773-1.737l-.514-1.492-.555 1.49h1.068zM128.76 95.155c-.07.313-.14.644-.205.995-.11 0-.313.026-.605.08-.374.067-.65.102-.83.102-.445 0-.835-.088-1.17-.264-.336-.176-.597-.427-.784-.753-.188-.327-.28-.69-.28-1.09 0-.394.1-.757.296-1.09.197-.332.47-.59.817-.776s.737-.278 1.172-.278c.184 0 .43.02.737.058.238.03.414.047.522.047.025.273.07.604.135.995 0 .03-.03.047-.094.047-.04 0-.063-.017-.07-.048-.07-.266-.222-.483-.453-.655-.23-.172-.5-.258-.802-.258-.458 0-.843.188-1.154.566-.31.38-.466.842-.466 1.39 0 .532.153.985.462 1.358.31.374.685.56 1.13.56.696 0 1.188-.33 1.48-.988.013-.03.04-.046.078-.046.053 0 .08.015.08.045zM133.524 96.156c0 .055-.016.082-.047.082-.13 0-.287-.006-.47-.018-.173-.012-.318-.018-.437-.018-.115 0-.274.006-.477.018-.213.012-.384.018-.515.018-.03 0-.047-.027-.047-.082 0-.05.015-.075.042-.08.263-.03.395-.094.395-.19 0-.054-.043-.123-.13-.21l-1.16-1.18c-.063-.064-.116-.105-.162-.124s-.108-.03-.188-.03v1.24c0 .136.017.23.05.286.035.056.096.1.183.132.086.032.21.058.373.077.033.004.05.03.05.08 0 .054-.017.08-.048.08-.13 0-.286-.005-.467-.017-.174-.012-.32-.018-.44-.018-.118 0-.263.006-.435.018-.182.012-.338.018-.47.018-.03 0-.046-.027-.046-.082 0-.05.016-.075.047-.08.236-.026.396-.07.482-.13.084-.062.127-.183.127-.364v-2.754c0-.137-.018-.233-.052-.29-.033-.055-.093-.098-.18-.13-.085-.032-.21-.06-.377-.078-.03 0-.047-.026-.047-.08s.016-.08.047-.08c.13 0 .287.005.47.017.17.012.315.018.433.018.12 0 .268-.006.44-.018.182-.012.338-.018.468-.018.03 0 .047.026.047.08s-.015.08-.046.08c-.165.02-.29.046-.377.078-.086.032-.146.076-.18.132s-.05.15-.05.288v1.327c.075 0 .136-.01.183-.03.047-.018.103-.06.167-.122l1.284-1.267c.106-.1.16-.173.16-.218 0-.053-.026-.093-.075-.12-.05-.025-.15-.05-.3-.068-.032 0-.048-.026-.048-.08s.018-.08.053-.08c.092 0 .213.005.363.017.16.012.293.018.397.018.105 0 .222-.007.35-.02.108-.01.2-.016.276-.016.027 0 .04.026.04.08s-.015.08-.046.08c-.188.023-.334.062-.44.115-.108.053-.237.15-.387.294l-1.337 1.27 1.658 1.687c.115.12.23.207.342.26.112.054.28.094.504.12.037.004.054.03.054.08zM137.77 94.448c0 .597-.18 1.07-.532 1.424-.354.353-.834.53-1.438.53-.268 0-.587-.05-.96-.146-.34-.09-.616-.135-.833-.135-.018-.51-.055-1.02-.107-1.53 0-.047.045-.07.135-.07.063 0 .102.023.117.07.162.56.37.952.62 1.18.253.23.607.343 1.064.343.362 0 .644-.105.843-.315.198-.21.298-.504.298-.882 0-.243-.087-.47-.26-.678-.175-.208-.546-.478-1.112-.808-.65-.375-1.077-.692-1.278-.954-.2-.26-.302-.55-.302-.868 0-.49.182-.902.543-1.24.36-.337.82-.506 1.376-.506.21 0 .452.028.726.086.255.05.476.076.662.076.036.528.084.993.144 1.395 0 .048-.038.07-.116.07-.084 0-.13-.022-.14-.07-.1-.45-.25-.774-.45-.973-.202-.2-.48-.297-.836-.297-.338 0-.606.1-.805.297-.198.198-.298.465-.298.8 0 .215.083.418.25.61.167.194.53.453 1.087.777.657.384 1.09.705 1.294.963.205.258.305.542.305.85z"/></g><circle fill="none" stroke="#FE0000" stroke-width=".5" cx="115" cy="110.132" r="34.014"/><path fill="#CB0101" stroke="#FE0000" stroke-width=".5" d="M114.47 99.697c-5.617 0-10.17 4.554-10.17 10.17 0 5.618 4.554 10.172 10.17 10.172 5.618 0 10.172-4.555 10.172-10.172 0-5.618-4.554-10.17-10.17-10.17zm.002 13.14c-1.64 0-2.968-1.33-2.968-2.97 0-1.638 1.33-2.967 2.968-2.967s2.968 1.33 2.968 2.968c0 1.64-1.33 2.968-2.968 2.968z"/><path fill="#333" d="M276.63 37.71c-19.274-19.274-44.9-29.89-72.157-29.89-27.258 0-52.884 10.616-72.158 29.89-39.788 39.787-39.788 104.526 0 144.315 19.274 19.274 44.9 29.89 72.158 29.89 27.256 0 52.883-10.615 72.157-29.89 19.245-19.244 29.845-44.87 29.845-72.158 0-27.288-10.6-52.914-29.845-72.158zm-72.157 75.126c-1.64 0-2.968-1.328-2.968-2.968s1.33-2.968 2.968-2.968c1.64 0 2.97 1.33 2.97 2.968-.002 1.64-1.33 2.968-2.97 2.968z"/><path d="M204.473 9.82c26.723 0 51.846 10.408 70.743 29.304 39.01 39.008 39.01 102.478 0 141.487-18.897 18.897-44.02 29.304-70.743 29.304-26.725 0-51.848-10.406-70.744-29.303-39.01-39.01-39.01-102.478 0-141.485C152.624 20.23 177.747 9.82 204.472 9.82m0-4c-27.79 0-53.92 10.824-73.572 30.476-40.566 40.566-40.566 106.575 0 147.144 19.652 19.65 45.78 30.475 73.573 30.475 27.79 0 53.92-10.822 73.57-30.475 19.624-19.623 30.43-45.752 30.43-73.572 0-27.822-10.806-53.95-30.43-73.572-19.652-19.652-45.78-30.475-73.57-30.475z"/><radialGradient id="e" cx="953.862" cy="311.597" r="98.153" gradientTransform="matrix(.707 .707 .707 -.707 -605.102 -430.1)" gradientUnits="userSpaceOnUse"><stop offset=".55"/><stop offset="1" stop-opacity="0"/></radialGradient><path fill="url(#e)" d="M275.71 39.158C236.66.105 173.343.105 134.29 39.158l141.42 141.42c39.054-39.053 39.054-102.368 0-141.42z"/><radialGradient id="f" cx="953.863" cy="137.321" r="98.153" gradientTransform="matrix(.707 .707 -.707 .707 -458.199 -577.002)" gradientUnits="userSpaceOnUse"><stop offset=".55"/><stop offset="1" stop-opacity="0"/></radialGradient><path fill="url(#f)" d="M134.288 180.58c-39.052-39.053-39.05-102.37.002-141.422l141.42 141.42c-39.052 39.054-102.368 39.054-141.422.002z"/><circle fill="none" stroke="#000" stroke-width=".5" cx="205" cy="110.132" r="88.918"/><circle fill="none" stroke="#000" stroke-width=".5" cx="205" cy="110.132" r="80.229"/><circle fill="none" stroke="#000" stroke-width=".5" cx="204.999" cy="110.132" r="65.844"/><circle fill="none" stroke="#000" stroke-width=".5" cx="205" cy="110.132" r="55.24"/><path d="M205 62.808c-26.137 0-47.324 21.188-47.324 47.324 0 26.137 21.188 47.324 47.324 47.324s47.324-21.188 47.324-47.324S231.137 62.808 205 62.808zm-.527 50.028c-1.64 0-2.968-1.328-2.968-2.968s1.33-2.968 2.968-2.968c1.64 0 2.97 1.33 2.97 2.968-.002 1.64-1.33 2.968-2.97 2.968z"/><linearGradient id="g" gradientUnits="userSpaceOnUse" x1="236.909" y1="-140.846" x2="285.01" y2="-92.744" gradientTransform="matrix(1 0 0 -1 -55.96 -6.66)"><stop offset="0" stop-color="#231F20" stop-opacity="0"/><stop offset=".5" stop-color="#FFF" stop-opacity=".25"/><stop offset="1" stop-color="#231F20" stop-opacity="0"/></linearGradient><path fill="url(#g)" d="M162.48 19.515c-9.493 4.462-18.3 10.45-26.12 17.836l-4.143 4.145c-7.47 7.916-13.404 16.762-17.798 26.155l133.095 133.102c9.49-4.46 18.3-10.445 26.117-17.83l4.158-4.156c7.468-7.914 13.396-16.758 17.79-26.146L162.48 19.515zm41.993 93.32c-1.64 0-2.968-1.327-2.968-2.967 0-1.64 1.33-2.968 2.968-2.968 1.64 0 2.97 1.33 2.97 2.968-.002 1.64-1.33 2.968-2.97 2.968z"/><radialGradient id="h" cx="205" cy="110.132" r="37.793" gradientUnits="userSpaceOnUse"><stop offset="0" stop-color="#29ABE2"/><stop offset="1" stop-color="#0071BC"/></radialGradient><path fill="url(#h)" stroke="#000" stroke-width=".5" d="M205 72.34c-20.873 0-37.793 16.92-37.793 37.792s16.92 37.793 37.793 37.793 37.793-16.92 37.793-37.793S225.873 72.34 205 72.34zm-.527 40.496c-1.64 0-2.968-1.328-2.968-2.968s1.33-2.968 2.968-2.968c1.64 0 2.97 1.33 2.97 2.968-.002 1.64-1.33 2.968-2.97 2.968z"/><g fill="#FFF"><path d="M218.506 108.272c-.473-.006-.832.13-1.078.404-.084.088-.15.132-.2.132-.03 0-.058-.014-.08-.042-.02-.028-.032-.06-.032-.098 0-.074.078-.164.236-.27.322-.217.756-.325 1.3-.325.41 0 .75.076 1.02.23.147.08.263.19.343.325.08.136.12.286.12.45 0 .275-.11.493-.332.652-.204.148-.46.24-.762.275-.16.018-.262.03-.305.04l.483.068c.363.045.647.16.853.35.178.16.266.363.266.61 0 .24-.084.456-.252.65-.324.374-.858.562-1.604.562-.568 0-1.02-.112-1.354-.337-.222-.146-.33-.284-.33-.413 0-.033.01-.06.035-.083s.055-.034.088-.034c.043 0 .075.012.098.032.02.02.057.073.104.157.065.12.18.22.343.293.28.13.584.193.914.193l.132-.003v-1.954h-.443c-.098 0-.158-.005-.183-.016-.024-.01-.036-.038-.036-.08 0-.048.012-.077.036-.09.023-.01.087-.017.187-.017h.44l-.004-1.66zM222.385 108.272c-.473-.006-.832.13-1.078.404-.084.088-.15.132-.2.132-.03 0-.058-.014-.08-.042-.02-.028-.032-.06-.032-.098 0-.074.08-.164.236-.27.323-.217.757-.325 1.303-.325.407 0 .747.076 1.017.23.148.08.264.19.344.325.08.136.12.286.12.45 0 .275-.11.493-.33.652-.206.148-.46.24-.764.275-.16.018-.262.03-.305.04l.483.068c.362.045.646.16.853.35.177.16.265.363.265.61 0 .24-.084.456-.252.65-.323.374-.858.562-1.604.562-.57 0-1.022-.112-1.355-.337-.22-.146-.33-.284-.33-.413 0-.033.01-.06.035-.083s.054-.034.087-.034c.043 0 .075.012.098.032.02.02.057.073.104.157.064.12.18.22.342.293.28.13.584.193.914.193l.133-.003v-1.954h-.444c-.098 0-.158-.005-.182-.016-.025-.01-.037-.038-.037-.08 0-.048.012-.077.037-.09.022-.01.086-.017.186-.017h.44v-1.662h-.005zM225.956 108.143l-.013.836.013 1.146v.048h-.845v-.048l.013-1.165.002-.43v-.062l-.03.01-.21.065c-.022.008-.04.012-.057.012-.03 0-.044-.017-.044-.05 0-.024.008-.04.022-.05.016-.01.06-.022.133-.04l.366-.096.14-.038.51-.14zM227.71 107.702c.036-.002.067.008.095.03.024.023.038.05.038.078 0 .02-.022.08-.065.174-.045.094-.196.417-.46.968l-1.18 2.496-.323.68c-.06.127-.098.21-.11.246-.052.125-.108.188-.18.188-.03 0-.057-.012-.08-.032-.022-.02-.034-.046-.034-.073 0-.03.024-.092.07-.188l.114-.245.924-1.938.576-1.222.27-.565c.148-.322.234-.502.256-.54.02-.036.05-.056.09-.058zM228.016 110.223c-.236-.003-.416.064-.54.202-.042.044-.075.066-.1.066-.017 0-.028-.006-.04-.02-.01-.014-.018-.03-.018-.05 0-.036.04-.08.12-.134.16-.108.378-.163.648-.163.204 0 .374.038.51.114.073.04.13.095.17.163.04.068.062.143.062.225 0 .14-.057.247-.166.327-.102.073-.23.12-.38.138-.08.01-.132.016-.153.02l.24.034c.183.022.325.082.427.174.088.08.133.183.133.307 0 .12-.043.23-.127.324-.162.187-.43.28-.803.28-.283 0-.51-.057-.676-.168-.11-.074-.166-.143-.166-.207 0-.018.006-.03.02-.043.012-.01.025-.017.043-.017.022 0 .037.005.048.017.012.01.028.037.053.078.034.062.093.11.174.146.14.064.292.097.457.097h.066v-.978h-.222c-.05 0-.08-.002-.092-.008s-.02-.02-.02-.04c0-.024.007-.04.02-.046s.044-.007.093-.007h.22v-.83zM231.21 111.843c.095.064.194.12.304.165.108.045.226.08.35.106.03.006.046.02.046.044 0 .03-.02.048-.066.048-.103 0-.247-.045-.432-.136-.154-.074-.33-.19-.53-.348v.06l.002.25v.14h-.892v-.064l.002-.48.005-.57-.004-.885h.59c.263 0 .46.007.597.022.135.015.248.042.344.082.154.064.275.17.365.32.084.136.125.278.125.43 0 .16-.047.31-.14.452-.15.228-.373.35-.667.363zm-.14-.09h.07c.2 0 .37-.056.508-.168.088-.07.156-.158.203-.265.044-.096.066-.194.066-.295 0-.172-.056-.324-.167-.46-.086-.103-.192-.176-.32-.22-.128-.042-.308-.065-.538-.068l-.015.98v.267l.002.068c.06.058.124.11.19.16zM233.176 111.814V112.173h-.893l.002-.09.007-1.03-.006-.487v-.333l-.003-.06h.67c.27 0 .48.013.62.036.143.022.26.064.356.125.128.08.228.194.298.338.054.11.08.226.08.347 0 .13-.03.256-.09.375-.074.144-.176.252-.31.33-.132.076-.284.114-.458.114-.06 0-.155-.008-.274-.026zm0-1.54v.098l-.005.98.004.363c.077.02.178.03.3.03.11 0 .216-.02.314-.064.1-.044.183-.105.25-.186.116-.136.176-.293.176-.474 0-.17-.06-.326-.174-.463-.082-.1-.188-.17-.317-.216-.13-.044-.297-.066-.5-.066h-.046zM236.6 110.106l.318 1.09.146.483.13.437.018.056h-.892l-.28-1.035-.604.91-.62-.865c-.06.21-.126.47-.195.776-.023.116-.043.186-.055.207s-.033.033-.067.033c-.043 0-.063-.016-.063-.044 0-.01.014-.058.04-.148l.09-.312.16-.54.31-1.052.802 1.163.763-1.16z"/></g><g fill="#FFF"><path d="M185.057 112.945c.073-.073.186-.11.336-.11.162 0 .284.043.367.126.073.074.11.16.11.26h-.18c0-.064-.022-.114-.064-.157-.047-.047-.12-.07-.22-.07-.108 0-.184.022-.227.064-.036.035-.056.077-.056.125 0 .047.012.08.03.102.026.025.073.052.142.078.12.052.256.11.406.18.042.016.08.042.117.078.057.058.085.125.085.203 0 .104-.036.19-.11.266-.077.077-.205.116-.382.116-.172 0-.305-.047-.398-.14-.066-.068-.102-.17-.102-.298h.18c0 .094.02.16.063.203.058.058.146.087.266.087.11 0 .19-.027.242-.078.042-.044.063-.085.063-.126 0-.047-.017-.086-.047-.117-.026-.026-.067-.053-.125-.078-.053-.027-.12-.06-.203-.095-.094-.043-.17-.075-.228-.103-.042-.017-.078-.04-.108-.07-.047-.046-.07-.108-.07-.187 0-.1.036-.185.11-.26zM186.057 112.852h1.07V113h-.445v1.188h-.18V113h-.445v-.148zM187.314 112.852h.858V113h-.68v.414h.633v.148h-.633v.477h.72v.147h-.898v-1.335zM188.48 112.844h.655c.104 0 .19.034.258.102.068.068.103.162.103.28 0 .122-.034.216-.103.282-.035.036-.088.06-.156.07l.306.602h-.194l-.282-.578h-.406v.578h-.18v-1.336h-.003zm.178.148v.46h.46c.053 0 .098-.02.134-.054.036-.037.055-.094.055-.172 0-.074-.02-.13-.063-.172-.042-.043-.092-.063-.148-.063l-.438.002zM189.697 112.852h.86V113h-.682v.414h.633v.148h-.633v.477h.72v.147h-.898v-1.335zM191.002 113c.11-.11.242-.164.398-.164s.29.055.397.164c.125.125.188.297.188.516s-.063.392-.188.517c-.108.108-.24.163-.397.163s-.29-.055-.398-.163c-.125-.125-.188-.298-.188-.517s.063-.39.188-.516zm.133.102c-.09.09-.133.228-.133.414 0 .188.044.325.133.414.078.078.167.117.266.117.1 0 .19-.04.268-.117.09-.09.133-.227.133-.414 0-.187-.043-.324-.132-.414-.078-.078-.167-.117-.267-.117-.098 0-.187.038-.265.117z"/></g><g fill="#FFF"><path d="M174.08 111.115c.03 0 .066.023.11.072.132.145.294.26.482.348.19.088.384.132.568.132.204 0 .31-.063.31-.188 0-.08-.033-.17-.105-.27s-.245-.298-.52-.592c-.346-.373-.573-.65-.69-.83-.15-.237-.228-.464-.228-.68 0-.324.146-.59.437-.796.285-.203.636-.304 1.052-.304.292 0 .56.06.803.177.092.046.17.1.235.16.067.06.1.11.1.15 0 .02-.01.037-.026.054-.022.016-.04.024-.06.024-.03 0-.072-.027-.132-.082-.097-.09-.222-.165-.376-.224-.155-.06-.305-.09-.447-.09-.09 0-.16.02-.216.058-.06.038-.085.087-.085.147 0 .072.035.16.104.265.065.104.185.243.35.416.52.553.836.925.952 1.118.12.203.183.4.183.587 0 .16-.043.312-.13.456-.086.144-.206.26-.36.352-.292.176-.646.262-1.07.262-.39 0-.73-.1-1.023-.3-.206-.144-.312-.253-.312-.333 0-.02.012-.043.027-.063.016-.02.038-.03.062-.03zM178.716 108.838v.077l-.006.413-.005.64-.008.976.01.548.006.24h-1.36l.016-.977.007-.86-.006-.454-.01-.502.005-.1h1.35zm-.687-.926c.465 0 .698.122.698.365 0 .118-.063.21-.187.277-.122.066-.295.1-.52.1-.44 0-.664-.126-.664-.377.005-.24.23-.36.673-.365zM182.773 108.116l-.004 1.295-.005.917.008 1.284v.12h-1.354v-.345c-.147.146-.286.25-.42.31-.14.063-.29.095-.46.095-.336 0-.636-.124-.897-.372-.324-.307-.482-.69-.482-1.162 0-.456.155-.825.47-1.11.275-.25.592-.378.938-.378.15 0 .302.03.444.087.146.058.28.146.42.262l-.015-1h1.356zm-1.343 1.218c-.138-.125-.263-.22-.373-.28-.107-.063-.207-.094-.29-.094-.067 0-.114.024-.14.073-.02.048-.034.14-.034.274l.003.117v1.78c.002.144.008.23.02.267.022.076.07.115.15.115.09 0 .186-.033.28-.1.1-.067.23-.18.383-.347v-1.804zM184.445 110.37v.82c0 .157.01.26.03.3.036.082.122.123.26.123.206 0 .407-.057.606-.168.2-.112.374-.268.522-.465.05-.064.082-.106.104-.125.02-.018.045-.026.07-.026.027 0 .054.01.07.03.02.023.03.05.03.085 0 .074-.06.175-.18.3-.153.16-.347.29-.578.392-.23.1-.454.15-.674.15-.376 0-.708-.126-.995-.378-.17-.148-.298-.333-.388-.55-.08-.19-.12-.38-.12-.572 0-.184.036-.368.105-.552.07-.185.168-.344.29-.478.147-.157.314-.28.51-.366.192-.084.397-.127.605-.127.327 0 .622.096.89.29.412.3.617.734.613 1.305h-.615l-.795.002-.36.007zm.678-.176v-.77c-.004-.167-.007-.266-.012-.298 0-.033-.015-.063-.035-.09-.05-.07-.15-.105-.302-.105-.155 0-.252.04-.29.12-.025.048-.038.172-.038.373v.77l.322.012.356-.01zM189.87 107.898l2.116 3.833h-1.836l-.256-.483h-.89l-.778-.004-.135-.002-.174.323c-.05.1-.086.158-.104.182-.02.025-.045.035-.076.035-.063 0-.09-.025-.09-.08 0-.02.018-.064.05-.127l.362-.618 1.604-2.7.207-.357zm-.824 1.74l-.463.778-.37.64.79.01.792-.01-.75-1.418z"/></g><g fill="#FFF"><path d="M198.27 133.173l-.008-.15c-.168.07-.29.11-.37.11-.08.004-.135-.03-.167-.104-.026-.06-.03-.126-.013-.203.02-.097.045-.187.076-.27.032-.087.067-.153.104-.202.035-.037.09-.074.166-.11.184-.084.395-.17.637-.26.055-.02.1-.038.136-.054s.076-.03.12-.047c.097-.045.16-.07.187-.08.028-.01.063-.015.107-.018.03-.002.058 0 .083.01.055.02.103.074.14.156.07.154.064.277-.02.367-.05.057-.097.1-.145.132-.046.03-.13.082-.258.154l.13.904c.114-.053.204-.1.272-.138l.2-.1c.108-.05.19-.073.245-.07.056.002.097.03.124.09.02.044.028.118.025.224-.005.104-.02.192-.046.267-.014.035-.04.066-.078.096-.038.028-.11.066-.213.114l-.03.014-.057.026c-.1.046-.21.103-.33.17.038.256.057.456.056.602 0 .144-.023.275-.066.396-.028.084-.066.155-.115.217-.048.06-.1.103-.154.127-.09.043-.18.056-.27.03-.09-.02-.15-.062-.183-.13-.04-.083-.088-.374-.15-.874-.06-.5-.106-.964-.133-1.395zM201.324 132.398c-.018-.194-.05-.393-.096-.594-.045-.2-.09-.35-.137-.447-.012-.025-.024-.035-.038-.028-.025.01-.04.082-.052.215-.01.135-.01.264.002.393.026.278.054.51.08.69s.06.328.092.442c.032.115.074.23.126.343.045.097.09.16.13.194.042.035.09.04.136.02.08-.038.154-.116.222-.234.067-.117.114-.254.142-.408.02-.116.05-.184.086-.2.047-.02.086.005.12.077.073.158.097.334.067.53-.03.197-.1.378-.21.544-.113.168-.25.29-.412.364-.198.093-.39.104-.574.038s-.322-.2-.417-.402c-.078-.166-.133-.375-.166-.63-.033-.256-.04-.523-.027-.805.015-.28.05-.544.104-.793.06-.248.133-.454.227-.616.057-.103.135-.18.24-.228.08-.036.163-.045.252-.026.087.02.17.063.246.138.077.072.14.16.19.27.107.23.168.48.18.742.014.266-.023.516-.11.754-.04.113-.085.21-.136.285-.05.078-.104.13-.154.153-.053.024-.086.017-.104-.022-.01-.022-.013-.073-.002-.153.015-.104.017-.256.01-.452l-.004-.06-.012-.092zM203.456 132.667c.06.08.137.1.235.054.11-.052.226-.184.342-.395.067-.123.12-.193.155-.21.043-.02.092-.027.14-.02.05.004.08.02.093.045.012.026.007.07-.018.135-.04.115-.096.232-.16.354-.07.122-.14.23-.21.322-.07.094-.146.177-.228.25-.082.07-.158.126-.232.16-.184.085-.356.103-.518.048-.158-.055-.28-.168-.36-.344-.064-.135-.105-.3-.126-.496-.02-.195-.016-.39.016-.584.035-.228.11-.438.227-.63.147-.237.315-.4.507-.49.14-.064.27-.07.388-.02.12.05.216.15.287.307.057.12.084.26.08.418-.003.16-.036.327-.103.505-.054.146-.117.27-.187.37-.07.103-.142.17-.216.204-.032.01-.07.018-.11.017zm-.036-.067c.046-.078.076-.146.09-.21.034-.133.043-.27.03-.415-.006-.097-.022-.2-.05-.31-.027-.108-.06-.207-.102-.294-.04-.08-.074-.113-.11-.097-.046.02-.067.158-.068.412 0 .152.013.3.034.44s.055.257.096.347c.014.033.04.074.08.128zM205.615 132.527c.084-.045.145-.125.178-.237.034-.113.03-.218-.016-.312-.03-.065-.074-.107-.137-.125-.065-.024-.19-.02-.37.008-.267.042-.454.038-.563-.015-.1-.035-.17-.102-.213-.195-.08-.17-.098-.368-.053-.596.044-.227.138-.438.278-.64.14-.194.31-.34.504-.43.094-.046.192-.064.297-.06.103.006.194.034.277.083.082.052.146.12.185.205.04.084.054.185.043.298-.012.114-.045.22-.098.318-.053.097-.113.162-.188.195-.04.02-.082.027-.12.023s-.063-.016-.072-.037c-.01-.022-.018-.054-.023-.1-.026-.142-.063-.26-.106-.354-.044-.093-.113-.166-.207-.225-.05.085-.078.147-.086.19-.025.09-.035.184-.027.28.006.1.024.187.06.262.024.054.06.09.097.11.04.02.092.028.157.024s.162-.018.285-.045c.208-.04.36-.058.458-.05.022.002.06.012.11.025.084.034.148.1.193.195.048.102.064.22.05.354-.015.133-.063.286-.144.46-.087.185-.188.337-.304.453-.115.117-.26.216-.43.293-.164.077-.308.104-.432.084s-.213-.09-.266-.2c-.037-.08-.043-.175-.02-.285s.07-.214.14-.31c.068-.095.145-.163.233-.204.066-.03.107-.032.12-.002.008.015.01.043.006.086-.01.13.006.238.047.326.032.07.082.117.155.15zM207.174 128.402l-.017-.036c-.025-.054-.046-.078-.062-.07-.02.01-.035.052-.05.13-.012.077-.02.16-.017.247.005.224.023.45.06.687.033.234.08.463.144.684.024.086.053.178.082.275l.016.004c.077-.222.137-.38.18-.478s.104-.214.18-.35c.1-.167.194-.27.29-.316.06-.027.116-.027.17 0 .054.028.098.08.134.157.02.045.042.11.063.203.05.188.104.342.16.462.023.055.057.11.094.166.03.044.1.128.208.25.084.096.13.147.135.16.01.02-.004.056-.04.107-.106.176-.228.295-.357.355-.108.05-.22.04-.335-.034-.115-.073-.213-.194-.29-.362-.032-.066-.064-.15-.094-.252l-.016-.004c-.11.314-.182.525-.218.633-.146.378-.287.6-.43.665-.063.03-.138.012-.22-.055-.084-.066-.156-.17-.222-.31-.14-.298-.224-.722-.256-1.27-.01-.214-.012-.423-.006-.626.005-.202.02-.382.038-.536.016-.11.04-.21.068-.3.03-.092.066-.17.107-.24.043-.07.09-.133.146-.184.054-.05.11-.09.174-.12.158-.072.31-.084.455-.033.146.052.254.153.324.306.048.105.07.232.065.38-.005.148-.036.303-.096.46-.04.102-.09.197-.152.29-.063.095-.12.15-.168.175-.015.008-.03.01-.047.004-.017-.004-.03-.015-.036-.03-.01-.023-.014-.08-.01-.172.007-.102.003-.22-.008-.36-.015-.135-.032-.262-.06-.378-.026-.116-.053-.21-.086-.282zM210.4 129.44l-.04.073c0 .008-.005.016-.013.027-.006.014-.013.027-.02.046-.163.317-.3.552-.406.7-.105.148-.214.25-.32.3-.12.056-.236.058-.35.004-.114-.054-.206-.15-.273-.3-.084-.182-.12-.393-.108-.634.012-.242.062-.483.156-.724.093-.242.216-.457.37-.648.155-.19.327-.33.515-.42.187-.085.34-.12.467-.1.126.018.22.09.278.217.05.106.068.26.058.454.062-.023.115-.025.158-.006.045.02.083.065.115.137.054.115.104.285.154.515.048.228.078.444.093.65.02.258-.01.503-.088.737-.06.178-.156.35-.287.518-.13.17-.26.28-.383.34-.104.048-.215.05-.336.005-.12-.046-.202-.12-.25-.222-.034-.07-.05-.15-.05-.242 0-.09.018-.176.05-.254.06-.172.177-.36.352-.568.03-.04.06-.064.08-.074.01-.006.02-.006.03-.002.01.004.02.012.02.02.005.01.006.035.002.072-.01.097-.003.21.02.344.02.134.05.242.09.328.046.1.085.144.116.13.017-.01.027-.036.035-.083.008-.05.01-.1.008-.154-.022-.378-.08-.71-.172-.998-.013-.042-.036-.105-.07-.187zm-.106-.52l.004.008-.013-.005c-.008.01-.02.015-.033.02-.027.018-.063.034-.104.056-.075.034-.12.037-.133.01-.008-.015-.006-.036.004-.065.024-.09.034-.196.027-.318s-.028-.227-.063-.313c-.01-.02-.017-.04-.02-.058l-.005-.02-.005-.01c-.01-.022-.03-.024-.058-.013-.06.027-.116.13-.178.31-.04.116-.067.243-.08.384-.02.14-.02.273-.005.4.016.125.04.23.082.318.04.086.08.118.123.1.042-.02.114-.14.217-.354.047-.1.125-.25.237-.45zM212.135 128.55l.012.05c.013.024.025.063.043.112.026.074.047.138.058.188.01.05.015.095.008.135-.008.04-.02.085-.04.136-.063.148-.147.25-.256.303-.09.04-.17.04-.24-.008-.074-.045-.144-.14-.21-.283-.055-.115-.106-.265-.16-.445-.054-.18-.093-.348-.118-.498l-.01-.066c-.004-.01-.008-.03-.012-.062-.04-.227-.06-.398-.06-.516 0-.12.022-.223.06-.313.035-.072.09-.125.162-.16.104-.048.197-.016.277.104.013-.027.022-.06.03-.09.02-.072.035-.12.053-.15.016-.027.04-.05.068-.063.128-.06.25.036.368.287.063.14.11.278.14.42.03.144.044.265.035.366-.007.104-.032.164-.077.186-.048.02-.115-.06-.2-.244-.046-.098-.087-.17-.124-.22s-.074-.087-.112-.106c-.006.104.055.306.178.607l.127.33zM212.732 126.413c-.142.062-.25.01-.325-.15-.037-.083-.062-.188-.07-.314-.01-.126 0-.228.028-.304.014-.04.03-.07.053-.098.02-.023.055-.047.098-.066.072-.034.135-.04.188-.02.052.02.097.07.136.154.05.105.078.213.085.322.008.11-.006.21-.037.297-.033.086-.082.145-.146.174l-.01.003zm.772 2.35c-.068.025-.143.022-.225-.008-.082-.034-.15-.08-.206-.138-.055-.06-.107-.14-.158-.25-.113-.243-.195-.54-.248-.89-.052-.35-.053-.618-.002-.81.02-.078.068-.136.15-.174.086-.04.172-.033.262.02.09.054.162.145.222.272.087.188.163.42.228.694.063.276.107.573.138.89.015.128 0 .225-.038.29-.025.04-.066.073-.118.097l-.006.005zM214.706 126.753l.062-.217c.064-.213.12-.373.164-.484.045-.108.092-.194.14-.257.047-.063.103-.107.168-.138.104-.05.19-.056.26-.02.07.035.138.123.2.263.027.058.063.145.1.263.055.157.11.3.172.433.068.147.133.264.19.348.034.053.077.102.123.146.04.047.063.08.073.1.01.022.01.045-.002.066-.026.063-.07.124-.133.188-.062.064-.117.11-.17.134-.084.04-.174.047-.27.02-.096-.024-.186-.08-.27-.163-.086-.086-.16-.19-.22-.32-.04-.084-.077-.19-.113-.314l-.014-.004-.074.24c-.02.06-.04.114-.056.168-.077.267-.138.502-.183.707-.017.08-.033.15-.05.213-.028.08-.077.136-.146.17-.095.043-.188.044-.28 0-.09-.043-.164-.12-.216-.232-.032-.068-.062-.157-.094-.266-.03-.106-.06-.226-.084-.353-.026-.126-.05-.26-.067-.397-.02-.14-.03-.27-.04-.4-.016-.215 0-.395.052-.54.036-.1.1-.17.194-.214.153-.07.276-.01.37.19.068.145.136.37.2.67l.016.003zM217.145 124.57l-.02-.1c-.05-.225-.084-.406-.106-.55-.022-.14-.032-.264-.034-.368s.01-.185.03-.24c.03-.096.126-.182.286-.256.07-.033.127-.055.164-.063.038-.008.072-.008.102 0 .03.254.06.44.084.564s.064.287.12.494c.098.337.204.63.32.884.078.166.173.332.283.498.11.168.25.346.413.537-.053.09-.105.17-.16.243-.053.07-.107.133-.16.186-.055.052-.105.09-.154.112-.086.04-.164.024-.24-.043-.062-.057-.106-.104-.137-.14-.027-.04-.098-.148-.21-.33-.1.298-.214.55-.34.752s-.24.33-.35.38c-.123.058-.248.056-.374-.01-.126-.063-.227-.176-.3-.335-.067-.143-.11-.316-.132-.52-.02-.205-.014-.412.018-.627.02-.14.052-.267.09-.375.04-.108.093-.218.158-.324.118-.19.235-.313.35-.367.056-.023.155-.025.3-.003zm.42 1.084l-.062-.13c-.044.104-.085.163-.122.18-.02.01-.033.005-.044-.017-.004-.01-.01-.028-.013-.062-.012-.104-.035-.194-.073-.278-.058-.12-.14-.23-.25-.336-.054-.056-.097-.075-.13-.06-.016.007-.025.02-.028.04-.022.08-.032.18-.028.302.004.124.02.252.047.387.028.132.064.245.106.34.082.175.176.237.282.187.053-.024.108-.09.17-.194.06-.102.11-.222.146-.36zM219.688 125.1c.06.08.138.098.235.05.11-.05.224-.183.34-.395.07-.124.12-.192.156-.21.043-.022.09-.027.14-.022.05.006.08.02.09.045.015.027.01.072-.015.135-.042.115-.097.232-.162.355-.068.12-.137.23-.207.32-.072.096-.147.18-.23.25-.08.073-.157.127-.23.16-.184.087-.355.104-.517.05-.16-.055-.28-.168-.363-.344-.063-.136-.105-.3-.125-.496-.02-.196-.016-.392.016-.585.035-.227.11-.438.228-.63.146-.237.313-.4.505-.49.14-.063.27-.07.39-.02s.215.15.287.306c.057.12.082.258.08.417-.003.16-.037.327-.104.504-.053.147-.116.272-.188.373-.07.1-.142.168-.214.202-.032.016-.07.025-.112.025zm-.036-.07c.046-.078.074-.147.09-.21.033-.133.043-.27.027-.416-.005-.096-.022-.198-.048-.31-.027-.108-.063-.206-.104-.294-.037-.08-.073-.113-.107-.098-.046.02-.07.158-.07.413 0 .15.014.3.036.44.02.142.053.256.096.346.015.036.04.08.08.13zM221.58 124.146l.01.05c.014.024.025.062.043.11.027.075.047.14.06.19.01.05.012.094.006.134-.01.04-.022.085-.04.137-.064.147-.147.248-.257.3-.09.04-.17.04-.24-.007-.073-.045-.145-.14-.21-.285-.056-.114-.106-.264-.16-.442-.054-.183-.093-.35-.12-.5l-.008-.063c-.004-.01-.008-.03-.012-.063-.04-.226-.06-.397-.057-.517-.002-.116.018-.222.055-.31.038-.073.093-.126.165-.16.104-.05.197-.016.278.1.013-.024.022-.056.03-.09.02-.07.035-.118.052-.146s.04-.05.07-.063c.127-.06.25.038.366.288.064.14.11.276.143.42.03.143.04.265.034.365-.008.104-.033.163-.077.186-.05.02-.116-.06-.202-.244-.045-.1-.087-.17-.123-.222-.037-.05-.074-.086-.113-.104-.006.104.056.306.18.606l.127.33zM210.366 133.948l-.01-.18c-.044.025-.087.055-.13.085-.026.02-.065.04-.117.065-.073.034-.126.015-.16-.058-.015-.03-.02-.072-.022-.123 0-.05.006-.092.02-.127.027-.07.117-.16.268-.27.15-.107.336-.214.56-.316.17-.078.34-.13.517-.157s.338-.025.486.003c.15.027.28.08.392.154.112.074.195.173.252.295.063.13.092.266.09.403-.003.14-.033.272-.096.403-.04.088-.082.158-.126.215-.043.06-.112.127-.204.21.053.04.096.066.13.085.034.02.09.04.162.066.188.06.43.08.722.062.017 0 .032 0 .053-.002.03.135.05.238.055.307.003.068-.005.148-.023.24-.035.164-.117.275-.244.336-.07.033-.172.047-.3.043-.128-.004-.24-.024-.342-.065-.078-.034-.156-.077-.23-.124-.075-.05-.154-.104-.24-.17s-.16-.134-.23-.2c-.07-.064-.127-.128-.17-.184-.01-.01-.02-.024-.03-.05-.014-.028-.017-.057-.007-.083.01-.026.035-.06.075-.096.056-.055.1-.104.128-.155.03-.048.063-.118.1-.208.035-.117.05-.238.04-.365-.01-.13-.038-.248-.09-.358-.062-.133-.14-.22-.232-.266-.095-.045-.216-.05-.36-.02.088.52.165 1.014.23 1.48l.03.187c.048.302.075.527.083.68.008.155-.002.27-.03.345-.027.076-.085.164-.17.266-.087.104-.16.167-.222.196-.12.057-.213.016-.277-.12-.024-.056-.055-.16-.084-.312-.03-.153-.063-.354-.096-.607-.033-.252-.063-.502-.084-.748-.032-.244-.05-.498-.068-.762zM214.113 134.318c.058.08.136.1.234.053.11-.052.225-.183.34-.395.068-.123.12-.192.155-.21.044-.02.093-.026.142-.02.05.005.08.02.092.046s.007.072-.016.135c-.043.114-.097.232-.164.355-.066.12-.137.23-.207.322-.073.094-.148.176-.23.248s-.16.127-.23.16c-.186.086-.357.102-.52.05-.158-.056-.278-.17-.36-.345-.063-.135-.104-.3-.125-.494-.02-.196-.017-.392.014-.584.036-.228.112-.438.228-.633.144-.235.313-.397.505-.487.14-.064.268-.072.387-.02.12.05.216.15.287.306.057.12.084.26.08.417-.002.16-.037.327-.104.504-.053.146-.116.27-.188.373-.07.1-.14.168-.213.2-.03.016-.068.02-.11.02zm-.038-.068c.047-.077.077-.146.092-.21.033-.133.042-.27.026-.414-.004-.097-.02-.2-.047-.31-.027-.108-.062-.207-.103-.295-.038-.08-.073-.11-.106-.097-.05.02-.072.16-.072.413.002.15.014.3.035.44.02.14.054.258.096.348.014.032.04.074.08.126zM215.783 131.69c.115-.048.22-.057.314-.026.094.03.164.095.213.195.04.09.057.19.05.304-.01.113-.04.218-.09.313-.053.092-.116.157-.194.194-.045.022-.076.018-.092-.018-.006-.012-.008-.04-.01-.09.012-.123-.012-.248-.07-.375-.03-.063-.053-.092-.065-.086-.022.01-.04.052-.053.122s-.018.148-.01.233c.007.135.024.272.056.416.028.145.063.26.106.347.046.1.098.173.153.216.057.045.112.053.168.027.05-.023.105-.08.164-.174.06-.092.11-.194.147-.31.014-.054.03-.085.055-.098.035-.017.063-.004.08.035.086.183.092.38.02.593-.053.143-.128.273-.226.393-.1.116-.198.2-.3.247-.176.082-.348.095-.516.037-.168-.056-.29-.168-.37-.336s-.122-.36-.134-.582c-.014-.22.008-.442.06-.67.05-.228.132-.436.243-.623.08-.135.177-.23.29-.28l.01-.002zM217.748 130.665c.22-.104.342-.128.365-.076.027.06-.006.112-.104.163-.118.063-.213.147-.288.258-.074.11-.127.234-.158.377-.032.143-.04.29-.023.442.017.15.06.3.127.445.075.16.173.272.295.336.12.064.24.067.362.012.11-.054.184-.156.213-.312.03-.153.01-.308-.06-.46-.06-.126-.142-.23-.245-.316s-.224-.144-.357-.173c-.06-.013-.092-.025-.1-.042-.01-.02.007-.065.048-.137.046-.075.104-.15.174-.22.07-.072.133-.12.19-.147.065-.03.138-.043.213-.035.076.006.15.03.23.072.074.045.144.102.207.174s.117.154.16.248c.073.156.116.326.128.506.014.18-.008.34-.06.48-.067.177-.173.345-.312.5-.14.16-.288.274-.445.35-.152.07-.317.114-.494.133-.176.02-.33.005-.46-.04-.17-.064-.31-.204-.41-.42-.08-.173-.116-.363-.112-.572.005-.21.047-.42.125-.626.08-.206.188-.39.322-.553.136-.16.29-.283.468-.365zM220.134 131.44l.013.048c.012.025.023.063.04.113.028.075.048.14.06.19.01.05.013.096.007.136-.007.04-.02.085-.04.136-.063.147-.146.248-.256.3-.09.04-.17.04-.24-.007-.072-.045-.144-.14-.21-.283-.055-.115-.106-.264-.16-.444-.054-.18-.092-.35-.118-.5l-.01-.063c-.004-.01-.008-.03-.012-.063-.04-.227-.06-.398-.06-.516s.022-.223.06-.312c.036-.073.09-.127.162-.16.104-.05.197-.016.28.103l.03-.09c.02-.072.034-.12.05-.15s.04-.05.07-.062c.128-.06.25.037.366.287.063.14.11.277.143.42.027.143.04.265.032.365-.008.104-.033.164-.076.186-.05.02-.117-.06-.203-.243-.045-.1-.086-.17-.123-.222s-.073-.084-.112-.104c-.007.104.055.306.178.606l.128.33zM221.7 129.066l-.022-.1c-.048-.225-.082-.406-.104-.55s-.032-.265-.033-.368c0-.105.01-.186.03-.24.03-.097.125-.182.287-.257.07-.03.125-.053.164-.062.038-.008.07-.008.102.003.032.254.062.44.084.564.022.123.063.286.12.493.097.337.203.63.32.884.078.167.172.333.283.5.11.167.25.345.412.535-.054.093-.106.173-.16.245-.054.07-.106.133-.16.186-.055.053-.105.09-.154.11-.085.04-.164.027-.24-.04-.062-.056-.106-.104-.135-.14-.03-.04-.1-.147-.21-.33-.102.3-.215.55-.34.753s-.242.33-.352.38c-.122.057-.247.055-.373-.01s-.227-.178-.3-.336c-.068-.143-.11-.316-.132-.52-.02-.205-.015-.414.017-.627.02-.14.053-.267.092-.375.04-.11.092-.218.156-.324.118-.19.235-.314.352-.37.055-.022.155-.024.297-.002zm.42 1.084l-.06-.13c-.045.104-.086.16-.123.18-.02.01-.035.005-.045-.017-.004-.01-.01-.03-.013-.062-.012-.103-.035-.194-.074-.277-.057-.12-.14-.23-.25-.336-.054-.057-.097-.076-.13-.063-.016.01-.024.02-.028.04-.022.08-.03.18-.028.305.004.122.02.25.046.385.027.133.063.246.107.34.082.176.176.238.28.188.054-.024.11-.09.17-.194.062-.103.11-.223.147-.36zM223.33 128.092c-.14.06-.25.01-.326-.152-.037-.08-.06-.186-.07-.312-.01-.125 0-.228.028-.303.015-.04.03-.072.054-.097.02-.024.053-.047.098-.066.072-.034.136-.042.187-.02.053.02.1.07.14.154.048.104.075.213.083.323.008.108-.006.21-.04.295-.03.086-.08.146-.145.174l-.008.002zm.772 2.347c-.068.024-.144.022-.225-.007-.082-.035-.15-.08-.205-.14-.056-.056-.107-.14-.158-.25-.113-.243-.195-.54-.248-.887-.053-.35-.053-.618-.002-.81.02-.078.068-.138.15-.176.085-.04.172-.03.26.02.09.056.164.146.223.272.088.188.164.42.228.695s.108.573.14.89c.012.128 0 .225-.04.29-.026.04-.065.073-.116.1l-.008.002zM225.303 128.432l.06-.217c.067-.213.122-.374.167-.482.046-.11.09-.196.14-.258.046-.063.103-.107.167-.14.104-.048.19-.056.262-.02.066.036.134.124.197.264.027.057.062.145.103.262.052.157.106.303.168.434.07.146.134.264.19.348.036.052.078.102.125.146.04.047.063.08.072.1.01.02.01.045 0 .066-.028.062-.072.123-.134.188-.062.063-.117.108-.17.133-.083.04-.173.046-.27.02s-.185-.08-.27-.163c-.084-.084-.156-.19-.217-.318-.04-.086-.078-.19-.115-.314l-.012-.006c-.03.1-.057.18-.076.24-.02.06-.04.115-.055.168-.078.266-.14.5-.183.707-.017.08-.033.15-.05.212-.028.08-.078.137-.147.17-.094.043-.188.043-.28 0-.09-.043-.164-.12-.216-.232-.033-.07-.064-.157-.095-.266-.03-.107-.06-.227-.085-.354s-.05-.26-.066-.398c-.02-.138-.033-.27-.04-.402-.016-.213 0-.393.052-.54.035-.097.1-.167.193-.212.152-.07.276-.008.368.19.068.147.137.37.202.67l.013.004zM228.402 127.67l-.04.07c-.003.007-.007.017-.013.027-.01.014-.016.027-.024.047-.162.317-.297.552-.404.7-.107.148-.215.25-.322.298-.12.058-.236.06-.35.004-.114-.053-.204-.15-.27-.3-.087-.18-.124-.392-.11-.633s.064-.483.156-.724c.093-.242.217-.458.37-.65.155-.19.327-.33.515-.418.187-.086.342-.12.468-.102.125.02.22.09.275.218.05.105.07.258.06.453.063-.022.115-.024.158-.005.045.02.083.066.115.137.055.115.105.286.154.516.048.228.078.443.09.648.022.26-.007.504-.085.738-.06.178-.153.35-.287.518-.13.168-.258.28-.383.34-.104.05-.215.05-.334.004-.118-.045-.202-.12-.25-.222-.034-.07-.05-.15-.05-.24.002-.09.018-.177.05-.256.06-.17.18-.358.353-.567.03-.04.058-.063.08-.075.01-.004.02-.004.03 0 .01.005.018.012.02.02.005.012.006.034.002.073-.01.096-.004.21.018.344.02.132.05.242.09.327.047.1.086.144.117.128.018-.008.028-.035.035-.083.008-.047.01-.098.01-.15-.023-.378-.082-.712-.172-1l-.07-.186zm-.107-.524l.004.008-.015-.004c-.008.008-.018.014-.033.02-.025.018-.063.035-.104.055-.076.035-.12.04-.133.012-.007-.016-.007-.036.004-.065.024-.09.034-.196.027-.317-.008-.123-.028-.228-.063-.313-.01-.02-.018-.04-.02-.058l-.005-.018-.005-.012c-.01-.02-.028-.023-.057-.012-.058.026-.116.13-.18.31-.037.115-.064.242-.08.384-.015.14-.017.27-.002.398.016.127.04.232.08.32.04.086.083.12.126.1.04-.022.112-.14.216-.355.046-.103.124-.252.237-.454zM230.402 127.59c.084-.045.145-.124.18-.236.033-.115.027-.22-.016-.313-.03-.064-.076-.105-.137-.124-.067-.024-.192-.02-.372.008-.267.042-.453.037-.563-.015-.1-.037-.17-.105-.214-.197-.077-.17-.095-.368-.052-.596.045-.228.138-.438.278-.638.142-.197.31-.343.503-.435.095-.044.192-.063.296-.057s.196.033.278.084c.084.05.146.117.187.203.04.084.054.184.042.3-.012.112-.043.22-.097.317-.053.097-.114.162-.188.195-.04.02-.08.027-.118.02-.04 0-.064-.015-.073-.033-.01-.02-.02-.056-.024-.1-.025-.144-.063-.26-.105-.355s-.11-.168-.207-.226c-.048.084-.076.146-.084.186-.026.09-.035.186-.028.282.006.1.025.188.062.263.024.053.057.09.096.11s.093.028.157.024c.064-.006.162-.02.285-.046.21-.042.36-.06.46-.053.02.003.06.013.11.028.084.033.147.1.192.195.048.102.063.22.048.354-.014.133-.063.285-.145.46-.086.185-.187.335-.303.452-.115.116-.26.215-.428.294-.165.076-.31.104-.433.082s-.213-.088-.266-.2c-.037-.08-.043-.175-.02-.286.023-.11.07-.213.138-.31.068-.093.146-.16.234-.2.065-.032.106-.033.12-.004.008.015.01.044.006.087-.01.13.006.237.047.325.03.07.08.12.152.152z"/></g><g fill="#FFF"><path d="M191.793 89.84c0 .035-.01.067-.033.097-.02.03-.047.044-.074.044-.223.022-.402.094-.545.216-.14.122-.284.355-.435.7l-2.295 5.17c-.016.047-.06.07-.127.07-.055 0-.096-.023-.125-.07l-1.29-2.687-1.478 2.685c-.03.048-.072.072-.127.072-.066 0-.11-.024-.13-.072l-2.256-5.17c-.142-.323-.29-.548-.444-.677-.156-.128-.373-.207-.652-.237-.022 0-.046-.012-.066-.036-.02-.025-.032-.054-.032-.086 0-.083.024-.124.072-.124.2 0 .412.01.63.026.205.02.397.027.577.027.185 0 .4-.01.65-.027.26-.018.49-.026.69-.026.05 0 .073.04.073.124 0 .082-.017.123-.045.123-.2.017-.358.067-.476.155-.115.087-.174.202-.174.344 0 .07.023.16.072.27l1.84 4.218 1.08-2.01-.986-2.063c-.178-.37-.322-.61-.438-.717-.113-.107-.286-.173-.518-.197-.02 0-.04-.012-.062-.036-.02-.025-.028-.054-.028-.086 0-.083.02-.124.063-.124.202 0 .387.01.555.026.162.02.334.027.52.027.18 0 .368-.01.57-.027.205-.018.41-.026.61-.026.048 0 .072.04.072.124 0 .082-.016.123-.045.123-.4.028-.604.144-.604.346 0 .09.046.23.14.42l.65 1.324.65-1.21c.09-.173.134-.317.134-.436 0-.277-.2-.425-.604-.443-.035 0-.054-.04-.054-.122 0-.03.01-.058.027-.084.02-.027.035-.04.055-.04.145 0 .32.01.53.026.2.02.366.027.495.027.093 0 .23-.008.41-.022.228-.02.418-.03.57-.03.036 0 .055.034.055.104 0 .094-.033.14-.1.14-.234.025-.422.09-.564.195-.14.105-.318.346-.53.72l-.864 1.6 1.168 2.383 1.73-4.02c.06-.146.09-.282.09-.406 0-.296-.2-.452-.605-.47-.036 0-.056-.042-.056-.124 0-.083.027-.124.082-.124.146 0 .32.01.52.026.187.02.343.027.468.027.133 0 .285-.01.46-.027.18-.018.342-.026.485-.026.05 0 .073.035.073.105zM194.04 95.892c0 .055-.017.082-.048.082-.13 0-.286-.006-.467-.018-.17-.012-.316-.018-.436-.018s-.266.006-.44.018c-.18.012-.337.018-.47.018-.03 0-.047-.027-.047-.082 0-.05.016-.075.047-.08.236-.026.396-.07.48-.13s.13-.182.13-.363v-2.756c0-.137-.02-.232-.053-.288-.034-.056-.095-.1-.18-.132-.087-.032-.212-.058-.378-.077-.032 0-.05-.027-.05-.08 0-.055.018-.08.05-.08.132 0 .288.005.47.017.172.012.316.018.437.018.118 0 .265-.006.437-.018.18-.012.334-.018.466-.018.03 0 .047.026.047.08 0 .054-.017.08-.047.08-.164.02-.29.046-.375.078-.087.032-.146.075-.18.13s-.05.15-.05.29v2.755c0 .134.02.228.05.284.034.056.093.1.178.132.086.032.21.058.372.077.036.003.054.03.054.08zM198.994 95.892c0 .055-.016.082-.047.082-.13 0-.287-.006-.47-.018-.173-.012-.318-.018-.437-.018-.115 0-.274.006-.478.018-.213.012-.383.018-.515.018-.03 0-.047-.027-.047-.082 0-.05.015-.075.04-.08.264-.03.397-.093.397-.188 0-.055-.043-.125-.13-.21l-1.16-1.183c-.064-.062-.116-.103-.163-.122-.045-.02-.107-.03-.188-.03v1.24c0 .136.018.23.05.286.035.056.097.1.183.132s.21.06.372.077c.033.004.05.03.05.08 0 .054-.017.08-.048.08-.13 0-.285-.005-.467-.017-.174-.012-.32-.018-.44-.018-.117 0-.263.006-.435.018-.182.012-.338.018-.47.018-.03 0-.046-.027-.046-.082 0-.05.016-.075.047-.08.236-.026.396-.07.482-.13.084-.06.127-.182.127-.363v-2.756c0-.137-.018-.232-.053-.288-.034-.056-.095-.1-.18-.132-.087-.032-.213-.058-.38-.077-.03 0-.046-.027-.046-.08 0-.055.017-.08.047-.08.133 0 .288.005.47.017.173.012.316.018.435.018.12 0 .268-.006.44-.018.182-.012.337-.018.468-.018.03 0 .047.026.047.08 0 .054-.016.08-.047.08-.165.02-.29.046-.377.078-.086.032-.146.076-.18.132-.035.056-.052.152-.052.29v1.326c.076 0 .138-.01.185-.03.046-.018.102-.06.165-.122l1.285-1.267c.104-.1.157-.173.157-.218 0-.054-.024-.093-.073-.12-.052-.026-.15-.05-.302-.068-.03 0-.047-.027-.047-.08 0-.055.02-.08.054-.08.09 0 .212.005.36.017.16.012.294.018.398.018s.222-.007.35-.02c.107-.01.2-.016.275-.016.027 0 .04.026.04.08 0 .054-.015.08-.046.08-.188.024-.334.063-.44.115-.106.055-.236.152-.386.296l-1.337 1.27 1.658 1.688c.116.12.23.207.343.26.112.054.28.094.504.12.04.002.057.03.057.078zM201.24 95.892c0 .055-.016.082-.047.082-.13 0-.286-.006-.467-.018-.17-.012-.316-.018-.436-.018s-.266.006-.438.018c-.18.012-.338.018-.47.018-.032 0-.048-.027-.048-.082 0-.05.016-.075.047-.08.237-.026.397-.07.482-.13s.128-.182.128-.363v-2.756c0-.137-.018-.232-.053-.288-.033-.056-.094-.1-.18-.132s-.212-.058-.378-.077c-.03 0-.048-.027-.048-.08 0-.055.017-.08.047-.08.133 0 .29.005.47.017.173.012.317.018.438.018.118 0 .265-.006.437-.018.18-.012.334-.018.465-.018.03 0 .048.026.048.08 0 .054-.017.08-.048.08-.164.02-.29.046-.375.078-.086.032-.146.075-.178.13-.033.055-.05.15-.05.29v2.755c0 .134.017.228.05.284.032.056.092.1.176.132.086.032.21.058.373.077.037.003.054.03.054.08zM205.744 92.867c0 .037-.035.056-.105.056-.032 0-.052-.014-.06-.04-.084-.275-.203-.47-.36-.584-.155-.115-.386-.172-.692-.172h-.274c-.095 0-.16.016-.194.046-.035.03-.054.09-.054.176v2.97c0 .134.02.228.052.284.034.056.096.1.182.132.087.032.21.06.373.077.03.004.047.03.047.08 0 .054-.016.08-.047.08-.13 0-.287-.005-.47-.017-.17-.012-.313-.018-.43-.018-.12 0-.27.006-.44.018-.183.012-.338.018-.47.018-.03 0-.046-.027-.046-.082 0-.05.016-.075.047-.08.235-.025.396-.07.48-.13.085-.06.128-.182.128-.363v-2.97c0-.086-.02-.145-.054-.176-.034-.03-.102-.046-.198-.046h-.228c-.275 0-.524.07-.75.21-.225.138-.37.32-.438.54-.01.03-.03.045-.063.045-.064 0-.1-.02-.1-.064.11-.295.213-.63.312-1 .266.054.873.08 1.82.08.975 0 1.594-.026 1.857-.08.026.252.084.588.174 1.007zM209.982 95.892c0 .055-.017.082-.047.082-.072 0-.19-.007-.354-.02-.118-.01-.197-.016-.236-.016-.057 0-.146.006-.267.018-.12.012-.21.018-.267.018l-.887-1.442c-.125-.2-.225-.328-.303-.385-.076-.058-.23-.086-.463-.086v1.26c0 .134.017.228.05.284s.097.1.183.132.21.06.373.077c.033.004.05.03.05.08 0 .054-.017.08-.048.08-.13 0-.285-.005-.467-.017-.174-.012-.32-.018-.44-.018-.117 0-.263.006-.435.018-.18.012-.334.018-.465.018-.03 0-.047-.027-.047-.082 0-.05.017-.075.048-.08.162-.02.285-.044.37-.076.087-.032.147-.075.18-.13.035-.055.052-.15.052-.287v-2.756c0-.135-.016-.23-.047-.285-.033-.057-.092-.102-.178-.134-.086-.033-.21-.06-.377-.08-.03 0-.047-.026-.047-.08 0-.054.017-.08.048-.08.13 0 .285.006.465.018.172.012.316.018.436.018s.266-.006.438-.018c.182-.012.338-.018.467-.018.437 0 .77.09 1.01.27.238.184.357.44.357.77 0 .207-.078.4-.236.578-.156.178-.37.314-.638.41l.9 1.468c.08.128.18.223.303.284.124.06.283.104.48.126.03.004.042.03.042.08zm-1.492-2.934c0-.57-.248-.856-.746-.856-.163 0-.287.013-.372.04s-.142.067-.17.124-.042.156-.042.3v1.306c.113.016.255.023.427.023.313 0 .543-.074.688-.224.143-.148.215-.385.215-.712zM214.313 95.892c0 .055-.017.082-.047.082-.136 0-.287-.006-.457-.018-.147-.012-.272-.018-.376-.018-.12 0-.267.006-.44.018-.187.012-.345.018-.476.018-.03 0-.047-.026-.047-.08s.013-.08.036-.08c.174-.01.3-.03.374-.07.076-.037.114-.097.114-.178 0-.05-.02-.132-.06-.244l-.333-.98h-1.2l-.334.907c-.043.12-.064.215-.064.28 0 .174.158.268.475.283.023 0 .035.027.035.08s-.016.08-.047.08c-.117 0-.247-.005-.39-.017-.134-.012-.255-.018-.36-.018-.082 0-.187.006-.314.018-.132.012-.245.018-.337.018-.03 0-.045-.024-.045-.073 0-.054.022-.083.067-.087.16-.016.29-.06.386-.134.095-.075.192-.227.294-.455l1.37-3.36c.01-.03.038-.047.08-.047.048 0 .077.015.09.044l1.206 3.363c.068.19.16.33.277.42.115.09.27.145.466.168.04.003.06.03.06.08zm-1.775-1.738l-.515-1.49-.553 1.49h1.068zM218.254 94.892c-.068.312-.138.644-.204.994-.11 0-.313.026-.604.08-.375.067-.65.102-.83.102-.445 0-.836-.088-1.172-.264-.334-.175-.596-.426-.782-.753-.188-.325-.28-.688-.28-1.09 0-.393.1-.756.296-1.088.197-.333.472-.592.817-.776.347-.186.738-.278 1.173-.278.185 0 .43.02.737.06.238.03.414.046.522.046.025.272.07.604.136.994 0 .03-.03.047-.095.047-.038 0-.063-.016-.07-.047-.068-.265-.222-.483-.452-.655-.23-.17-.5-.257-.803-.257-.457 0-.843.188-1.154.567-.312.378-.466.84-.466 1.39 0 .532.152.984.46 1.358.31.374.687.56 1.13.56.697 0 1.19-.328 1.48-.987.014-.03.04-.047.08-.047.053 0 .08.014.08.046zM223.02 95.892c0 .055-.016.082-.047.082-.13 0-.287-.006-.47-.018-.173-.012-.317-.018-.437-.018-.115 0-.274.006-.478.018-.213.012-.384.018-.515.018-.03 0-.047-.027-.047-.082 0-.05.014-.075.04-.08.264-.03.396-.093.396-.188 0-.055-.043-.125-.13-.21l-1.16-1.183c-.063-.062-.116-.103-.16-.122-.048-.02-.11-.03-.19-.03v1.24c0 .136.018.23.052.286s.095.1.183.132c.086.032.21.06.373.077.032.004.05.03.05.08 0 .054-.018.08-.048.08-.13 0-.287-.005-.468-.017-.174-.012-.32-.018-.44-.018-.117 0-.262.006-.435.018-.183.012-.34.018-.47.018-.03 0-.047-.027-.047-.082 0-.05.016-.075.047-.08.235-.026.396-.07.48-.13.085-.06.128-.182.128-.363v-2.756c0-.137-.018-.232-.05-.288-.036-.056-.096-.1-.182-.132s-.212-.058-.378-.077c-.03 0-.047-.027-.047-.08 0-.055.017-.08.048-.08.13 0 .287.005.47.017.17.012.315.018.433.018.122 0 .27-.006.442-.018.182-.012.337-.018.467-.018.03 0 .046.026.046.08 0 .054-.016.08-.047.08-.165.02-.292.046-.378.078-.086.032-.146.076-.18.132-.034.056-.05.152-.05.29v1.326c.075 0 .136-.01.183-.03.047-.018.104-.06.167-.122l1.284-1.267c.105-.1.158-.173.158-.218 0-.054-.025-.093-.074-.12-.05-.026-.15-.05-.3-.068-.032 0-.048-.027-.048-.08 0-.055.018-.08.053-.08.092 0 .213.005.363.017.16.012.293.018.396.018.105 0 .223-.007.352-.02.106-.01.2-.016.274-.016.027 0 .04.026.04.08 0 .054-.015.08-.046.08-.188.024-.334.063-.44.115-.107.055-.236.152-.387.296l-1.337 1.27 1.658 1.688c.114.12.23.207.342.26.112.054.28.094.504.12.038.002.056.03.056.078zM227.264 94.184c0 .597-.178 1.072-.53 1.425-.355.35-.835.527-1.44.527-.267 0-.586-.048-.958-.144-.34-.09-.617-.136-.834-.136-.018-.51-.055-1.02-.107-1.53 0-.048.045-.07.135-.07.063 0 .103.022.117.07.162.56.37.95.62 1.18.253.228.607.342 1.064.342.363 0 .645-.105.844-.315s.3-.505.3-.883c0-.242-.087-.47-.262-.677-.174-.21-.545-.478-1.11-.808-.65-.375-1.078-.693-1.278-.954-.2-.26-.302-.55-.302-.87 0-.487.182-.9.543-1.238s.82-.506 1.377-.506c.21 0 .45.027.726.084.255.05.476.076.662.076.036.528.084.993.144 1.396 0 .048-.037.072-.115.072-.085 0-.132-.024-.142-.072-.1-.45-.25-.774-.45-.972-.202-.198-.48-.298-.835-.298-.34 0-.606.1-.806.298-.2.197-.3.465-.3.8 0 .214.084.417.252.61.165.193.528.452 1.085.776.658.384 1.09.705 1.295.963s.304.542.304.85z"/></g><circle fill="none" stroke="#55C7EB" stroke-width=".5" cx="205" cy="110.132" r="34.014"/><path fill="#0464BB" stroke="#55C7EB" stroke-width=".5" d="M204.47 99.696c-5.616 0-10.17 4.554-10.17 10.172s4.554 10.172 10.17 10.172c5.62 0 10.173-4.554 10.173-10.172s-4.554-10.172-10.172-10.172zm.003 13.14c-1.64 0-2.968-1.328-2.968-2.968s1.33-2.968 2.968-2.968c1.64 0 2.97 1.33 2.97 2.968-.002 1.64-1.33 2.968-2.97 2.968z"/></svg>