  0
SECTION
  2
HEADER
  9
$ACADVER
  1
AC1014
  9
$HANDSEED
  5
FFFF
  9
$MEASUREMENT
 70
     1
  0
ENDSEC
  0
SECTION
  2
TABLES
  0
TABLE
  2
VPORT
  5
8
330
0
100
AcDbSymbolTable
 70
     4
  0
VPORT
  5
2E
330
8
100
AcDbSymbolTableRecord
100
AcDbViewportTableRecord
  2
*ACTIVE
 70
     0
 10
0.0
 20
0.0
 11
1.0
 21
1.0
 12
210.0
 22
148.5
 13
0.0
 23
0.0
 14
10.0
 24
10.0
 15
10.0
 25
10.0
 16
0.0
 26
0.0
 36
1.0
 17
0.0
 27
0.0
 37
0.0
 40
341.0
 41
1.24
 42
50.0
 43
0.0
 44
0.0
 50
0.0
 51
0.0
 71
     0
 72
   100
 73
     1
 74
     3
 75
     0
 76
     0
 77
     0
 78
     0
  0
ENDTAB
  0
TABLE
  2
LTYPE
  5
5
330
0
100
AcDbSymbolTable
 70
     1
  0
LTYPE
  5
14
330
5
100
AcDbSymbolTableRecord
100
AcDbLinetypeTableRecord
  2
BYBLOCK
 70
     0
  3

 72
    65
 73
     0
 40
0.0
  0
LTYPE
  5
15
330
5
100
AcDbSymbolTableRecord
100
AcDbLinetypeTableRecord
  2
BYLAYER
 70
     0
  3

 72
    65
 73
     0
 40
0.0
  0
LTYPE
  5
16
330
5
100
AcDbSymbolTableRecord
100
AcDbLinetypeTableRecord
  2
CONTINUOUS
 70
     0
  3
Solid line
 72
    65
 73
     0
 40
0.0
  0
ENDTAB
  0
TABLE
  2
LAYER
  5
2
100
AcDbSymbolTable
 70
2
  0
LAYER
  5
50
100
AcDbSymbolTableRecord
100
AcDbLayerTableRecord
  2
0
 70
0
  6
CONTINUOUS
  0
LAYER
  5
51
100
AcDbSymbolTableRecord
100
AcDbLayerTableRecord
  2
Layer_1
 70
0
  6
CONTINUOUS
  0
ENDTAB
  0
TABLE
  2
STYLE
  5
3
330
0
100
AcDbSymbolTable
 70
     1
  0
STYLE
  5
11
330
3
100
AcDbSymbolTableRecord
100
AcDbTextStyleTableRecord
  2
STANDARD
 70
     0
 40
0.0
 41
1.0
 50
0.0
 71
     0
 42
2.5
  3
txt
  4

  0
ENDTAB
  0
TABLE
  2
VIEW
  5
6
330
0
100
AcDbSymbolTable
 70
     0
  0
ENDTAB
  0
TABLE
  2
UCS
  5
7
330
0
100
AcDbSymbolTable
 70
     0
  0
ENDTAB
  0
TABLE
  2
APPID
  5
9
330
0
100
AcDbSymbolTable
 70
     2
  0
APPID
  5
12
330
9
100
AcDbSymbolTableRecord
100
AcDbRegAppTableRecord
  2
ACAD
 70
     0
  0
ENDTAB
  0
TABLE
  2
DIMSTYLE
  5
A
330
0
100
AcDbSymbolTable
 70
     1
  0
DIMSTYLE
105
27
330
A
100
AcDbSymbolTableRecord
100
AcDbDimStyleTableRecord
  2
ISO-25
 70
     0
  3

  4

  5

  6

  7

 40
1.0
 41
2.5
 42
0.625
 43
3.75
 44
1.25
 45
0.0
 46
0.0
 47
0.0
 48
0.0
140
2.5
141
2.5
142
0.0
143
0.03937007874016
144
1.0
145
0.0
146
1.0
147
0.625
 71
     0
 72
     0
 73
     0
 74
     0
 75
     0
 76
     0
 77
     1
 78
     8
170
     0
171
     3
172
     1
173
     0
174
     0
175
     0
176
     0
177
     0
178
     0
270
     2
271
     2
272
     2
273
     2
274
     3
340
11
275
     0
280
     0
281
     0
282
     0
283
     0
284
     8
285
     0
286
     0
287
     3
288
     0
  0
ENDTAB
  0
TABLE
  2
BLOCK_RECORD
  5
1
330
0
100
AcDbSymbolTable
 70
     1
  0
BLOCK_RECORD
  5
1F
330
1
100
AcDbSymbolTableRecord
100
AcDbBlockTableRecord
  2
*MODEL_SPACE
  0
BLOCK_RECORD
  5
1B
330
1
100
AcDbSymbolTableRecord
100
AcDbBlockTableRecord
  2
*PAPER_SPACE
  0
ENDTAB
  0
ENDSEC
  0
SECTION
  2
BLOCKS
  0
BLOCK
  5
20
330
1F
100
AcDbEntity
  8
0
100
AcDbBlockBegin
  2
*MODEL_SPACE
 70
     0
 10
0.0
 20
0.0
 30
0.0
  3
*MODEL_SPACE
  1

  0
ENDBLK
  5
21
330
1F
100
AcDbEntity
  8
0
100
AcDbBlockEnd
  0
BLOCK
  5
1C
330
1B
100
AcDbEntity
 67
     1
  8
0
100
AcDbBlockBegin
  2
*PAPER_SPACE
  1

  0
ENDBLK
  5
1D
330
1B
100
AcDbEntity
 67
     1
  8
0
100
AcDbBlockEnd
  0
ENDSEC
  0
SECTION
  2
ENTITIES
  0
SPLINE
  5
100
100
AcDbEntity
  8
Layer_1
 62
7
100
AcDbSpline
 70
8
 71
3
 72
8
 73
4
 74
0
 40
0
 40
0
 40
0
 40
0
 40
1
 40
1
 40
1
 40
1
 10
385.107000
 20
127.934440
 30
0.0
 10
385.107000
 20
127.271399
 30
0.0
 10
384.843608
 20
126.635514
 30
0.0
 10
384.374767
 20
126.166673
 30
0.0
  0
SPLINE
  5
101
100
AcDbEntity
  8
Layer_1
 62
7
100
AcDbSpline
 70
8
 71
3
 72
8
 73
4
 74
0
 40
0
 40
0
 40
0
 40
0
 40
1
 40
1
 40
1
 40
1
 10
384.374767
 20
126.166673
 30
0.0
 10
383.905926
 20
125.697832
 30
0.0
 10
383.270041
 20
125.434440
 30
0.0
 10
382.607000
 20
125.434440
 30
0.0
  0
SPLINE
  5
102
100
AcDbEntity
  8
Layer_1
 62
7
100
AcDbSpline
 70
8
 71
3
 72
8
 73
4
 74
0
 40
0
 40
0
 40
0
 40
0
 40
1
 40
1
 40
1
 40
1
 10
382.607000
 20
125.434440
 30
0.0
 10
381.943959
 20
125.434440
 30
0.0
 10
381.308074
 20
125.697832
 30
0.0
 10
380.839233
 20
126.166673
 30
0.0
  0
SPLINE
  5
103
100
AcDbEntity
  8
Layer_1
 62
7
100
AcDbSpline
 70
8
 71
3
 72
8
 73
4
 74
0
 40
0
 40
0
 40
0
 40
0
 40
1
 40
1
 40
1
 40
1
 10
380.839233
 20
126.166673
 30
0.0
 10
380.370392
 20
126.635514
 30
0.0
 10
380.107000
 20
127.271399
 30
0.0
 10
380.107000
 20
127.934440
 30
0.0
  0
SPLINE
  5
104
100
AcDbEntity
  8
Layer_1
 62
7
100
AcDbSpline
 70
8
 71
3
 72
8
 73
4
 74
0
 40
0
 40
0
 40
0
 40
0
 40
1
 40
1
 40
1
 40
1
 10
380.107000
 20
127.934440
 30
0.0
 10
380.107000
 20
128.597481
 30
0.0
 10
380.370392
 20
129.233366
 30
0.0
 10
380.839233
 20
129.702207
 30
0.0
  0
SPLINE
  5
105
100
AcDbEntity
  8
Layer_1
 62
7
100
AcDbSpline
 70
8
 71
3
 72
8
 73
4
 74
0
 40
0
 40
0
 40
0
 40
0
 40
1
 40
1
 40
1
 40
1
 10
380.839233
 20
129.702207
 30
0.0
 10
381.308074
 20
130.171048
 30
0.0
 10
381.943959
 20
130.434440
 30
0.0
 10
382.607000
 20
130.434440
 30
0.0
  0
SPLINE
  5
106
100
AcDbEntity
  8
Layer_1
 62
7
100
AcDbSpline
 70
8
 71
3
 72
8
 73
4
 74
0
 40
0
 40
0
 40
0
 40
0
 40
1
 40
1
 40
1
 40
1
 10
382.607000
 20
130.434440
 30
0.0
 10
383.987712
 20
130.434440
 30
0.0
 10
385.107000
 20
129.315152
 30
0.0
 10
385.107000
 20
127.934440
 30
0.0
  0
LWPOLYLINE
  5
107
100
AcDbEntity
  8
Layer_1
 62
7
100
AcDbPolyline
 90
4
 70
1
 10
0.000000
 20
255.869000
 30
0.0
 10
579.214000
 20
255.869000
 30
0.0
 10
450.461000
 20
-0.000009
 30
0.0
 10
128.751990
 20
-0.000009
 30
0.0
  0
SPLINE
  5
108
100
AcDbEntity
  8
Layer_1
 62
7
100
AcDbSpline
 70
8
 71
3
 72
8
 73
4
 74
0
 40
0
 40
0
 40
0
 40
0
 40
1
 40
1
 40
1
 40
1
 10
199.107010
 20
127.934440
 30
0.0
 10
199.107010
 20
127.271399
 30
0.0
 10
198.843618
 20
126.635514
 30
0.0
 10
198.374777
 20
126.166673
 30
0.0
  0
SPLINE
  5
109
100
AcDbEntity
  8
Layer_1
 62
7
100
AcDbSpline
 70
8
 71
3
 72
8
 73
4
 74
0
 40
0
 40
0
 40
0
 40
0
 40
1
 40
1
 40
1
 40
1
 10
198.374777
 20
126.166673
 30
0.0
 10
197.905936
 20
125.697832
 30
0.0
 10
197.270051
 20
125.434440
 30
0.0
 10
196.607010
 20
125.434440
 30
0.0
  0
SPLINE
  5
10a
100
AcDbEntity
  8
Layer_1
 62
7
100
AcDbSpline
 70
8
 71
3
 72
8
 73
4
 74
0
 40
0
 40
0
 40
0
 40
0
 40
1
 40
1
 40
1
 40
1
 10
196.607010
 20
125.434440
 30
0.0
 10
195.943969
 20
125.434440
 30
0.0
 10
195.308084
 20
125.697832
 30
0.0
 10
194.839243
 20
126.166673
 30
0.0
  0
SPLINE
  5
10b
100
AcDbEntity
  8
Layer_1
 62
7
100
AcDbSpline
 70
8
 71
3
 72
8
 73
4
 74
0
 40
0
 40
0
 40
0
 40
0
 40
1
 40
1
 40
1
 40
1
 10
194.839243
 20
126.166673
 30
0.0
 10
194.370402
 20
126.635514
 30
0.0
 10
194.107010
 20
127.271399
 30
0.0
 10
194.107010
 20
127.934440
 30
0.0
  0
SPLINE
  5
10c
100
AcDbEntity
  8
Layer_1
 62
7
100
AcDbSpline
 70
8
 71
3
 72
8
 73
4
 74
0
 40
0
 40
0
 40
0
 40
0
 40
1
 40
1
 40
1
 40
1
 10
194.107010
 20
127.934440
 30
0.0
 10
194.107010
 20
128.597481
 30
0.0
 10
194.370402
 20
129.233366
 30
0.0
 10
194.839243
 20
129.702207
 30
0.0
  0
SPLINE
  5
10d
100
AcDbEntity
  8
Layer_1
 62
7
100
AcDbSpline
 70
8
 71
3
 72
8
 73
4
 74
0
 40
0
 40
0
 40
0
 40
0
 40
1
 40
1
 40
1
 40
1
 10
194.839243
 20
129.702207
 30
0.0
 10
195.308084
 20
130.171048
 30
0.0
 10
195.943969
 20
130.434440
 30
0.0
 10
196.607010
 20
130.434440
 30
0.0
  0
SPLINE
  5
10e
100
AcDbEntity
  8
Layer_1
 62
7
100
AcDbSpline
 70
8
 71
3
 72
8
 73
4
 74
0
 40
0
 40
0
 40
0
 40
0
 40
1
 40
1
 40
1
 40
1
 10
196.607010
 20
130.434440
 30
0.0
 10
197.987722
 20
130.434440
 30
0.0
 10
199.107010
 20
129.315152
 30
0.0
 10
199.107010
 20
127.934440
 30
0.0
  0
LWPOLYLINE
  5
10f
100
AcDbEntity
  8
Layer_1
 62
7
100
AcDbPolyline
 90
1
 70
1
 10
385.107000
 20
127.934440
 30
0.0
  0
LWPOLYLINE
  5
110
100
AcDbEntity
  8
Layer_1
 62
7
100
AcDbPolyline
 90
1
 70
1
 10
199.107010
 20
127.934440
 30
0.0
  0
LWPOLYLINE
  5
111
100
AcDbEntity
  8
Layer_1
 62
7
100
AcDbPolyline
 90
4
 70
1
 10
205.106920
 20
89.055241
 30
0.0
 10
250.106920
 20
89.055241
 30
0.0
 10
250.106920
 20
69.055241
 30
0.0
 10
205.106920
 20
69.055241
 30
0.0
  0
LWPOLYLINE
  5
112
100
AcDbEntity
  8
Layer_1
 62
7
100
AcDbPolyline
 90
4
 70
1
 10
329.106900
 20
89.055231
 30
0.0
 10
374.106900
 20
89.055231
 30
0.0
 10
374.106900
 20
69.055231
 30
0.0
 10
329.106900
 20
69.055231
 30
0.0
  0
LWPOLYLINE
  5
113
100
AcDbEntity
  8
Layer_1
 62
7
100
AcDbPolyline
 90
4
 70
1
 10
391.106800
 20
89.055211
 30
0.0
 10
436.106800
 20
89.055211
 30
0.0
 10
436.106800
 20
69.055211
 30
0.0
 10
391.106800
 20
69.055211
 30
0.0
  0
LWPOLYLINE
  5
114
100
AcDbEntity
  8
Layer_1
 62
7
100
AcDbPolyline
 90
4
 70
1
 10
267.106800
 20
89.055211
 30
0.0
 10
312.106800
 20
89.055211
 30
0.0
 10
312.106800
 20
69.055211
 30
0.0
 10
267.106800
 20
69.055211
 30
0.0
  0
LWPOLYLINE
  5
115
100
AcDbEntity
  8
Layer_1
 62
7
100
AcDbPolyline
 90
4
 70
1
 10
143.106800
 20
89.055211
 30
0.0
 10
188.106800
 20
89.055211
 30
0.0
 10
188.106800
 20
69.055211
 30
0.0
 10
143.106800
 20
69.055211
 30
0.0
  0
LWPOLYLINE
  5
116
100
AcDbEntity
  8
Layer_1
 62
7
100
AcDbPolyline
 90
4
 70
1
 10
367.606900
 20
77.055241
 30
0.0
 10
367.606900
 20
81.055241
 30
0.0
 10
335.606900
 20
81.055241
 30
0.0
 10
335.606900
 20
77.055241
 30
0.0
  0
SPLINE
  5
117
100
AcDbEntity
  8
Layer_1
 62
7
100
AcDbSpline
 70
8
 71
3
 72
8
 73
4
 74
0
 40
0
 40
0
 40
0
 40
0
 40
1
 40
1
 40
1
 40
1
 10
248.106920
 20
73.055231
 30
0.0
 10
248.106920
 20
72.519333
 30
0.0
 10
247.821022
 20
72.024142
 30
0.0
 10
247.356920
 20
71.756193
 30
0.0
  0
SPLINE
  5
118
100
AcDbEntity
  8
Layer_1
 62
7
100
AcDbSpline
 70
8
 71
3
 72
8
 73
4
 74
0
 40
0
 40
0
 40
0
 40
0
 40
1
 40
1
 40
1
 40
1
 10
247.356920
 20
71.756193
 30
0.0
 10
246.892818
 20
71.488244
 30
0.0
 10
246.321022
 20
71.488244
 30
0.0
 10
245.856920
 20
71.756193
 30
0.0
  0
SPLINE
  5
119
100
AcDbEntity
  8
Layer_1
 62
7
100
AcDbSpline
 70
8
 71
3
 72
8
 73
4
 74
0
 40
0
 40
0
 40
0
 40
0
 40
1
 40
1
 40
1
 40
1
 10
245.856920
 20
71.756193
 30
0.0
 10
245.392818
 20
72.024142
 30
0.0
 10
245.106920
 20
72.519333
 30
0.0
 10
245.106920
 20
73.055231
 30
0.0
  0
SPLINE
  5
11a
100
AcDbEntity
  8
Layer_1
 62
7
100
AcDbSpline
 70
8
 71
3
 72
8
 73
4
 74
0
 40
0
 40
0
 40
0
 40
0
 40
1
 40
1
 40
1
 40
1
 10
245.106920
 20
73.055231
 30
0.0
 10
245.106920
 20
73.591129
 30
0.0
 10
245.392818
 20
74.086320
 30
0.0
 10
245.856920
 20
74.354269
 30
0.0
  0
SPLINE
  5
11b
100
AcDbEntity
  8
Layer_1
 62
7
100
AcDbSpline
 70
8
 71
3
 72
8
 73
4
 74
0
 40
0
 40
0
 40
0
 40
0
 40
1
 40
1
 40
1
 40
1
 10
245.856920
 20
74.354269
 30
0.0
 10
246.321022
 20
74.622218
 30
0.0
 10
246.892818
 20
74.622218
 30
0.0
 10
247.356920
 20
74.354269
 30
0.0
  0
SPLINE
  5
11c
100
AcDbEntity
  8
Layer_1
 62
7
100
AcDbSpline
 70
8
 71
3
 72
8
 73
4
 74
0
 40
0
 40
0
 40
0
 40
0
 40
1
 40
1
 40
1
 40
1
 10
247.356920
 20
74.354269
 30
0.0
 10
247.821022
 20
74.086320
 30
0.0
 10
248.106920
 20
73.591129
 30
0.0
 10
248.106920
 20
73.055231
 30
0.0
  0
LWPOLYLINE
  5
11d
100
AcDbEntity
  8
Layer_1
 62
7
100
AcDbPolyline
 90
4
 70
1
 10
243.606960
 20
77.055251
 30
0.0
 10
243.606960
 20
81.055251
 30
0.0
 10
211.606910
 20
81.055251
 30
0.0
 10
211.606910
 20
77.055251
 30
0.0
  0
SPLINE
  5
11e
100
AcDbEntity
  8
Layer_1
 62
7
100
AcDbSpline
 70
8
 71
3
 72
8
 73
4
 74
0
 40
0
 40
0
 40
0
 40
0
 40
1
 40
1
 40
1
 40
1
 10
207.106920
 20
85.055261
 30
0.0
 10
207.106920
 20
85.591159
 30
0.0
 10
207.392818
 20
86.086350
 30
0.0
 10
207.856920
 20
86.354299
 30
0.0
  0
SPLINE
  5
11f
100
AcDbEntity
  8
Layer_1
 62
7
100
AcDbSpline
 70
8
 71
3
 72
8
 73
4
 74
0
 40
0
 40
0
 40
0
 40
0
 40
1
 40
1
 40
1
 40
1
 10
207.856920
 20
86.354299
 30
0.0
 10
208.321022
 20
86.622248
 30
0.0
 10
208.892818
 20
86.622248
 30
0.0
 10
209.356920
 20
86.354299
 30
0.0
  0
SPLINE
  5
120
100
AcDbEntity
  8
Layer_1
 62
7
100
AcDbSpline
 70
8
 71
3
 72
8
 73
4
 74
0
 40
0
 40
0
 40
0
 40
0
 40
1
 40
1
 40
1
 40
1
 10
209.356920
 20
86.354299
 30
0.0
 10
209.821022
 20
86.086350
 30
0.0
 10
210.106920
 20
85.591159
 30
0.0
 10
210.106920
 20
85.055261
 30
0.0
  0
SPLINE
  5
121
100
AcDbEntity
  8
Layer_1
 62
7
100
AcDbSpline
 70
8
 71
3
 72
8
 73
4
 74
0
 40
0
 40
0
 40
0
 40
0
 40
1
 40
1
 40
1
 40
1
 10
210.106920
 20
85.055261
 30
0.0
 10
210.106920
 20
84.226834
 30
0.0
 10
209.435347
 20
83.555262
 30
0.0
 10
208.606920
 20
83.555262
 30
0.0
  0
SPLINE
  5
122
100
AcDbEntity
  8
Layer_1
 62
7
100
AcDbSpline
 70
8
 71
3
 72
8
 73
4
 74
0
 40
0
 40
0
 40
0
 40
0
 40
1
 40
1
 40
1
 40
1
 10
208.606920
 20
83.555262
 30
0.0
 10
207.778493
 20
83.555262
 30
0.0
 10
207.106920
 20
84.226834
 30
0.0
 10
207.106920
 20
85.055261
 30
0.0
  0
LWPOLYLINE
  5
123
100
AcDbEntity
  8
Layer_1
 62
7
100
AcDbPolyline
 90
1
 70
1
 10
248.106920
 20
73.055231
 30
0.0
  0
SPLINE
  5
124
100
AcDbEntity
  8
Layer_1
 62
7
100
AcDbSpline
 70
8
 71
3
 72
8
 73
4
 74
0
 40
0
 40
0
 40
0
 40
0
 40
1
 40
1
 40
1
 40
1
 10
372.106900
 20
73.055231
 30
0.0
 10
372.106900
 20
72.519333
 30
0.0
 10
371.821002
 20
72.024142
 30
0.0
 10
371.356900
 20
71.756193
 30
0.0
  0
SPLINE
  5
125
100
AcDbEntity
  8
Layer_1
 62
7
100
AcDbSpline
 70
8
 71
3
 72
8
 73
4
 74
0
 40
0
 40
0
 40
0
 40
0
 40
1
 40
1
 40
1
 40
1
 10
371.356900
 20
71.756193
 30
0.0
 10
370.892798
 20
71.488244
 30
0.0
 10
370.321002
 20
71.488244
 30
0.0
 10
369.856900
 20
71.756193
 30
0.0
  0
SPLINE
  5
126
100
AcDbEntity
  8
Layer_1
 62
7
100
AcDbSpline
 70
8
 71
3
 72
8
 73
4
 74
0
 40
0
 40
0
 40
0
 40
0
 40
1
 40
1
 40
1
 40
1
 10
369.856900
 20
71.756193
 30
0.0
 10
369.392798
 20
72.024142
 30
0.0
 10
369.106900
 20
72.519333
 30
0.0
 10
369.106900
 20
73.055231
 30
0.0
  0
SPLINE
  5
127
100
AcDbEntity
  8
Layer_1
 62
7
100
AcDbSpline
 70
8
 71
3
 72
8
 73
4
 74
0
 40
0
 40
0
 40
0
 40
0
 40
1
 40
1
 40
1
 40
1
 10
369.106900
 20
73.055231
 30
0.0
 10
369.106900
 20
73.591129
 30
0.0
 10
369.392798
 20
74.086320
 30
0.0
 10
369.856900
 20
74.354269
 30
0.0
  0
SPLINE
  5
128
100
AcDbEntity
  8
Layer_1
 62
7
100
AcDbSpline
 70
8
 71
3
 72
8
 73
4
 74
0
 40
0
 40
0
 40
0
 40
0
 40
1
 40
1
 40
1
 40
1
 10
369.856900
 20
74.354269
 30
0.0
 10
370.321002
 20
74.622218
 30
0.0
 10
370.892798
 20
74.622218
 30
0.0
 10
371.356900
 20
74.354269
 30
0.0
  0
SPLINE
  5
129
100
AcDbEntity
  8
Layer_1
 62
7
100
AcDbSpline
 70
8
 71
3
 72
8
 73
4
 74
0
 40
0
 40
0
 40
0
 40
0
 40
1
 40
1
 40
1
 40
1
 10
371.356900
 20
74.354269
 30
0.0
 10
371.821002
 20
74.086320
 30
0.0
 10
372.106900
 20
73.591129
 30
0.0
 10
372.106900
 20
73.055231
 30
0.0
  0
LWPOLYLINE
  5
12a
100
AcDbEntity
  8
Layer_1
 62
7
100
AcDbPolyline
 90
1
 70
1
 10
207.106920
 20
85.055261
 30
0.0
  0
SPLINE
  5
12b
100
AcDbEntity
  8
Layer_1
 62
7
100
AcDbSpline
 70
8
 71
3
 72
8
 73
4
 74
0
 40
0
 40
0
 40
0
 40
0
 40
1
 40
1
 40
1
 40
1
 10
331.106900
 20
85.055231
 30
0.0
 10
331.106900
 20
85.591129
 30
0.0
 10
331.392798
 20
86.086320
 30
0.0
 10
331.856900
 20
86.354269
 30
0.0
  0
SPLINE
  5
12c
100
AcDbEntity
  8
Layer_1
 62
7
100
AcDbSpline
 70
8
 71
3
 72
8
 73
4
 74
0
 40
0
 40
0
 40
0
 40
0
 40
1
 40
1
 40
1
 40
1
 10
331.856900
 20
86.354269
 30
0.0
 10
332.321002
 20
86.622218
 30
0.0
 10
332.892798
 20
86.622218
 30
0.0
 10
333.356900
 20
86.354269
 30
0.0
  0
SPLINE
  5
12d
100
AcDbEntity
  8
Layer_1
 62
7
100
AcDbSpline
 70
8
 71
3
 72
8
 73
4
 74
0
 40
0
 40
0
 40
0
 40
0
 40
1
 40
1
 40
1
 40
1
 10
333.356900
 20
86.354269
 30
0.0
 10
333.821002
 20
86.086320
 30
0.0
 10
334.106900
 20
85.591129
 30
0.0
 10
334.106900
 20
85.055231
 30
0.0
  0
SPLINE
  5
12e
100
AcDbEntity
  8
Layer_1
 62
7
100
AcDbSpline
 70
8
 71
3
 72
8
 73
4
 74
0
 40
0
 40
0
 40
0
 40
0
 40
1
 40
1
 40
1
 40
1
 10
334.106900
 20
85.055231
 30
0.0
 10
334.106900
 20
84.519333
 30
0.0
 10
333.821002
 20
84.024142
 30
0.0
 10
333.356900
 20
83.756193
 30
0.0
  0
SPLINE
  5
12f
100
AcDbEntity
  8
Layer_1
 62
7
100
AcDbSpline
 70
8
 71
3
 72
8
 73
4
 74
0
 40
0
 40
0
 40
0
 40
0
 40
1
 40
1
 40
1
 40
1
 10
333.356900
 20
83.756193
 30
0.0
 10
332.892798
 20
83.488244
 30
0.0
 10
332.321002
 20
83.488244
 30
0.0
 10
331.856900
 20
83.756193
 30
0.0
  0
SPLINE
  5
130
100
AcDbEntity
  8
Layer_1
 62
7
100
AcDbSpline
 70
8
 71
3
 72
8
 73
4
 74
0
 40
0
 40
0
 40
0
 40
0
 40
1
 40
1
 40
1
 40
1
 10
331.856900
 20
83.756193
 30
0.0
 10
331.392798
 20
84.024142
 30
0.0
 10
331.106900
 20
84.519333
 30
0.0
 10
331.106900
 20
85.055231
 30
0.0
  0
LWPOLYLINE
  5
131
100
AcDbEntity
  8
Layer_1
 62
7
100
AcDbPolyline
 90
1
 70
1
 10
372.106900
 20
73.055231
 30
0.0
  0
LWPOLYLINE
  5
132
100
AcDbEntity
  8
Layer_1
 62
7
100
AcDbPolyline
 90
1
 70
1
 10
331.106900
 20
85.055231
 30
0.0
  0
LWPOLYLINE
  5
133
100
AcDbEntity
  8
Layer_1
 62
7
100
AcDbPolyline
 90
4
 70
1
 10
429.606800
 20
81.055231
 30
0.0
 10
429.606800
 20
77.055231
 30
0.0
 10
397.606800
 20
77.055231
 30
0.0
 10
397.606800
 20
81.055231
 30
0.0
  0
LWPOLYLINE
  5
134
100
AcDbEntity
  8
Layer_1
 62
7
100
AcDbPolyline
 90
4
 70
1
 10
181.606810
 20
81.055231
 30
0.0
 10
181.606810
 20
77.055231
 30
0.0
 10
149.606810
 20
77.055231
 30
0.0
 10
149.606810
 20
81.055231
 30
0.0
  0
SPLINE
  5
135
100
AcDbEntity
  8
Layer_1
 62
7
100
AcDbSpline
 70
8
 71
3
 72
8
 73
4
 74
0
 40
0
 40
0
 40
0
 40
0
 40
1
 40
1
 40
1
 40
1
 10
434.106800
 20
73.055221
 30
0.0
 10
434.106800
 20
72.519323
 30
0.0
 10
433.820902
 20
72.024132
 30
0.0
 10
433.356800
 20
71.756183
 30
0.0
  0
SPLINE
  5
136
100
AcDbEntity
  8
Layer_1
 62
7
100
AcDbSpline
 70
8
 71
3
 72
8
 73
4
 74
0
 40
0
 40
0
 40
0
 40
0
 40
1
 40
1
 40
1
 40
1
 10
433.356800
 20
71.756183
 30
0.0
 10
432.892698
 20
71.488234
 30
0.0
 10
432.320902
 20
71.488234
 30
0.0
 10
431.856800
 20
71.756183
 30
0.0
  0
SPLINE
  5
137
100
AcDbEntity
  8
Layer_1
 62
7
100
AcDbSpline
 70
8
 71
3
 72
8
 73
4
 74
0
 40
0
 40
0
 40
0
 40
0
 40
1
 40
1
 40
1
 40
1
 10
431.856800
 20
71.756183
 30
0.0
 10
431.392698
 20
72.024132
 30
0.0
 10
431.106800
 20
72.519323
 30
0.0
 10
431.106800
 20
73.055221
 30
0.0
  0
SPLINE
  5
138
100
AcDbEntity
  8
Layer_1
 62
7
100
AcDbSpline
 70
8
 71
3
 72
8
 73
4
 74
0
 40
0
 40
0
 40
0
 40
0
 40
1
 40
1
 40
1
 40
1
 10
431.106800
 20
73.055221
 30
0.0
 10
431.106800
 20
73.591119
 30
0.0
 10
431.392698
 20
74.086310
 30
0.0
 10
431.856800
 20
74.354259
 30
0.0
  0
SPLINE
  5
139
100
AcDbEntity
  8
Layer_1
 62
7
100
AcDbSpline
 70
8
 71
3
 72
8
 73
4
 74
0
 40
0
 40
0
 40
0
 40
0
 40
1
 40
1
 40
1
 40
1
 10
431.856800
 20
74.354259
 30
0.0
 10
432.320902
 20
74.622208
 30
0.0
 10
432.892698
 20
74.622208
 30
0.0
 10
433.356800
 20
74.354259
 30
0.0
  0
SPLINE
  5
13a
100
AcDbEntity
  8
Layer_1
 62
7
100
AcDbSpline
 70
8
 71
3
 72
8
 73
4
 74
0
 40
0
 40
0
 40
0
 40
0
 40
1
 40
1
 40
1
 40
1
 10
433.356800
 20
74.354259
 30
0.0
 10
433.820902
 20
74.086310
 30
0.0
 10
434.106800
 20
73.591119
 30
0.0
 10
434.106800
 20
73.055221
 30
0.0
  0
LWPOLYLINE
  5
13b
100
AcDbEntity
  8
Layer_1
 62
7
100
AcDbPolyline
 90
4
 70
1
 10
305.606800
 20
81.055231
 30
0.0
 10
305.606800
 20
77.055231
 30
0.0
 10
273.606820
 20
77.055231
 30
0.0
 10
273.606820
 20
81.055231
 30
0.0
  0
SPLINE
  5
13c
100
AcDbEntity
  8
Layer_1
 62
7
100
AcDbSpline
 70
8
 71
3
 72
8
 73
4
 74
0
 40
0
 40
0
 40
0
 40
0
 40
1
 40
1
 40
1
 40
1
 10
393.106800
 20
85.055211
 30
0.0
 10
393.106800
 20
85.591109
 30
0.0
 10
393.392698
 20
86.086300
 30
0.0
 10
393.856800
 20
86.354249
 30
0.0
  0
SPLINE
  5
13d
100
AcDbEntity
  8
Layer_1
 62
7
100
AcDbSpline
 70
8
 71
3
 72
8
 73
4
 74
0
 40
0
 40
0
 40
0
 40
0
 40
1
 40
1
 40
1
 40
1
 10
393.856800
 20
86.354249
 30
0.0
 10
394.320902
 20
86.622198
 30
0.0
 10
394.892698
 20
86.622198
 30
0.0
 10
395.356800
 20
86.354249
 30
0.0
  0
SPLINE
  5
13e
100
AcDbEntity
  8
Layer_1
 62
7
100
AcDbSpline
 70
8
 71
3
 72
8
 73
4
 74
0
 40
0
 40
0
 40
0
 40
0
 40
1
 40
1
 40
1
 40
1
 10
395.356800
 20
86.354249
 30
0.0
 10
395.820902
 20
86.086300
 30
0.0
 10
396.106800
 20
85.591109
 30
0.0
 10
396.106800
 20
85.055211
 30
0.0
  0
SPLINE
  5
13f
100
AcDbEntity
  8
Layer_1
 62
7
100
AcDbSpline
 70
8
 71
3
 72
8
 73
4
 74
0
 40
0
 40
0
 40
0
 40
0
 40
1
 40
1
 40
1
 40
1
 10
396.106800
 20
85.055211
 30
0.0
 10
396.106800
 20
84.519313
 30
0.0
 10
395.820902
 20
84.024122
 30
0.0
 10
395.356800
 20
83.756173
 30
0.0
  0
SPLINE
  5
140
100
AcDbEntity
  8
Layer_1
 62
7
100
AcDbSpline
 70
8
 71
3
 72
8
 73
4
 74
0
 40
0
 40
0
 40
0
 40
0
 40
1
 40
1
 40
1
 40
1
 10
395.356800
 20
83.756173
 30
0.0
 10
394.892698
 20
83.488224
 30
0.0
 10
394.320902
 20
83.488224
 30
0.0
 10
393.856800
 20
83.756173
 30
0.0
  0
SPLINE
  5
141
100
AcDbEntity
  8
Layer_1
 62
7
100
AcDbSpline
 70
8
 71
3
 72
8
 73
4
 74
0
 40
0
 40
0
 40
0
 40
0
 40
1
 40
1
 40
1
 40
1
 10
393.856800
 20
83.756173
 30
0.0
 10
393.392698
 20
84.024122
 30
0.0
 10
393.106800
 20
84.519313
 30
0.0
 10
393.106800
 20
85.055211
 30
0.0
  0
LWPOLYLINE
  5
142
100
AcDbEntity
  8
Layer_1
 62
7
100
AcDbPolyline
 90
1
 70
1
 10
434.106800
 20
73.055221
 30
0.0
  0
SPLINE
  5
143
100
AcDbEntity
  8
Layer_1
 62
7
100
AcDbSpline
 70
8
 71
3
 72
8
 73
4
 74
0
 40
0
 40
0
 40
0
 40
0
 40
1
 40
1
 40
1
 40
1
 10
310.106900
 20
73.055221
 30
0.0
 10
310.106900
 20
72.519323
 30
0.0
 10
309.821002
 20
72.024132
 30
0.0
 10
309.356900
 20
71.756183
 30
0.0
  0
SPLINE
  5
144
100
AcDbEntity
  8
Layer_1
 62
7
100
AcDbSpline
 70
8
 71
3
 72
8
 73
4
 74
0
 40
0
 40
0
 40
0
 40
0
 40
1
 40
1
 40
1
 40
1
 10
309.356900
 20
71.756183
 30
0.0
 10
308.892798
 20
71.488234
 30
0.0
 10
308.321002
 20
71.488234
 30
0.0
 10
307.856900
 20
71.756183
 30
0.0
  0
SPLINE
  5
145
100
AcDbEntity
  8
Layer_1
 62
7
100
AcDbSpline
 70
8
 71
3
 72
8
 73
4
 74
0
 40
0
 40
0
 40
0
 40
0
 40
1
 40
1
 40
1
 40
1
 10
307.856900
 20
71.756183
 30
0.0
 10
307.392798
 20
72.024132
 30
0.0
 10
307.106900
 20
72.519323
 30
0.0
 10
307.106900
 20
73.055221
 30
0.0
  0
SPLINE
  5
146
100
AcDbEntity
  8
Layer_1
 62
7
100
AcDbSpline
 70
8
 71
3
 72
8
 73
4
 74
0
 40
0
 40
0
 40
0
 40
0
 40
1
 40
1
 40
1
 40
1
 10
307.106900
 20
73.055221
 30
0.0
 10
307.106900
 20
73.591119
 30
0.0
 10
307.392798
 20
74.086310
 30
0.0
 10
307.856900
 20
74.354259
 30
0.0
  0
SPLINE
  5
147
100
AcDbEntity
  8
Layer_1
 62
7
100
AcDbSpline
 70
8
 71
3
 72
8
 73
4
 74
0
 40
0
 40
0
 40
0
 40
0
 40
1
 40
1
 40
1
 40
1
 10
307.856900
 20
74.354259
 30
0.0
 10
308.321002
 20
74.622208
 30
0.0
 10
308.892798
 20
74.622208
 30
0.0
 10
309.356900
 20
74.354259
 30
0.0
  0
SPLINE
  5
148
100
AcDbEntity
  8
Layer_1
 62
7
100
AcDbSpline
 70
8
 71
3
 72
8
 73
4
 74
0
 40
0
 40
0
 40
0
 40
0
 40
1
 40
1
 40
1
 40
1
 10
309.356900
 20
74.354259
 30
0.0
 10
309.821002
 20
74.086310
 30
0.0
 10
310.106900
 20
73.591119
 30
0.0
 10
310.106900
 20
73.055221
 30
0.0
  0
LWPOLYLINE
  5
149
100
AcDbEntity
  8
Layer_1
 62
7
100
AcDbPolyline
 90
1
 70
1
 10
393.106800
 20
85.055211
 30
0.0
  0
SPLINE
  5
14a
100
AcDbEntity
  8
Layer_1
 62
7
100
AcDbSpline
 70
8
 71
3
 72
8
 73
4
 74
0
 40
0
 40
0
 40
0
 40
0
 40
1
 40
1
 40
1
 40
1
 10
269.106860
 20
85.055211
 30
0.0
 10
269.106860
 20
85.591109
 30
0.0
 10
269.392758
 20
86.086300
 30
0.0
 10
269.856860
 20
86.354249
 30
0.0
  0
SPLINE
  5
14b
100
AcDbEntity
  8
Layer_1
 62
7
100
AcDbSpline
 70
8
 71
3
 72
8
 73
4
 74
0
 40
0
 40
0
 40
0
 40
0
 40
1
 40
1
 40
1
 40
1
 10
269.856860
 20
86.354249
 30
0.0
 10
270.320962
 20
86.622198
 30
0.0
 10
270.892758
 20
86.622198
 30
0.0
 10
271.356860
 20
86.354249
 30
0.0
  0
SPLINE
  5
14c
100
AcDbEntity
  8
Layer_1
 62
7
100
AcDbSpline
 70
8
 71
3
 72
8
 73
4
 74
0
 40
0
 40
0
 40
0
 40
0
 40
1
 40
1
 40
1
 40
1
 10
271.356860
 20
86.354249
 30
0.0
 10
271.820962
 20
86.086300
 30
0.0
 10
272.106860
 20
85.591109
 30
0.0
 10
272.106860
 20
85.055211
 30
0.0
  0
SPLINE
  5
14d
100
AcDbEntity
  8
Layer_1
 62
7
100
AcDbSpline
 70
8
 71
3
 72
8
 73
4
 74
0
 40
0
 40
0
 40
0
 40
0
 40
1
 40
1
 40
1
 40
1
 10
272.106860
 20
85.055211
 30
0.0
 10
272.106860
 20
84.519313
 30
0.0
 10
271.820962
 20
84.024122
 30
0.0
 10
271.356860
 20
83.756173
 30
0.0
  0
SPLINE
  5
14e
100
AcDbEntity
  8
Layer_1
 62
7
100
AcDbSpline
 70
8
 71
3
 72
8
 73
4
 74
0
 40
0
 40
0
 40
0
 40
0
 40
1
 40
1
 40
1
 40
1
 10
271.356860
 20
83.756173
 30
0.0
 10
270.892758
 20
83.488224
 30
0.0
 10
270.320962
 20
83.488224
 30
0.0
 10
269.856860
 20
83.756173
 30
0.0
  0
SPLINE
  5
14f
100
AcDbEntity
  8
Layer_1
 62
7
100
AcDbSpline
 70
8
 71
3
 72
8
 73
4
 74
0
 40
0
 40
0
 40
0
 40
0
 40
1
 40
1
 40
1
 40
1
 10
269.856860
 20
83.756173
 30
0.0
 10
269.392758
 20
84.024122
 30
0.0
 10
269.106860
 20
84.519313
 30
0.0
 10
269.106860
 20
85.055211
 30
0.0
  0
LWPOLYLINE
  5
150
100
AcDbEntity
  8
Layer_1
 62
7
100
AcDbPolyline
 90
1
 70
1
 10
310.106900
 20
73.055221
 30
0.0
  0
SPLINE
  5
151
100
AcDbEntity
  8
Layer_1
 62
7
100
AcDbSpline
 70
8
 71
3
 72
8
 73
4
 74
0
 40
0
 40
0
 40
0
 40
0
 40
1
 40
1
 40
1
 40
1
 10
186.106800
 20
73.055221
 30
0.0
 10
186.106800
 20
72.519323
 30
0.0
 10
185.820902
 20
72.024132
 30
0.0
 10
185.356800
 20
71.756183
 30
0.0
  0
SPLINE
  5
152
100
AcDbEntity
  8
Layer_1
 62
7
100
AcDbSpline
 70
8
 71
3
 72
8
 73
4
 74
0
 40
0
 40
0
 40
0
 40
0
 40
1
 40
1
 40
1
 40
1
 10
185.356800
 20
71.756183
 30
0.0
 10
184.892698
 20
71.488234
 30
0.0
 10
184.320902
 20
71.488234
 30
0.0
 10
183.856800
 20
71.756183
 30
0.0
  0
SPLINE
  5
153
100
AcDbEntity
  8
Layer_1
 62
7
100
AcDbSpline
 70
8
 71
3
 72
8
 73
4
 74
0
 40
0
 40
0
 40
0
 40
0
 40
1
 40
1
 40
1
 40
1
 10
183.856800
 20
71.756183
 30
0.0
 10
183.392698
 20
72.024132
 30
0.0
 10
183.106800
 20
72.519323
 30
0.0
 10
183.106800
 20
73.055221
 30
0.0
  0
SPLINE
  5
154
100
AcDbEntity
  8
Layer_1
 62
7
100
AcDbSpline
 70
8
 71
3
 72
8
 73
4
 74
0
 40
0
 40
0
 40
0
 40
0
 40
1
 40
1
 40
1
 40
1
 10
183.106800
 20
73.055221
 30
0.0
 10
183.106800
 20
73.591119
 30
0.0
 10
183.392698
 20
74.086310
 30
0.0
 10
183.856800
 20
74.354259
 30
0.0
  0
SPLINE
  5
155
100
AcDbEntity
  8
Layer_1
 62
7
100
AcDbSpline
 70
8
 71
3
 72
8
 73
4
 74
0
 40
0
 40
0
 40
0
 40
0
 40
1
 40
1
 40
1
 40
1
 10
183.856800
 20
74.354259
 30
0.0
 10
184.320902
 20
74.622208
 30
0.0
 10
184.892698
 20
74.622208
 30
0.0
 10
185.356800
 20
74.354259
 30
0.0
  0
SPLINE
  5
156
100
AcDbEntity
  8
Layer_1
 62
7
100
AcDbSpline
 70
8
 71
3
 72
8
 73
4
 74
0
 40
0
 40
0
 40
0
 40
0
 40
1
 40
1
 40
1
 40
1
 10
185.356800
 20
74.354259
 30
0.0
 10
185.820902
 20
74.086310
 30
0.0
 10
186.106800
 20
73.591119
 30
0.0
 10
186.106800
 20
73.055221
 30
0.0
  0
LWPOLYLINE
  5
157
100
AcDbEntity
  8
Layer_1
 62
7
100
AcDbPolyline
 90
1
 70
1
 10
269.106860
 20
85.055211
 30
0.0
  0
SPLINE
  5
158
100
AcDbEntity
  8
Layer_1
 62
7
100
AcDbSpline
 70
8
 71
3
 72
8
 73
4
 74
0
 40
0
 40
0
 40
0
 40
0
 40
1
 40
1
 40
1
 40
1
 10
145.106800
 20
85.055211
 30
0.0
 10
145.106800
 20
85.591109
 30
0.0
 10
145.392698
 20
86.086300
 30
0.0
 10
145.856800
 20
86.354249
 30
0.0
  0
SPLINE
  5
159
100
AcDbEntity
  8
Layer_1
 62
7
100
AcDbSpline
 70
8
 71
3
 72
8
 73
4
 74
0
 40
0
 40
0
 40
0
 40
0
 40
1
 40
1
 40
1
 40
1
 10
145.856800
 20
86.354249
 30
0.0
 10
146.320902
 20
86.622198
 30
0.0
 10
146.892698
 20
86.622198
 30
0.0
 10
147.356800
 20
86.354249
 30
0.0
  0
SPLINE
  5
15a
100
AcDbEntity
  8
Layer_1
 62
7
100
AcDbSpline
 70
8
 71
3
 72
8
 73
4
 74
0
 40
0
 40
0
 40
0
 40
0
 40
1
 40
1
 40
1
 40
1
 10
147.356800
 20
86.354249
 30
0.0
 10
147.820902
 20
86.086300
 30
0.0
 10
148.106800
 20
85.591109
 30
0.0
 10
148.106800
 20
85.055211
 30
0.0
  0
SPLINE
  5
15b
100
AcDbEntity
  8
Layer_1
 62
7
100
AcDbSpline
 70
8
 71
3
 72
8
 73
4
 74
0
 40
0
 40
0
 40
0
 40
0
 40
1
 40
1
 40
1
 40
1
 10
148.106800
 20
85.055211
 30
0.0
 10
148.106800
 20
84.519313
 30
0.0
 10
147.820902
 20
84.024122
 30
0.0
 10
147.356800
 20
83.756173
 30
0.0
  0
SPLINE
  5
15c
100
AcDbEntity
  8
Layer_1
 62
7
100
AcDbSpline
 70
8
 71
3
 72
8
 73
4
 74
0
 40
0
 40
0
 40
0
 40
0
 40
1
 40
1
 40
1
 40
1
 10
147.356800
 20
83.756173
 30
0.0
 10
146.892698
 20
83.488224
 30
0.0
 10
146.320902
 20
83.488224
 30
0.0
 10
145.856800
 20
83.756173
 30
0.0
  0
SPLINE
  5
15d
100
AcDbEntity
  8
Layer_1
 62
7
100
AcDbSpline
 70
8
 71
3
 72
8
 73
4
 74
0
 40
0
 40
0
 40
0
 40
0
 40
1
 40
1
 40
1
 40
1
 10
145.856800
 20
83.756173
 30
0.0
 10
145.392698
 20
84.024122
 30
0.0
 10
145.106800
 20
84.519313
 30
0.0
 10
145.106800
 20
85.055211
 30
0.0
  0
LWPOLYLINE
  5
15e
100
AcDbEntity
  8
Layer_1
 62
7
100
AcDbPolyline
 90
1
 70
1
 10
186.106800
 20
73.055221
 30
0.0
  0
LWPOLYLINE
  5
15f
100
AcDbEntity
  8
Layer_1
 62
7
100
AcDbPolyline
 90
1
 70
1
 10
145.106800
 20
85.055211
 30
0.0
  0
LWPOLYLINE
  5
160
100
AcDbEntity
  8
Layer_1
 62
7
100
AcDbPolyline
 90
4
 70
1
 10
255.106920
 20
186.813680
 30
0.0
 10
255.106920
 20
101.813657
 30
0.0
 10
200.106909
 20
101.813657
 30
0.0
 10
200.106909
 20
186.813680
 30
0.0
  0
LWPOLYLINE
  5
161
100
AcDbEntity
  8
Layer_1
 62
7
100
AcDbPolyline
 90
4
 70
1
 10
379.106900
 20
186.813680
 30
0.0
 10
379.106900
 20
101.813657
 30
0.0
 10
324.106889
 20
101.813657
 30
0.0
 10
324.106889
 20
186.813680
 30
0.0
  0
LWPOLYLINE
  5
162
100
AcDbEntity
  8
Layer_1
 62
7
100
AcDbPolyline
 90
4
 70
1
 10
441.106800
 20
101.813651
 30
0.0
 10
441.106800
 20
186.813674
 30
0.0
 10
386.106789
 20
186.813674
 30
0.0
 10
386.106789
 20
101.813651
 30
0.0
  0
LWPOLYLINE
  5
163
100
AcDbEntity
  8
Layer_1
 62
7
100
AcDbPolyline
 90
4
 70
1
 10
317.106800
 20
101.813651
 30
0.0
 10
317.106800
 20
186.813674
 30
0.0
 10
262.106789
 20
186.813674
 30
0.0
 10
262.106789
 20
101.813651
 30
0.0
  0
LWPOLYLINE
  5
164
100
AcDbEntity
  8
Layer_1
 62
7
100
AcDbPolyline
 90
4
 70
1
 10
193.106800
 20
101.813651
 30
0.0
 10
193.106800
 20
186.813674
 30
0.0
 10
138.106789
 20
186.813674
 30
0.0
 10
138.106789
 20
101.813651
 30
0.0
  0
ENDSEC
  0
SECTION
  2
OBJECTS
  0
DICTIONARY
  5
C
330
0
100
AcDbDictionary
  3
ACAD_GROUP
350
D
  3
ACAD_MLINESTYLE
350
17
  0
DICTIONARY
  5
D
330
C
100
AcDbDictionary
  0
DICTIONARY
  5
1A
330
C
100
AcDbDictionary
  0
DICTIONARY
  5
17
330
C
100
AcDbDictionary
  3
STANDARD
350
18
  0
DICTIONARY
  5
19
330
C
100
AcDbDictionary
  0
ENDSEC
  0
EOF
