<?xml version="1.0" encoding="UTF-8" standalone="no"?>
<!-- Created with Inkscape (http://www.inkscape.org/) -->

<svg
   xmlns:dc="http://purl.org/dc/elements/1.1/"
   xmlns:cc="http://creativecommons.org/ns#"
   xmlns:rdf="http://www.w3.org/1999/02/22-rdf-syntax-ns#"
   xmlns:svg="http://www.w3.org/2000/svg"
   xmlns="http://www.w3.org/2000/svg"
   xmlns:sodipodi="http://sodipodi.sourceforge.net/DTD/sodipodi-0.dtd"
   xmlns:inkscape="http://www.inkscape.org/namespaces/inkscape"
   width="215.90102mm"
   height="593.72717mm"
   viewBox="0 0 215.90102 593.72717"
   version="1.1"
   id="svg2498"
   inkscape:version="0.92.1 unknown"
   sodipodi:docname="grille_template.svg">
  <defs
     id="defs2492" />
  <sodipodi:namedview
     id="base"
     pagecolor="#ffffff"
     bordercolor="#666666"
     borderopacity="1.0"
     inkscape:pageopacity="0.0"
     inkscape:pageshadow="2"
     inkscape:zoom="0.24748737"
     inkscape:cx="1728.8157"
     inkscape:cy="947.81265"
     inkscape:document-units="mm"
     inkscape:current-layer="layer1"
     showgrid="false"
     fit-margin-top="0"
     fit-margin-left="0"
     fit-margin-right="0"
     fit-margin-bottom="0"
     inkscape:window-width="1920"
     inkscape:window-height="1053"
     inkscape:window-x="0"
     inkscape:window-y="0"
     inkscape:window-maximized="1" />
  <metadata
     id="metadata2495">
    <rdf:RDF>
      <cc:Work
         rdf:about="">
        <dc:format>image/svg+xml</dc:format>
        <dc:type
           rdf:resource="http://purl.org/dc/dcmitype/StillImage" />
        <dc:title></dc:title>
      </cc:Work>
    </rdf:RDF>
  </metadata>
  <g
     inkscape:label="Layer 1"
     inkscape:groupmode="layer"
     id="layer1"
     transform="translate(351.5825,194.11845)">
    <path
       style="opacity:1;vector-effect:none;fill:none;fill-opacity:1;stroke:#ff0000;stroke-width:0.001;stroke-linecap:butt;stroke-linejoin:miter;stroke-miterlimit:4;stroke-dasharray:none;stroke-dashoffset:0;stroke-opacity:1"
       d="m -243.63219,-194.11845 c -44.3867,0 -107.95031,63.9257 -107.95031,148.43136 v 148.43193 148.43197 148.43194 h 53.97521 53.9751 53.9754 53.9753 V 251.17681 102.74484 -45.68709 c 0,-84.50566 -63.5637,-148.43136 -107.9507,-148.43136 z m 0.736,21.6953 c 2.7575,-0.0439 5.5273,0.48413 8.1785,1.19771 11.2184,4.38912 21.3489,10.64301 30.3031,18.27681 -1.3298,-0.47819 -2.673,-0.9176 -4.0735,-1.01139 -1.0383,-0.0483 -2.0814,0.27855 -2.9225,0.88586 -4.6261,4.50278 -4.2765,11.70236 -3.9072,17.65425 -0.9269,4.87472 0.3309,9.91233 2.8428,14.15432 0.7104,0.587 0.745,1.12554 0.4886,1.63896 -2.5056,-1.89015 -5.5674,-2.96088 -8.6081,-3.6316 -1.4207,-0.35861 -2.9009,-0.43898 -4.3084,0.0261 -1.7434,0.3986 -3.57,1.22475 -5.3636,0.66051 -1.0673,-0.8422 -0.3372,-2.23548 -0.2416,-3.32256 0.1755,-1.56293 -0.6409,-3.64602 -2.4205,-3.75934 -0.9129,-0.10458 -1.837,0.54592 -1.885,1.49448 -2.0345,5.3106 -4.0145,10.70855 -7.2871,15.39663 -1.822,3.28345 -1.3522,7.19922 -1.1253,10.78602 -0.1357,1.48301 -0.207,3.070002 0.6266,4.38302 1.3124,2.205652 3.4477,3.739881 5.0551,5.71237 3.2669,3.264861 6.1369,6.910973 9.5633,10.018422 0.3684,0.48414 1.5468,0.817999 1.0907,1.579269 -1.2946,1.00434 -3.0517,0.33551 -4.5233,0.19413 -3.3828,-0.939401 -5.0401,-4.309118 -7.6066,-6.415829 -0.3377,-0.344072 -0.658,-0.709091 -0.9724,-1.081661 0.2589,-2.090489 0.056,-4.24933 -1.2942,-5.92772 -0.8873,0.43184 -1.6501,1.009251 -2.3454,1.664631 -0.6951,-0.65538 -1.4579,-1.232791 -2.345,-1.664631 -1.3505,1.67839 -1.5532,3.837231 -1.2943,5.92772 -0.3145,0.37257 -0.6348,0.737589 -0.9723,1.081661 -2.5666,2.106711 -4.224,5.476428 -7.6068,6.415829 -1.4716,0.14138 -3.2287,0.81021 -4.5231,-0.19413 -0.4562,-0.76127 0.7222,-1.095129 1.0906,-1.579269 3.4264,-3.107449 6.2964,-6.753561 9.5632,-10.018422 1.6076,-1.972489 3.7428,-3.506718 5.0553,-5.71237 0.8335,-1.313018 0.7618,-2.90001 0.6264,-4.38302 0.227,-3.5868 0.6968,-7.50257 -1.1252,-10.78602 -3.2726,-4.68808 -5.2526,-10.08603 -7.2872,-15.39663 -0.048,-0.94856 -0.9721,-1.59908 -1.8849,-1.49448 -1.7797,0.11335 -2.5961,2.19641 -2.4206,3.75934 0.096,1.08708 0.8259,2.48036 -0.2415,3.32256 -1.7937,0.56424 -3.6203,-0.26191 -5.3637,-0.66051 -1.4073,-0.46519 -2.8876,-0.38483 -4.3083,-0.0261 -3.0407,0.67072 -6.1026,1.74199 -8.6082,3.63215 -0.2565,-0.51356 -0.2219,-1.05233 0.4887,-1.63951 2.5119,-4.24199 3.7698,-9.2796 2.8428,-14.15432 0.3693,-5.95189 0.719,-13.15147 -3.90711,-17.65425 -0.8412,-0.60731 -1.88419,-0.93413 -2.92259,-0.88586 -1.81201,0.1213 -3.5296,0.8137 -5.2438,1.42978 11.0302,-10.1227 24.0051,-17.72956 39.2179,-19.76626 0.6335,-0.0756 1.2693,-0.1165 1.9057,-0.12665 z m -47.0379,25.74586 c 0.37439,0.99113 1.21,1.75676 2.5688,1.88049 1.18529,0.34629 2.8995,0.10965 3.78399,0.50318 -2.7652,2.99852 -0.37489,7.29063 2.32621,9.37857 1.79779,1.63232 -0.19661,4.16694 -0.20631,6.19437 -0.61609,2.55403 -1.5719,5.33196 -2.622,7.52091 0.31671,-3.43289 -1.5725,-8.22752 -5.43629,-8.46145 -1.10041,-0.31763 -1.70711,2.13382 -2.23121,0.74417 -1.86459,-3.01833 -4.8773,-4.98878 -8.20599,-5.85574 3.12319,-4.11805 6.461,-8.12615 10.0228,-11.9045 z m 92.5153,0.2103 c 3.6462,3.66081 7.0618,7.56153 10.2377,11.66295 -3.3785,0.84964 -6.4441,2.83068 -8.332,5.88699 -0.5241,1.38965 -1.1309,-1.0618 -2.2314,-0.74417 -3.8638,0.23393 -5.753,5.02855 -5.4362,8.46145 -1.0501,-2.18895 -2.006,-4.96688 -2.622,-7.52091 -0.013,-2.02744 -2.0042,-4.56205 -0.2064,-6.19437 2.7011,-2.08794 5.0916,-6.38005 2.3262,-9.37857 0.8846,-0.39347 2.5988,-0.15689 3.784,-0.50318 1.261,-0.11485 2.0708,-0.78269 2.4801,-1.67019 z m -107.5795,19.28541 c 0.3323,0.0199 0.6692,0.10238 1.00359,0.2594 6.26691,1.83654 9.59601,9.2972 6.91801,15.2343 -0.639,1.00608 -1.24301,6.12334 -1.90791,5.30179 -1.32579,-5.45401 -11.41939,-4.52773 -11.2686,1.21277 0.2871,3.91167 6.00631,2.92906 6.57981,6.618871 1.4595,4.912498 -2.18621,9.89353 -3.05311,14.22404 -0.3791,-2.67675 -0.9599,-7.229552 -4.6229,-6.836992 -1.26639,0.112112 -2.78889,0.996611 -2.82219,-0.844029 -0.97231,-2.812709 -3.55861,-4.6986 -6.38291,-5.306819 1.69381,-4.747551 3.6372,-9.411861 5.8592,-13.972441 3.71201,2.78978 9.50471,0.83377 11.316,-3.38391 1.49851,-2.69146 -0.7292,-5.94355 -3.7337,-5.94891 -0.91309,-0.2531 -1.4555,-0.75975 -1.71379,-1.38291 0.082,-0.13445 0.16249,-0.26967 0.24539,-0.40387 1.0238,-1.58659 2.07931,-3.17505 3.16081,-4.75958 0.13979,-0.0137 0.28049,-0.0201 0.4223,-0.0123 z m 122.7324,0 c 0.1968,-0.0123 0.3914,0.003 0.5836,0.0318 1.1213,1.68292 2.206,3.39198 3.2533,5.1255 -0.2551,0.63154 -0.8002,1.1452 -1.722,1.40077 -3.0046,0.006 -5.2324,3.25744 -3.7337,5.9489 1.8115,4.21853 7.6062,6.17449 11.3182,3.38223 2.2336,4.54121 4.2299,9.2017 5.9817,13.945658 -2.8728,0.57872 -5.521,2.481 -6.5078,5.335291 -0.032,1.84063 -1.5557,0.956109 -2.8222,0.844021 -3.663,-0.39257 -4.2438,4.16025 -4.6229,6.836989 -0.8668,-4.330499 -4.5126,-9.311539 -3.0531,-14.224029 0.5737,-3.6898 6.2928,-2.70723 6.5798,-6.61889 0.1508,-5.74049 -9.9427,-6.66677 -11.2684,-1.21275 -0.6649,0.82155 -1.269,-4.2957 -1.908,-5.3018 -2.6781,-5.9371 0.651,-13.39776 6.9179,-15.23429 0.3343,-0.15696 0.6714,-0.23951 1.0036,-0.25941 z m -81.244,10.71908 c 3.0341,0.0328 6.1959,0.81427 8.7515,2.53263 2.6973,1.76946 4.0104,5.14943 3.8564,8.30302 0.133,1.39443 -0.3707,2.90471 0.3291,4.20172 0.5346,1.768861 -0.3328,3.7744 -1.6875,4.95817 -0.5344,0.713869 -1.1858,-0.121849 -1.2393,-0.701781 0.5111,-3.919279 -0.5494,-8.322309 -3.7326,-10.887539 -1.9595,-1.56697 -4.346,-3.36456 -7.0173,-2.86959 -1.3685,0.15044 -2.1412,1.61184 -1.8927,2.88521 0.7283,3.88956 3.2295,7.10499 4.7616,10.681699 1.9936,4.266851 0.751,9.80535 -2.8573,12.857311 -0.9027,0.615 -1.9376,1.62574 -3.1133,1.27635 -1.5504,-0.98393 -1.603,-2.98169 -2.3183,-4.504079 -0.5176,-1.569561 -2.1937,-2.63612 -3.8348,-2.31285 -1.3804,-0.0333 -2.81891,0.226319 -3.9768,1.04208 -0.763,0.49271 -1.61701,1.237149 -1.92181,2.125398 -0.90829,-0.155559 -1.77189,-0.266258 -2.3793,-0.534979 0.15021,-3.558141 -4.32559,-4.400699 -7.0457,-4.155419 -4.04559,0.484809 -7.00899,3.778789 -9.6808,6.41359 1.087,-5.449761 7.3827,-10.601622 12.88751,-8.04028 2.13909,2.084789 6.6006,2.376209 7.599,-1.032032 0.4978,-1.1792 0.54129,-2.406988 0.2516,-3.550139 0.051,0.0672 0.1,0.136231 0.15399,0.202491 1.54291,1.753629 3.43131,3.5428 5.85791,3.834098 1.36,0.10759 3.1081,0.11375 3.9903,-1.113459 0.6991,-0.93132 0.1511,-2.100659 -0.512,-2.874039 -2.0043,-2.448401 -4.7494,-4.522921 -5.7387,-7.628031 -0.5561,-1.57019 0.1015,-3.16073 0.7101,-4.60337 1.4052,-4.04186 5.6611,-6.44628 9.7992,-6.50618 z m 39.7557,0 c 4.1382,0.0598 8.3939,2.46432 9.7992,6.50618 0.6081,1.44264 1.2663,3.03318 0.7101,4.60337 -0.9894,3.10511 -3.7345,5.17963 -5.7386,7.628031 -0.6631,0.77338 -1.2112,1.942719 -0.5121,2.874039 0.8822,1.22723 2.6302,1.22097 3.9903,1.113459 2.4266,-0.291298 4.315,-2.080469 5.8579,-3.834098 0.053,-0.0663 0.1015,-0.135422 0.1539,-0.202491 -0.2898,1.14314 -0.2462,2.370939 0.2517,3.550139 0.9984,3.408241 5.4599,3.116821 7.599,1.032032 5.5047,-2.561342 11.8003,2.59053 12.8875,8.04028 -2.6719,-2.634801 -5.6352,-5.928781 -9.6809,-6.41359 -2.7202,-0.24528 -7.1964,0.597278 -7.0463,4.155419 -0.6074,0.268721 -1.4702,0.37942 -2.3785,0.534979 -0.3048,-0.888249 -1.1589,-1.632688 -1.9219,-2.125398 -1.158,-0.815761 -2.5963,-1.075441 -3.977,-1.04208 -1.641,-0.32327 -3.3169,0.743289 -3.8345,2.31285 -0.7154,1.522389 -0.7681,3.520138 -2.3185,4.504079 -1.1756,0.34939 -2.2105,-0.66135 -3.1133,-1.27635 -3.6083,-3.051969 -4.8509,-8.59046 -2.8573,-12.857311 1.5323,-3.576709 4.0334,-6.792139 4.7617,-10.681699 0.2485,-1.27337 -0.5241,-2.73477 -1.8927,-2.88521 -2.6712,-0.49498 -5.0578,1.30262 -7.0172,2.86959 -3.1832,2.56523 -4.2438,6.96826 -3.7326,10.887539 -0.053,0.579892 -0.7051,1.41565 -1.2395,0.701781 -1.3547,-1.18377 -2.222,-3.189309 -1.6875,-4.95818 0.6999,-1.297 0.1963,-2.80728 0.3292,-4.20171 -0.1539,-3.15359 1.1591,-6.53356 3.8563,-8.30302 2.5558,-1.71836 5.7175,-2.49978 8.7516,-2.53263 z m -56.9933,6.93405 c -0.3824,2.92793 -0.013,5.95783 1.1514,8.65168 -1.3805,-1.33368 -3.3211,-2.08679 -5.3335,-1.68972 -1.05931,-0.22194 -3.62,0.61392 -2.0272,-0.79716 1.7252,-2.17273 3.7117,-4.80595 6.2093,-6.1648 z m 74.2308,0 c 2.4978,1.35883 4.4842,3.99207 6.2094,6.1648 1.5929,1.41108 -0.968,0.57522 -2.0272,0.79716 -2.0125,-0.39707 -3.9531,0.35604 -5.3335,1.68972 1.1618,-2.69385 1.5339,-5.72375 1.1513,-8.65168 z m 42.9633,21.28139 c 1.9079,6.406171 3.3819,12.915889 4.3998,19.443829 0.9703,35.596812 1.5278,71.1997618 1.8308,106.80635 -8.7682,-11.656068 -19.8375,-21.489027 -32.5253,-28.8156972 4.5636,1.7473802 9.308,2.3175702 14.1275,1.0454012 6.0824,-1.1621012 12.5256,-2.7778822 17.5505,-6.4604512 1.2873,-2.254051 -1.7443,-3.03826001 -3.2718,-3.39229201 -0.5755,-4.39823999 -0.2214,-11.44599879 -5.4965,-12.81487879 -4.4082,-0.39424 -2.9466,4.9649088 -3.2573,7.5175608 -3.3289,6.645 -12.5098,6.118199 -18.6499,4.58829899 -4.6366,-1.33138099 -10.0625,-5.31950099 -12.6716,-7.66595099 5.0588,3.176252 12.6147,7.12662099 18.052,2.685482 2.1433,-2.32622 -2.3797,-4.216001 -1.4732,-6.0526798 3.0427,-2.722131 8.5401,-0.685901 9.8939,-5.536081 4.1393,-3.758541 4.5802,-9.290031 3.8971,-14.44439 1.3399,-5.766681 -4.6362,-9.230871 -8.0487,-12.60793 -0.9078,-0.301781 -1.8431,-0.517591 -2.7898,-0.653809 0.9626,-0.765572 1.8665,-1.608842 2.6967,-2.52707 8.2568,-8.62847 7.5035,-21.454642 9.551,-32.397621 0.051,-4.050101 2.9274,-6.841141 6.1848,-8.718071 z m -159.9487,0.121571 c 3.1705,1.87534 5.92539,4.633068 5.97619,8.596468 2.0476,10.942982 1.2942,23.769151 9.55091,32.397632 0.83029,0.91822 1.7342,1.76149 2.69669,2.527069 -0.9467,0.13624 -1.88179,0.352031 -2.7897,0.653802 -3.4124,3.37707 -9.38849,6.841249 -8.0488,12.60793 -0.68309,5.154358 -0.24209,10.685849 3.89721,14.44439 1.35369,4.850188 6.8511,2.81396 9.8939,5.536099 0.90659,1.8366608 -3.6166,3.7264398 -1.47311,6.0526588 5.43731,4.44114199 12.9931,0.49077 18.05191,-2.685468 -2.6093,2.346439 -8.0351,6.334569 -12.67151,7.66593999 -6.14029,1.52990001 -15.3211,2.05670901 -18.65,-4.58830099 -0.311,-2.55265 1.1509,-7.9117988 -3.25729,-7.5175588 -5.27511,1.36888 -4.92101,8.4166288 -5.49661,12.81487879 -1.5273,0.354039 -4.559,1.13825101 -3.2717,3.39230001 5.0249,3.682571 11.46811,5.298339 17.55051,6.4604402 4.81939,1.27218 9.564,0.702 14.12749,-1.0454012 -12.7122,7.3407222 -23.7998,17.1971922 -32.5761,28.8826292 V -4.5814502 c -1.7543,-27.6342598 -1.1991,-56.6636188 6.49001,-83.5440388 z m 79.8699,8.084349 c 1.6408,1.07923 3.923,1.54659 4.8183,3.4598 0.016,0.471029 -0.716,0.586099 -0.9439,0.954471 -1.3101,1.042868 -2.8259,2.1283 -3.8744,3.496598 -1.0483,-1.368298 -2.564,-2.45373 -3.8741,-3.496598 -0.228,-0.368372 -0.9603,-0.483442 -0.9439,-0.954471 0.8953,-1.91321 3.1775,-2.38057 4.818,-3.4598 z m -43.16511,0.619231 c 2.3851,-0.0276 4.6433,0.482128 5.5338,3.066488 0.8748,2.35593 3.75211,4.432681 6.04101,3.16747 -0.1641,0.703842 -0.294,1.415651 -0.37251,2.137672 -0.15249,1.674249 -0.32849,3.345908 -0.51609,5.016188 -1.8122,-1.791449 -4.0126,-3.222778 -6.2976,-4.256939 -1.9245,-2.168261 -6.12511,-3.85381 -8.0236,-0.73414 -2.63541,4.421439 -7.89571,8.847659 -6.27741,14.536981 1.06661,5.876089 9.26481,8.300869 13.3526,3.94565 1.62081,-1.380879 2.14,-4.294071 1.98871,-5.799392 2.93109,4.565063 -1.8996,11.22721 -7.1895,10.209213 -8.69071,-0.122812 -14.03201,-9.776262 -12.8038,-17.697223 0.13709,-4.74263 2.97709,-8.66158 6.5498,-11.541329 1.025,-1.35233 2.1602,-2.127959 3.8525,-1.752761 1.25419,-0.0712 2.7311,-0.281318 4.16209,-0.297878 z m 86.33051,0 c 1.4309,0.0164 2.908,0.226628 4.162,0.297878 1.6925,-0.375198 2.8277,0.400431 3.8527,1.752761 3.5725,2.879749 6.4131,6.798699 6.5496,11.541329 1.2282,7.920961 -4.113,17.574451 -12.8037,17.697223 -5.2899,1.017997 -10.1207,-5.64415 -7.1896,-10.209213 -0.1512,1.505321 0.3681,4.418513 1.9887,5.799392 4.0879,4.355219 12.286,1.930439 13.3527,-3.94565 1.6183,-5.689322 -3.642,-10.115542 -6.2775,-14.536981 -1.8985,-3.11967 -6.099,-1.434121 -8.0236,0.73414 -2.2848,1.034161 -4.4854,2.46549 -6.2975,4.256939 -0.1877,-1.67028 -0.3636,-3.341939 -0.516,-5.016188 -0.079,-0.722021 -0.2085,-1.43383 -0.3727,-2.137672 2.2889,1.265211 5.1663,-0.81154 6.041,-3.16747 0.8906,-2.584349 3.1489,-3.094098 5.5339,-3.066488 z m -57.1684,4.139239 c 1.8445,0.01241 3.7256,0.16896 5.418,0.95726 2.7968,1.557599 3.7224,5.074049 3.4156,8.057031 0.037,1.980149 -1.4133,3.46987 -2.3135,5.098169 -0.6185,0.887449 -0.8499,2.37609 0.2121,3.034109 1.484,0.518282 3.1916,0.556512 4.6936,0.0547 1.1034,-0.424432 1.9496,-1.190022 2.5772,-2.128203 0.6279,0.938181 1.4741,1.703771 2.5774,2.128203 1.5022,0.501809 3.2098,0.463558 4.6937,-0.0547 1.0618,-0.658019 0.8307,-2.14666 0.212,-3.034109 -0.9,-1.628299 -2.3508,-3.11802 -2.3134,-5.098169 -0.3068,-2.982982 0.6189,-6.499432 3.4157,-8.057031 2.2564,-1.051071 4.8479,-0.977681 7.2421,-0.94053 2.4991,0.164999 4.9219,1.15444 6.785,2.834431 0.9644,0.738428 2.2922,1.422508 2.7726,2.509768 -1.2622,0.11212 -2.3823,-0.674949 -3.572,-1.035378 -2.8434,-1.182992 -6.1029,-2.35404 -9.1547,-1.218901 -1.3629,0.47248 -2.362,2.001891 -1.825,3.42409 0.6734,2.40969 3.2136,3.969559 5.6607,3.80285 3.1649,0.17703 6.5319,-0.478779 9.5068,0.901491 0.997,0.49583 1.9886,1.326018 2.2884,2.401539 -1.612,0.172 -3.2012,-0.784511 -4.807,-0.42173 -1.1231,0.572219 -1.6984,2.25035 -0.6421,3.17246 1.3469,1.5167 3.5101,2.208101 4.4265,4.11752 1.1379,1.83179 1.3792,4.51317 -0.06,6.246759 -1.5339,1.178463 -3.4747,0.0904 -5.091,-0.314618 -1.905,-0.59731 -4.2052,-1.318311 -6.0425,-0.166791 -1.2924,0.855461 -1.6925,2.664931 -0.9165,4.000341 1.1894,2.56186 4.2151,3.498099 6.8246,3.74372 0.5356,0.0564 1.0744,0.0889 1.6134,0.0803 2.4701,-0.459971 4.2918,-2.488822 5.6985,-4.44046 0.3817,-0.530561 0.7476,-1.08 1.1172,-1.628931 0.1418,0.86746 0.1557,1.741929 -0.046,2.628019 -2.8593,3.113471 0.5809,9.2057 4.7574,7.665421 2.028,-2.669371 5.6098,-3.174061 8.8013,-2.87237 0.9863,0.157589 1.978,0.243009 2.9683,0.26329 -0.778,0.860351 -1.4317,1.81996 -1.9179,2.87515 0.9041,2.995631 -2.2089,10.0359 2.4316,9.3228 3.344,-0.83721 7.0767,0.468051 7.2961,4.52583 1.3126,0.65744 2.1118,-5.789091 3.7464,-7.615769 1.4781,-3.879271 5.7795,-0.744432 5.2522,2.462898 0.4263,6.693791 -6.1676,9.661811 -11.6764,10.81446 -4.7287,1.337342 -10.0884,0.709771 -14.5202,-1.13856 1.8838,-3.85548 4.755,-7.963109 2.7452,-12.472401 -3.578,3.235442 -8.4951,6.918482 -13.4559,4.240782 -7.2311,-2.08774 -14.4288,-9.226122 -22.3654,-5.518809 -1.6978,0.256569 -3.3369,1.163328 -4.4264,2.457328 -1.0895,-1.294 -2.7284,-2.200759 -4.4265,-2.457328 -7.9364,-3.707313 -15.1343,3.431069 -22.3653,5.518809 -4.9607,2.6777 -9.8778,-1.00534 -13.4558,-4.240782 -2.00981,4.509292 0.8613,8.616921 2.74499,12.472401 -4.4318,1.848331 -9.7913,2.475902 -14.52019,1.13856 -5.5086,-1.152649 -12.10261,-4.120669 -11.6763,-10.81446 -0.5275,-3.20733 3.77399,-6.342169 5.25209,-2.462898 1.6349,1.826649 2.43381,8.273209 3.7467,7.615769 0.21941,-4.057779 3.95191,-5.36304 7.296,-4.52583 4.64031,0.7131 1.52731,-6.32719 2.4316,-9.3228 -0.48619,-1.05519 -1.14,-2.014799 -1.91789,-2.87515 0.9901,-0.02029 1.9821,-0.10567 2.9684,-0.26329 3.19139,-0.301691 6.77319,0.202999 8.8012,2.87237 4.1764,1.540279 7.6166,-4.55195 4.7572,-7.665421 -0.2025,-0.88609 -0.1884,-1.760559 -0.047,-2.628019 0.3697,0.548931 0.7356,1.09837 1.1173,1.628931 1.4068,1.951638 3.2282,3.980489 5.6984,4.44046 0.5389,0.009 1.0777,-0.02381 1.6134,-0.0803 2.6095,-0.245621 5.6351,-1.18186 6.8247,-3.74372 0.7757,-1.33541 0.376,-3.14488 -0.9165,-4.000341 -1.8375,-1.15152 -4.1376,-0.430519 -6.0426,0.166791 -1.6163,0.405101 -3.5572,1.493081 -5.091,0.314618 -1.4389,-1.733589 -1.1976,-4.414969 -0.059,-6.246759 0.9162,-1.909419 3.0795,-2.60082 4.4265,-4.11752 1.0561,-0.92211 0.4808,-2.600241 -0.6421,-3.17246 -1.6058,-0.362781 -3.195,0.59373 -4.807,0.42173 0.2999,-1.07551 1.2914,-1.905709 2.2884,-2.401539 2.9747,-1.38027 6.3417,-0.724461 9.5067,-0.901491 2.4471,0.166709 4.9874,-1.39316 5.6605,-3.80285 0.5372,-1.422199 -0.4619,-2.95161 -1.8246,-3.42409 -3.0518,-1.135139 -6.3116,0.0359 -9.1548,1.218901 -1.1897,0.360429 -2.3098,1.147448 -3.572,1.035378 0.4803,-1.08726 1.8082,-1.77134 2.7725,-2.509768 1.8631,-1.679991 4.2859,-2.669432 6.7852,-2.834431 0.5985,-0.01 1.2092,-0.02109 1.824,-0.01669 z m 0.3387,51.654051 c 1.4527,-0.0445 3.1285,1.67494 4.1671,2.970509 2.1425,3.56344 7.2176,2.930941 9.4972,0.180771 2.28,2.75017 7.3549,3.382669 9.4975,-0.180771 1.5825,-1.97422 4.6448,-4.9325 6.143,-1.134099 4.5443,4.738899 8.4419,12.3517208 6.5815,18.8915588 -7.1744,-1.509199 -14.6075,-2.305039 -22.222,-2.305039 -7.6143,0 -15.0472,0.79584 -22.2218,2.305039 -1.8602,-6.539838 2.0372,-14.1526598 6.5815,-18.8915588 0.5151,-1.305679 1.2148,-1.813129 1.976,-1.83641 z m -17.4351,16.0197198 c 0.3902,-0.0966 -0.4841,2.319131 -0.4406,3.27961 -0.2413,1.290371 -0.2006,2.58017 0.066,3.81121999 -2.7263,0.83352 -5.4079,1.77052001 -8.0386,2.80989101 2.838,-2.63322101 5.2953,-5.77792 7.5209,-8.819602 0.4919,-0.737399 0.7625,-1.048909 0.8925,-1.081119 z m 62.1992,0 c 0.1301,0.0322 0.4005,0.34372 0.8925,1.081119 2.2256,3.041682 4.6829,6.18638099 7.5209,8.819602 -2.6308,-1.039371 -5.3124,-1.97637101 -8.0386,-2.80989101 0.2662,-1.23104999 0.307,-2.52084899 0.066,-3.81121999 0.044,-0.960479 -0.8309,-3.376231 -0.4406,-3.27961 z m -19.0836,24.8231712 c 27.9823,3.867938 51.6071,21.054247 64.3065,44.992757 -4.4251,-0.12158 -8.8209,1.59035 -11.4777,5.44571 -4.0378,5.2742 -2.5205,15.01123 4.7323,16.41024 3.6273,1.0169 9.6324,-2.08322 7.4194,-6.30031 -1.4273,-2.13452 -4.4907,-1.41192 -6.2848,-2.73682 1.0166,-5.11362 8.0401,-2.7414 9.3116,1.03034 3.1294,7.64061 -5.2122,14.04321 -12.108,14.63686 -11.1101,0.82528 -22.1321,-2.54265 -32.1958,-6.99768 5.288,-4.05386 11.9763,-6.57106 15.5267,-12.56834 6.5664,-7.77725 8.8802,-19.4751 3.6952,-28.5758 -3.279,-8.44044 -11.7406,-15.347939 -21.1609,-14.082357 -3.7455,0.12596 -7.6375,1.98407 -10.6627,3.327007 -1.9634,-5.830167 -5.9525,-11.163468 -11.1018,-14.581607 z m -25.1784,0.159549 c -5.1676,3.6708 -8.8061,9.485471 -8.9157,15.892558 -10.4576,-7.757827 -26.49511,-1.66123 -31.7818,9.55654 -6.77681,12.36288 -1.4591,28.38296 9.46059,36.495 2.5669,2.1635 5.67231,3.99153 8.40911,5.63377 -5.3027,3.64821 -12.11001,3.77397 -17.9979,6.11066 -7.9999,2.2729 -18.8921,2.14731 -23.60321,-5.97622 -2.37939,-4.09072 -0.086,-11.92684 5.2795,-11.69757 2.73851,1.99993 -0.2083,6.53938 -3.18799,6.46437 -2.398,0.18222 -3.67781,3.56267 -1.0601,4.50575 4.5507,2.49412 10.8937,1.79369 13.6634,-2.99122 5.07479,-7.26718 -1.7604,-17.1494 -9.83261,-17.87792 -1.4561,-0.20913 -2.9028,-0.16803 -4.30499,0.0804 12.34859,-24.31804 35.8634,-41.943158 63.8717,-46.196028 z m 13.0664,6.657911 c 0.4359,-0.005 0.8707,0.009 1.3026,0.0402 8.5056,0.468702 13.0455,9.876077 10.7653,17.437777 -1.4927,6.88454 -5.821,13.47636 -11.413,17.44451 -9.7629,-6.70335 -15.0273,-21.12499 -9.0176,-31.785656 2.2233,-2.158579 5.3111,-3.10283 8.3627,-3.136821 z m 32.6648,15.306297 c 0.137,-0.005 0.2728,-0.003 0.4067,0.009 9.7129,-0.23618 16.0303,11.31334 12.2704,19.86611 -3.7422,9.20156 -13.4661,13.81862 -21.861,17.84058 -2.5587,-0.005 -4.0492,-3.07088 -6.5892,-3.69742 -2.7419,-1.7122 -7.4191,-3.3266 -7.6443,-6.93743 2.659,-2.97072 5.29,-5.98732 6.7305,-9.80417 0.7432,-1.12377 1.7493,-4.93795 3.1034,-2.41551 5.4738,5.46763 17.3069,4.3582 19.8036,-3.5535 0.6692,-3.24425 -1.0179,-6.44086 -3.0537,-8.85307 -3.4486,1.05138 -3.7,5.84298 -6.8041,6.86212 -5.9756,-1.87921 -0.603,-9.16189 3.6377,-9.31552 z m -65.62541,1.91844 c -3.4281,3.62494 -6.4726,9.61667 -2.8444,14.1766 4.79461,5.51001 14.61581,3.98123 18.77721,-1.61161 2.2147,4.66856 5.1037,9.25856 8.8989,12.63415 -1.712,3.97865 -6.9399,5.0185 -9.8238,8.1223 -2.8218,2.88658 -7.3464,4.59938 -10.8105,1.72432 -8.6754,-4.3983 -18.2664,-12.62147 -16.9128,-23.35827 0.93909,-6.20002 6.34869,-11.79112 12.71539,-11.68749 z m 2.63201,0.23038 c 3.2661,0.40465 8.0552,5.60438 4.0176,7.9577 -2.5377,1.25653 -5.0522,-1.27211 -3.7074,-3.79839 0.1302,-1.33683 0.4246,-3.04246 -0.3102,-4.15931 z m 30.0664,34.16323 c 4.3262,0.93861 7.4717,5.26648 10.5724,7.50753 -6.8257,-2.97754 -15.0268,-1.8296 -20.824,2.79873 -1.8551,0.59939 -4.2806,-1.39761 -1.3289,-2.34352 3.8783,-2.56841 7.7263,-5.60803 11.5805,-7.96274 z m 23.8988,15.57348 c 0.4921,0.20804 0.9841,0.41624 1.476,0.62423 6.8903,2.88859 13.8756,5.62595 21.1297,7.46514 -7.1253,1.990751 -13.756,5.610701 -20.7815,7.665961 -3.297,0.32425 -6.1804,-2.5382 -5.1272,-5.82223 -0.04,-3.221201 -1.2563,-9.382211 3.303,-9.933101 z m -109.30171,1.30816 c 2.3072,3.12311 5.3848,5.73219 8.7244,7.593461 -3.348,1.84525 -6.5991,4.33027 -9.1974,7.3067 -0.082,-1.55178 -0.126,-3.11417 -0.126,-4.68706 0,-3.457181 0.2073,-6.864011 0.599,-10.213101 z m 60.74371,0.10882 c 0.2487,-0.003 0.4973,-2.4e-4 0.7459,0.01 2.528,0.24871 5.8304,0.73052 7.5443,2.35802 -1.793,3.55918 1.0115,8.551731 -2.1694,11.313741 -2.6074,0.93671 -5.185,4.52422 -7.8959,1.79015 -6.38391,-2.96736 -12.9875,-5.45457 -19.71551,-7.52147 6.64161,-2.013321 12.94271,-5.068811 19.26491,-7.736281 0.7347,-0.12965 1.4797,-0.20276 2.2257,-0.21363 z m 110.8698,0.69509 c 0.3324,3.09009 0.5083,6.22831 0.5083,9.409211 0,0.71983 -0.014,1.43725 -0.028,2.15273 -1.2351,-1.29815 -2.6639,-2.4162 -4.2747,-3.28514 -0.9842,-1.04595 -4.8172,-2.143261 -2.1427,-3.083801 2.2084,-1.36226 4.2225,-3.14172 5.9367,-5.193 z m -22.0457,13.820141 c 1.7258,-0.0124 3.463,0.12403 5.2126,0.44571 6.9577,0.9634 14.1392,9.2202 10.0657,16.02925 -1.4163,1.78814 -3.1221,4.68842 -5.7931,2.61684 -1.9397,-0.684 -2.508,-3.81191 0.079,-3.47705 3.5701,-0.65336 5.2553,-5.96834 1.4771,-7.63751 -6.72,-3.73002 -15.1808,4.41893 -12.3457,11.39462 1.8812,7.44524 10.3717,10.76404 17.4211,9.07174 -11.1866,27.30241 -35.9225,47.52272 -65.9267,52.37922 4.6749,-3.04329 8.3055,-7.60015 9.7049,-13.17749 0.7543,-0.91395 -0.2019,-4.76584 1.4293,-3.26171 11.0635,6.36625 27.4347,0.98878 31.8665,-11.23066 6.1713,-12.97609 0.056,-28.55254 -10.2058,-37.55549 -2.8976,-3.0517 -7.894,-5.50108 -10.005,-8.2305 8.7225,-2.90917 17.7009,-7.30162 27.02,-7.36697 z m -127.4077,1.29698 c 0.5701,0.0124 1.1349,0.0564 1.69079,0.13338 9.1549,0.47098 18.8371,4.5566 26.54981,8.1357 -6.1927,3.9579 -13.56391,6.92467 -17.2705,13.71415 -7.864,10.43209 -8.939,27.06333 1.2636,36.38957 5.9446,5.81036 15.5223,9.47976 23.4872,5.94223 1.5554,-0.77904 3.1362,-2.33024 4.4152,-2.97609 0.5952,6.82538 4.1131,13.94746 9.5983,18.20876 -29.1428,-4.67149 -53.33501,-23.83319 -64.9939,-49.90968 4.43159,0.95515 9.1225,0.0806 12.51819,-3.43469 5.0673,-4.96168 3.886,-15.56226 -3.63889,-17.31843 -3.28511,-1.24299 -9.21791,0.99856 -7.23681,5.26277 0.9394,2.66237 6.83141,1.69778 5.6364,5.06749 -2.47239,3.64939 -10.1659,1.58109 -8.7683,-3.29298 -1.5311,-9.24886 8.1976,-16.11299 16.74891,-15.92212 z m 51.3467,5.84629 c 5.1096,5.2278 13.1087,7.40714 19.9554,4.48178 1.4339,-0.51382 4.0966,-2.15869 1.5664,-0.5021 -3.4105,2.01379 -5.7579,5.70081 -9.1911,7.42497 -3.5426,-1.32059 -5.6819,-5.09172 -9.4534,-6.20942 -1.8614,-0.5764 -6.6165,-4.03413 -2.8773,-5.19523 z m 37.8896,7.1198 0.4624,0.29845 c 8.8484,5.20092 17.996,11.71171 21.2699,21.9564 3.1391,8.49778 -3.2536,20.33987 -13.1509,19.0985 -5.4148,0.1678 -10.0415,-8.94818 -4.4449,-11.70758 3.3429,-1.58207 1.6264,3.23829 3.0169,4.98272 2.12,3.85931 7.3442,0.47249 7.4735,-3.02686 1.202,-5.72085 -4.268,-10.87975 -9.8918,-10.12275 -4.1307,0.005 -8.3622,1.95493 -10.8429,5.16123 -3.6893,-4.56647 -5.7841,-11.50216 -10.6946,-14.46559 5.8246,-3.81823 10.2434,-9.50659 16.8024,-12.17452 z m -49.9777,2.00269 c 0.1084,-0.003 0.2185,10e-5 0.3285,0.003 6.3724,1.6133 10.7527,7.4749 15.6176,11.15142 -2.2561,5.56548 -7.2145,9.34424 -10.2683,14.41315 -3.171,-4.02325 -8.4874,-7.00775 -13.5981,-5.13556 -6.5733,-0.42693 -10.1879,10.42977 -4.2413,13.47372 3.54749,0.91321 4.6734,-3.71443 6.8152,-5.11434 4.0875,2.45755 2.9586,9.92169 -2.2074,10.13777 -7.6079,2.10955 -15.54421,-4.15689 -15.6232,-11.9095 -1.10161,-9.83155 6.40849,-17.98842 14.35629,-22.56891 2.66701,-1.79948 5.44681,-4.3928 8.82071,-4.4505 z m 25.265,17.68049 c 4.3804,2.80958 5.8605,8.27214 8.8319,12.31617 4.4827,7.6799 5.6673,19.41264 -2.5544,24.97156 -6.3478,4.44285 -17.6156,2.2906 -18.997,-6.2702 -2.2933,-10.89396 3.6251,-21.77791 10.4932,-29.81317 0.6285,-0.56211 1.3654,-1.10117 2.2263,-1.20436 z m 85.6265,26.06548 c -0.086,32.13994 -0.2281,64.28097 -0.3212,96.42091 -4.0245,-0.29845 -8.3859,1.97141 -9.7631,5.95501 -0.035,1.99525 -1.6865,1.0364 -3.0592,0.91487 -3.9706,-0.42553 -4.6002,4.50998 -5.0112,7.41159 -0.9397,-4.69426 -4.8918,-10.09383 -3.3097,-15.41896 0.6219,-3.99974 6.8216,-2.93423 7.1328,-7.17447 0.1634,-6.22271 -10.7781,-7.22702 -12.2153,-1.31488 -0.7207,0.89059 -1.376,-4.65695 -2.0684,-5.74754 -2.9032,-6.4358 0.7062,-14.52261 7.4995,-16.51341 3.8656,-1.81481 8.038,5.53632 3.3801,6.82749 -3.2569,0.005 -5.6718,3.53065 -4.0472,6.44821 2.1146,4.92403 9.2366,7.00895 13.1541,2.88068 6.2138,-5.78149 4.1728,-16.43367 -2.1348,-21.34605 -6.73,-6.16344 -18.7683,-4.83537 -23.625,3.02688 -0.5682,1.50636 -1.2253,-1.15096 -2.4182,-0.80666 -4.1883,0.25361 -6.2365,5.45092 -5.8933,9.17213 -1.1382,-2.37279 -2.1739,-5.3838 -2.8417,-8.15234 -0.013,-2.19779 -2.1729,-4.94544 -0.2242,-6.71486 2.9281,-2.2633 5.5196,-6.91642 2.5221,-10.1668 0.9587,-0.42654 2.8172,-0.16968 4.1018,-0.54499 3.8825,-0.35354 3.8299,-5.53831 1.0472,-7.30227 -2.7286,-0.0494 -5.301,-1.46153 -7.9979,-2.20352 18.4326,-7.48531 34.3516,-19.923 46.0928,-35.65102 z m -172.90921,0.25215 c 11.72281,15.60877 27.5698,27.95362 45.90361,35.39887 -2.697,0.74199 -5.2691,2.15421 -7.9977,2.20352 -2.7828,1.76396 -2.8355,6.94873 1.04699,7.30227 1.28481,0.37531 3.14301,0.1184 4.10191,0.54499 -2.99751,3.25038 -0.4059,7.90344 2.5219,10.1668 1.9489,1.76942 -0.2135,4.51707 -0.2241,6.71486 -0.6678,2.76854 -1.70351,5.779 -2.84181,8.15181 0.3434,-3.72126 -1.7047,-8.91799 -5.89299,-9.1716 -1.19301,-0.3443 -1.8502,2.31302 -2.4183,0.80666 -4.8567,-7.86225 -16.89511,-9.19032 -23.6249,-3.02688 -6.30771,4.91238 -8.34861,15.56456 -2.13481,21.34605 3.9173,4.12827 11.03931,2.04335 13.15401,-2.88068 1.6245,-2.91756 -0.7904,-6.44241 -4.04721,-6.44821 -4.6579,-1.29117 -0.4855,-8.6423 3.38,-6.82749 6.79331,1.9908 10.4028,10.07761 7.49971,16.51341 -0.6927,1.09059 -1.34781,6.63813 -2.0685,5.74754 -1.4372,-5.91214 -12.3787,-4.90839 -12.21531,1.3143 0.3111,4.24023 6.5108,3.17531 7.13271,7.17505 1.5821,5.32513 -2.37,10.7247 -3.3098,15.41896 -0.41091,-2.90161 -1.0404,-7.83712 -5.011,-7.41159 -1.37281,0.12158 -3.0233,1.08038 -3.0593,-0.91487 -1.39241,-4.02725 -5.83461,-6.30383 -9.89511,-5.94501 z m 53.1731,38.05031 c 3.66281,1.18745 7.41061,2.1831 11.23161,2.97669 -1.2702,1.006 -2.6073,1.90929 -4.1893,2.34911 -1.3059,7.42905 -2.5144,14.87715 -3.8018,22.30728 -0.2463,2.21935 0.2076,4.45519 0.014,6.66575 -0.1862,1.18677 -0.729,2.48285 -1.6848,3.25115 -0.1551,-0.34666 -0.36031,-0.68408 -0.62661,-1.00467 -0.8199,-1.31631 -3.4572,-2.58763 -1.5261,-4.18336 2.72291,-4.59832 4.08581,-10.05887 3.08101,-15.34308 0.3464,-5.58427 0.6747,-12.18065 -2.49421,-17.01887 z m 29.61781,5.16517 c 1.1853,0.0388 2.3748,0.0601 3.569,0.0601 1.1945,0 2.384,-0.0214 3.5693,-0.0601 -0.3232,2.10568 1.3863,4.28686 3.53,4.40528 2.3926,0.16352 4.4641,-1.31003 6.3528,-2.57836 1.0746,-0.66755 2.2308,-1.74625 3.6037,-1.39518 1.5995,1.08633 2.0437,3.26954 1.6624,5.05357 -0.2833,2.22269 -2.2557,3.62289 -3.2276,5.52048 -0.9718,1.47939 0.063,3.58352 1.6746,4.06337 1.5231,0.34589 2.8892,-0.68697 4.1826,-1.31932 -0.2329,0.49786 -0.5885,0.92887 -0.9879,1.30259 -2.4455,2.1526 -5.8369,2.53193 -8.8474,3.50105 -1.5959,0.35806 -3.0586,1.32019 -4.0406,2.62692 0,-0.0293 0,-0.0587 0,-0.0882 -0.1664,-2.35924 -1.4306,-4.76213 -3.6521,-5.76982 -1.0615,-0.46088 -2.2474,-0.85024 -3.4214,-0.84072 -0.1611,-0.005 -0.3215,0 -0.482,0.0124 -1.2719,-0.0884 -2.5718,0.3283 -3.7247,0.82897 -2.2218,1.00769 -3.486,3.41055 -3.6522,5.76982 0,0.0293 0,0.0587 0,0.0882 -0.982,-1.30675 -2.4445,-2.26883 -4.0405,-2.62694 -3.0106,-0.96912 -6.4019,-1.3484 -8.8475,-3.50105 -0.3642,-0.34078 -0.6871,-0.73205 -0.9188,-1.17536 1.0729,0.55642 2.1979,1.30324 3.4236,1.25738 0.2265,0.005 0.4564,-0.0122 0.6899,-0.0653 1.6123,-0.47987 2.6464,-2.58394 1.6748,-4.06336 -0.972,-1.89757 -2.9445,-3.29777 -3.2278,-5.52048 -0.3813,-1.78406 0.063,-3.96724 1.6624,-5.05359 0.1511,-0.0386 0.2992,-0.0571 0.4452,-0.0636 1.1062,0.0404 2.0729,0.89461 2.9812,1.45875 1.802,1.21015 3.7714,2.60313 6.0265,2.58676 0.1664,0.005 0.3341,0.005 0.5037,-0.009 2.1438,-0.1184 3.8532,-2.2996 3.5301,-4.40531 z m 23.4363,23.82403 c 0.025,0 -0.032,0.0824 -0.2292,0.30234 -0.7701,1.06813 -1.5017,2.18874 -2.5416,3.02469 -1.6,1.42452 -3.6337,2.21298 -5.695,2.68941 -1.9602,0.51724 -4.1714,0.98253 -6.103,0.048 0,-0.005 -0.013,-0.007 -0.019,-0.0109 0.1814,-0.30948 0.3388,-0.63614 0.45911,-0.98626 0.29229,-0.78423 0.593,-1.57988 0.86529,-2.38482 0.15351,0.29644 0.353,0.57033 0.6047,0.80613 0.9516,1.0119 2.4082,1.29659 3.7421,1.15583 3.2271,-0.27683 5.9426,-2.27848 8.3816,-4.2441 0.2241,-0.17965 0.4932,-0.40222 0.53501,-0.40055 z m -39.5186,0.28618 c 0.048,0.0386 0.096,0.0765 0.1423,0.11377 2.439,1.96564 5.1544,3.96785 8.3817,4.24463 0.21,0.022 0.4231,0.0297 0.6366,0.0297 1.1994,0.0355 2.4389,-0.28866 3.2823,-1.18544 0.2518,-0.23577 0.4512,-0.50969 0.6048,-0.80608 0.2723,0.80489 0.5729,1.6006 0.8651,2.3848 0.111,0.32173 0.2524,0.62365 0.4151,0.91098 -0.051,0.0283 -0.1001,0.0591 -0.1518,0.0859 -0.8013,0.38773 -1.651,0.53182 -2.5108,0.53388 -1.1553,-0.0233 -2.3241,-0.2939 -3.4151,-0.58182 -2.0614,-0.47643 -4.095,-1.26489 -5.6952,-2.68941 -1.0399,-0.83592 -1.7714,-1.95657 -2.5415,-3.02466 -0.013,-0.009 0,-0.009 -0.013,-0.0159 z m 19.6513,9.61064 c 0.7948,0.34295 1.5822,0.70483 2.4022,0.97901 -0.4289,1.25318 -1.4365,2.0945 -2.4022,2.95662 -0.9654,-0.86212 -1.9729,-1.70344 -2.4019,-2.95662 0.8201,-0.27418 1.6074,-0.63606 2.4019,-0.97901 z m 15.4938,1.51008 c 0.1083,0.0238 0.086,0.12296 -0.05,0.2611 -2.6676,4.09098 -4.5263,8.63457 -6.7879,12.94937 -1.1815,2.64728 -2.9947,5.01758 -3.7593,7.84389 -0.6154,1.80456 0.1233,3.67217 0.671,5.38937 0.78,3.43937 1.485,7.12227 3.8564,9.87671 1.4853,1.38605 3.0381,2.71153 4.4322,4.19114 2.8302,2.98063 5.367,6.25983 7.7792,9.59834 0.6126,1.35168 2.4497,1.77546 3.6862,1.0477 1.6626,-0.98656 2.0468,-3.24488 1.4448,-4.96494 -0.2298,-0.98057 -1.2094,-1.73159 -1.0259,-2.79476 0.8688,-0.69956 2.0941,-0.72994 3.1703,-0.75089 1.1984,0.0188 2.427,0.0175 3.6082,-0.20754 0.2116,0.28887 0.4463,0.56608 0.7112,0.8256 2.5615,2.82443 6.4795,0.30163 7.5628,-2.6163 1.5446,-4.48233 6.885,-3.2072 10.5104,-3.0012 1.8345,-0.40674 3.065,0.43355 4.1761,1.89947 3.8726,3.12164 6.9522,7.36981 7.1003,12.51088 1.3314,8.58628 -4.4585,19.05082 -13.8793,19.18385 -5.7342,1.10355 -10.9709,-6.11806 -7.7937,-11.06662 -0.1639,1.63177 0.3987,4.79012 2.1556,6.287 4.4312,4.72099 13.3181,2.09265 14.4744,-4.27706 1.7542,-6.1672 -3.9478,-10.96526 -6.8046,-15.75809 -2.0579,-3.38171 -6.6111,-1.5549 -8.6973,0.79545 -5.0926,2.30481 -9.8128,6.41516 -11.2363,12.03954 -2.7014,5.41383 3.345,10.40099 2.1165,15.77764 -3.0997,3.37502 0.6293,9.97881 5.1567,8.30916 2.1983,-2.89362 6.0815,-3.44093 9.5409,-3.11391 1.0692,0.17079 2.1439,0.26358 3.2172,0.28562 -0.8432,0.93258 -1.5514,1.97286 -2.0786,3.11668 0.9802,3.24726 -2.3944,10.87904 2.6359,10.10603 3.6248,-0.90755 7.6713,0.50763 7.9091,4.90627 1.4229,0.71269 2.289,-6.27549 4.0612,-8.2556 1.6021,-4.20511 6.2651,-0.80693 5.6934,2.66985 0.462,7.25604 -6.6862,10.47319 -12.6576,11.72263 -5.1261,1.44968 -10.9357,0.76967 -15.7398,-1.23396 2.042,-4.17933 5.1542,-8.63254 2.9756,-13.52061 -3.8785,3.50724 -9.2087,7.49991 -14.5862,4.59727 -7.8383,-2.26309 -15.6403,-10.00109 -24.2435,-5.98239 -1.8405,0.27811 -3.6174,1.26111 -4.7985,2.66372 -1.1811,-1.40261 -2.9581,-2.38561 -4.7987,-2.66372 -8.6031,-4.0187 -16.4051,3.7193 -24.2435,5.98239 -5.37751,2.90264 -10.70761,-1.09003 -14.5861,-4.59727 -2.1786,4.88807 0.93359,9.34125 2.9756,13.52061 -4.80421,2.00358 -10.6138,2.68364 -15.7397,1.23396 -5.9715,-1.24944 -13.1197,-4.46659 -12.6576,-11.72263 -0.5718,-3.47678 4.09119,-6.87501 5.69339,-2.66985 1.7721,1.98011 2.6382,8.96829 4.0611,8.2556 0.2378,-4.39864 4.2842,-5.81382 7.9091,-4.90627 5.03031,0.77301 1.65571,-6.85877 2.63601,-10.10603 -0.52731,-1.14382 -1.2354,-2.1841 -2.0785,-3.11668 1.07309,-0.022 2.1478,-0.11486 3.2171,-0.28562 3.45949,-0.32702 7.34239,0.22029 9.5407,3.11391 4.5274,1.66965 8.2565,-4.93414 5.15679,-8.30916 -1.2284,-5.37665 4.81781,-10.36381 2.11651,-15.77764 -1.4236,-5.62438 -6.1436,-9.73473 -11.23611,-12.03954 -2.08639,-2.35035 -6.63969,-4.17716 -8.6975,-0.79545 -2.8569,4.79283 -8.5589,9.59089 -6.80459,15.75809 1.1562,6.36971 10.0434,8.99755 14.47439,4.27651 1.757,-1.49688 2.31951,-4.65468 2.15551,-6.28645 3.1774,4.94856 -2.0594,12.17017 -7.79371,11.06662 -9.42069,-0.13308 -15.21049,-10.59757 -13.8792,-19.18385 0.1481,-5.14107 3.22761,-9.38924 7.1003,-12.51088 1.11111,-1.46592 2.3417,-2.30621 4.17601,-1.89947 3.62559,-0.206 8.9659,-1.48113 10.51059,3.0012 1.08311,2.91793 5.00121,5.44073 7.56271,2.6163 0.2553,-0.25 0.482,-0.51649 0.68779,-0.79382 0.93091,0.16139 1.88901,0.18878 2.83661,0.18301 0.2214,0 0.4422,-0.005 0.6622,-0.005 1.0654,0.0209 2.2685,0.0585 3.1256,0.74864 0.1835,1.06317 -0.7954,1.8148 -1.0252,2.7954 -0.602,1.72 -0.2185,3.97838 1.4442,4.96488 0.4229,0.24895 0.9164,0.36028 1.4069,0.34864 1.0018,0.0384 2.0286,-0.45138 2.4567,-1.39631 2.4123,-3.33854 4.949,-6.61768 7.7793,-9.59834 1.394,-1.47958 2.9468,-2.80511 4.4321,-4.19113 2.3713,-2.75445 3.0763,-6.43732 3.8564,-9.87671 0.5474,-1.71715 1.2864,-3.58482 0.671,-5.38936 -0.7644,-2.82635 -2.5777,-5.19718 -3.7593,-7.84452 -2.2617,-4.31477 -4.1203,-8.8578 -6.7879,-12.94879 -0.1316,-0.13404 -0.1563,-0.22997 -0.059,-0.25773 1.3272,0.0434 2.4494,0.84228 3.6003,1.4192 2.2489,1.582 3.0009,4.37409 4.2932,6.65959 1.0348,1.74948 1.9124,3.58939 2.6153,5.4892 0.8344,1.96551 1.803,4.03474 3.54,5.35483 0.1179,0.0309 0.2285,0.037 0.3343,0.0279 0.449,0.0459 0.7989,-0.23032 1.1184,-0.54785 0.3557,0.35362 0.7495,0.65686 1.2758,0.51991 1.7371,-1.32006 2.7049,-3.38929 3.5396,-5.35482 0.7028,-1.89982 1.5808,-3.7397 2.6157,-5.48918 1.2924,-2.2855 2.0436,-5.07759 4.2926,-6.65959 1.1555,-0.57931 2.2822,-1.38298 3.6166,-1.42034 0.066,-0.01 0.1165,-0.01 0.1534,-0.005 z m 8.5674,1.11181 c 1.4394,0.59806 2.0326,2.19715 2.9455,3.35881 1.0898,1.60964 3.2574,2.42453 5.1133,1.77509 1.6248,-0.44257 3.2074,-1.28527 4.3428,-2.53881 4.5984,-0.0598 7.837,4.30948 10.5015,7.66487 1.7266,1.52961 -1.0497,0.62352 -2.1978,0.8641 -1.3413,-0.26463 -2.652,-0.0558 -3.8119,0.4781 -0.2166,-0.21227 -0.4367,-0.42092 -0.6661,-0.62089 -2.1673,-1.76231 -4.7771,-3.28303 -7.6431,-3.34264 -1.7336,0.0674 -3.6406,0.49802 -4.8377,1.84981 -1.0059,0.99128 -0.921,2.71404 0.014,3.72366 2.5387,2.32058 6.0974,3.30621 8.3322,5.99964 1.1827,1.15096 1.2567,2.94145 1.0582,4.47955 -0.059,2.94474 -1.6617,5.71178 -3.9909,7.45678 -3.0699,2.25693 -7.1633,2.82231 -10.8669,2.1929 -3.1211,-0.33153 -5.7863,-2.63001 -6.9491,-5.48087 -0.7977,-1.71927 -0.7958,-3.72417 -1.7549,-5.38994 -1.3101,-1.40544 -1.1568,-3.65313 -0.173,-5.18186 0.2373,0.78616 0.3966,1.61433 0.6515,2.40435 1.081,3.72634 3.8376,7.0504 7.5488,8.35596 2.2493,0.87725 4.8229,1.62523 7.1868,0.73303 1.7787,-0.4268 2.7889,-2.55339 2.1437,-4.2296 -1.6756,-3.75613 -5.0227,-6.33407 -7.705,-9.32778 -3.4075,-3.47626 -4.0261,-9.34255 -1.3119,-13.40345 0.5723,-0.69667 1.0645,-1.74688 2.0729,-1.82081 z m -48.1613,0.0185 c 0.9155,0.15558 1.3898,1.13866 1.9353,1.80242 2.714,4.06088 2.0956,9.92717 -1.3121,13.4034 -2.6823,2.9937 -6.0299,5.57165 -7.7055,9.3278 -0.6453,1.67622 0.3655,3.80281 2.1443,4.22961 0.7737,0.29204 1.5697,0.40531 2.3697,0.39886 1.7018,0.0257 3.4265,-0.52057 4.9939,-1.13187 3.7111,-1.30558 6.4678,-4.62965 7.5489,-8.35599 0.233,-0.72273 0.389,-1.476 0.595,-2.20128 0.8718,1.51937 0.9602,3.63392 -0.2932,4.97877 -0.9594,1.66582 -0.958,3.67073 -1.7556,5.38996 -1.1627,2.85086 -3.8275,5.14938 -6.9486,5.48087 -0.8974,0.15251 -1.8177,0.23358 -2.7407,0.23876 -2.8285,-0.0145 -5.6707,-0.75647 -7.94951,-2.43168 -2.32919,-1.74498 -3.93139,-4.51199 -3.99079,-7.45675 -0.19861,-1.5381 -0.1248,-3.32859 1.05819,-4.47955 2.23501,-2.69344 5.79351,-3.67904 8.33211,-5.99964 0.9323,-1.00963 1.0171,-2.73291 0.013,-3.72422 -1.197,-1.35179 -3.104,-1.78189 -4.83751,-1.84928 -0.032,0 -0.066,0.005 -0.099,0.005 -0.026,0 -0.051,-0.005 -0.079,-0.005 -2.8658,0.0597 -5.4757,1.58038 -7.643,3.34266 -0.2099,0.18304 -0.4133,0.37285 -0.6125,0.56621 -1.1292,-0.4926 -2.3951,-0.67868 -3.689,-0.42338 -1.1482,-0.24059 -3.9239,0.66548 -2.1974,-0.86416 2.6296,-3.31168 5.8181,-7.61362 10.3218,-7.6676 1.1357,1.25497 2.7196,2.09865 4.3457,2.54156 0.47651,0.16674 0.97361,0.23532 1.46771,0.22035 1.4903,0.0167 2.979,-0.74981 3.8223,-1.99544 0.9044,-1.15075 1.4963,-2.72944 2.9064,-3.34039 z m -24.8203,20.53495 c 0.9587,-0.0124 1.92619,0.14925 2.8774,0.51213 -0.12471,0.68445 -0.2085,1.37567 -0.255,2.06904 -0.94631,-0.13838 -1.89091,-0.1578 -2.6943,-0.0854 -4.38571,0.52554 -7.5981,4.09636 -10.49431,6.95251 0.9573,-4.79986 5.64241,-9.38628 10.56621,-9.4483 z m 97.8412,0 c 4.9238,0.0619 9.6086,4.64844 10.5661,9.4483 -2.8962,-2.8561 -6.1085,-6.42692 -10.4942,-6.95246 -0.8531,-0.0769 -1.8654,-0.0505 -2.8696,0.11266 -0.045,-0.67932 -0.1248,-1.35681 -0.2438,-2.02777 1.0038,-0.40867 2.0274,-0.59348 3.0415,-0.58073 z m -135.28071,6.35219 c 3.3443,2.02973 6.20531,4.98515 6.2591,9.19055 2.21941,11.86219 1.40271,25.7661 10.353,35.11941 0.90001,0.99531 1.87991,1.90974 2.92331,2.7396 -1.02621,0.14761 -2.0395,0.38135 -3.0237,0.70845 -3.6991,3.66078 -10.177,7.41564 -8.72461,13.66676 -0.7406,5.58731 -0.26259,11.58346 4.22451,15.6577 1.4674,5.25759 7.42669,3.05054 10.7252,6.00133 0.9826,1.99096 -3.92111,4.03982 -1.59771,6.56143 5.894,4.8142 14.08511,0.53168 19.5688,-2.91142 -2.82839,2.54357 -8.7106,6.86707 -13.7364,8.3103 -6.65609,1.65838 -16.60799,2.22885 -20.2165,-4.97438 -0.33689,-2.76704 1.24721,-8.57581 -3.5313,-8.14848 -1.4108,0.36613 -2.4491,1.10802 -3.2237,2.08801 z m 172.56221,0.0987 c -0.069,27.91251 -0.092,55.82402 0.014,83.73375 -0.7578,-0.89138 -1.7515,-1.56766 -3.0754,-1.91119 -4.7784,-0.42733 -3.195,5.38144 -3.5319,8.14853 -3.6085,7.20318 -13.5597,6.63271 -20.2158,4.97433 -5.0258,-1.44325 -10.9082,-5.76673 -13.7364,-8.3103 5.4838,3.4431 13.6747,7.72562 19.5688,2.91142 2.3236,-2.52161 -2.5804,-4.57047 -1.5976,-6.56143 3.2983,-2.95079 9.2575,-0.74374 10.725,-6.0013 4.487,-4.07427 4.9652,-10.07042 4.2246,-15.65773 1.4524,-6.25112 -5.0257,-10.00598 -8.7247,-13.66676 -0.9842,-0.32716 -1.9979,-0.56084 -3.0241,-0.70845 1.0436,-0.82994 2.0238,-1.74416 2.9237,-2.7396 8.9503,-9.35331 8.1337,-23.25722 10.3531,-35.11941 0.053,-4.1387 2.8257,-7.06523 6.1012,-9.09186 z m -101.0148,69.68824 c 1.5748,-0.0483 3.3917,1.81602 4.5175,3.22045 2.3227,3.86292 7.824,3.1767 10.295,0.19527 2.4713,2.98143 7.9727,3.66765 10.2953,-0.19527 1.7155,-2.14008 5.035,-5.34699 6.659,-1.22952 5.9979,6.25478 10.9645,17.12995 4.8788,24.89796 -3.4105,1.30421 -3.5286,6.89544 0.6278,6.8894 7.0396,0.89072 13.0122,-5.99347 11.7292,-12.85785 0.063,-1.38821 -1.643,-5.58048 0.4898,-2.38312 4.8458,6.62262 10.702,13.69784 18.8927,15.81054 H -297.2045 c 8.19081,-2.1127 14.04701,-9.18792 18.8926,-15.81054 2.13301,-3.19736 0.4271,0.99491 0.48991,2.38312 -1.28311,6.86438 4.6895,13.74857 11.7291,12.85785 4.1565,0.007 4.0385,-5.58519 0.6276,-6.8894 -6.0856,-7.76801 -1.1191,-18.64318 4.879,-24.89796 0.5584,-1.41538 1.3168,-1.96569 2.1416,-1.99093 z m -71.54741,33.17417 c 1.0368,0.43228 2.0958,0.82151 3.1703,1.17367 h -3.1703 z m 172.65981,0.0251 c 0,0.38282 0,0.76575 0,1.14858 h -3.116 c 1.0537,-0.34536 2.0924,-0.72634 3.1099,-1.14858 z"
       id="rect2717-6-7-8"
       inkscape:connector-curvature="0" />
  </g>
</svg>
