<?xml version="1.0" encoding="UTF-8" standalone="no"?>
<svg
   xmlns:dc="http://purl.org/dc/elements/1.1/"
   xmlns:cc="http://creativecommons.org/ns#"
   xmlns:rdf="http://www.w3.org/1999/02/22-rdf-syntax-ns#"
   xmlns:svg="http://www.w3.org/2000/svg"
   xmlns="http://www.w3.org/2000/svg"
   xmlns:sodipodi="http://sodipodi.sourceforge.net/DTD/sodipodi-0.dtd"
   xmlns:inkscape="http://www.inkscape.org/namespaces/inkscape"
   id="svg1837"
   version="1.1"
   viewBox="0 0 579.21399 255.869"
   height="255.869mm"
   width="579.21399mm"
   sodipodi:docname="just_cover.svg"
   inkscape:version="0.92.2 (5c3e80d, 2017-08-06)">
  <sodipodi:namedview
     pagecolor="#ffffff"
     bordercolor="#666666"
     borderopacity="1"
     objecttolerance="10"
     gridtolerance="10"
     guidetolerance="10"
     inkscape:pageopacity="0"
     inkscape:pageshadow="2"
     inkscape:window-width="1366"
     inkscape:window-height="719"
     id="namedview11"
     showgrid="false"
     inkscape:zoom="0.15805183"
     inkscape:cx="1094.5776"
     inkscape:cy="483.53197"
     inkscape:window-x="0"
     inkscape:window-y="0"
     inkscape:window-maximized="1"
     inkscape:current-layer="svg1837" />
  <defs
     id="defs1831" />
  <metadata
     id="metadata1834">
    <rdf:RDF>
      <cc:Work
         rdf:about="">
        <dc:format>image/svg+xml</dc:format>
        <dc:type
           rdf:resource="http://purl.org/dc/dcmitype/StillImage" />
        <dc:title></dc:title>
      </cc:Work>
    </rdf:RDF>
  </metadata>
  <g
     transform="translate(269.1963,212.69045)"
     id="layer1">
    <g
       transform="matrix(1,0,0,-1,0,-169.51189)"
       id="g1855">
      <g
         transform="matrix(1,0,0,-1,1864.5151,-730.27185)"
         id="g1422-4-6">
        <path
           id="rect209-2-0-2"
           d="m -2133.7114,-773.4504 h 579.214 l -128.753,255.869 h -321.709 z"
           style="opacity:1;vector-effect:none;fill:#008000;fill-opacity:1;stroke:none;stroke-width:6;stroke-linecap:butt;stroke-linejoin:miter;stroke-miterlimit:4;stroke-dasharray:none;stroke-dashoffset:0;stroke-opacity:1" />
        <g
           transform="translate(405.18754,-206.41636)"
           id="g1296-9-3-6">
          <path
             d="m -2151.292,-439.09952 a 5,5 0 0 1 -5,5 5,5 0 0 1 -5,-5 5,5 0 0 1 5,-5 5,5 0 0 1 5,5 z m -186,0 a 5,5 0 0 1 -5,5 5,5 0 0 1 -5,-5 5,5 0 0 1 5,-5 5,5 0 0 1 5,5 z m 227.9998,-50.87924 v 4 h -32 v -4 z m -62,0 v 4 h -32 v -4 z m -124,0 v 4 h -32 v -4 z m -62,0 v 4 h -32 v -4 z m 124,0 v 4 h -32 v -4 z m 124.0001,101.75844 v -4 h -32 v 4 z m -62,0 v -4 h -32 v 4 z m -124,0 v -4 h -32 v 4 z m -62,0 v -4 h -32 v 4 z m 124,0 v -4 h -32 v 4 z"
             style="opacity:1;vector-effect:none;fill:#ff00ff;fill-opacity:1;stroke:none;stroke-width:5.99999952;stroke-linecap:butt;stroke-linejoin:miter;stroke-miterlimit:4;stroke-dasharray:none;stroke-dashoffset:0;stroke-opacity:1"
             id="path176-0-46-8-9-7" />
        </g>
      </g>
    </g>
  </g>
</svg>
